solid ascii
  facet normal 1.000000e+000 -0.000000e+000 1.776357e-015
    outer loop
      vertex   1.172300e+001 -1.210694e+001 0.000000e+000
      vertex   1.172300e+001 8.881835e+000 0.000000e+000
      vertex   1.172300e+001 -1.210694e+001 1.000000e+000
    endloop
  endfacet
  facet normal 1.000000e+000 0.000000e+000 1.776357e-015
    outer loop
      vertex   1.172300e+001 -1.210694e+001 1.000000e+000
      vertex   1.172300e+001 8.881835e+000 0.000000e+000
      vertex   1.172300e+001 8.881835e+000 1.000000e+000
    endloop
  endfacet
  facet normal 0.000000e+000 -1.000000e+000 0.000000e+000
    outer loop
      vertex   -9.265776e+000 -1.210694e+001 0.000000e+000
      vertex   1.172300e+001 -1.210694e+001 0.000000e+000
      vertex   -9.265776e+000 -1.210694e+001 1.000000e+000
    endloop
  endfacet
  facet normal 0.000000e+000 -1.000000e+000 0.000000e+000
    outer loop
      vertex   -9.265776e+000 -1.210694e+001 1.000000e+000
      vertex   1.172300e+001 -1.210694e+001 0.000000e+000
      vertex   1.172300e+001 -1.210694e+001 1.000000e+000
    endloop
  endfacet
  facet normal -1.000000e+000 0.000000e+000 0.000000e+000
    outer loop
      vertex   -9.265776e+000 8.881835e+000 0.000000e+000
      vertex   -9.265776e+000 -1.210694e+001 0.000000e+000
      vertex   -9.265776e+000 8.881835e+000 1.000000e+000
    endloop
  endfacet
  facet normal -1.000000e+000 -0.000000e+000 0.000000e+000
    outer loop
      vertex   -9.265776e+000 8.881835e+000 1.000000e+000
      vertex   -9.265776e+000 -1.210694e+001 0.000000e+000
      vertex   -9.265776e+000 -1.210694e+001 1.000000e+000
    endloop
  endfacet
  facet normal 0.000000e+000 1.000000e+000 -0.000000e+000
    outer loop
      vertex   1.172300e+001 8.881835e+000 0.000000e+000
      vertex   -9.265776e+000 8.881835e+000 0.000000e+000
      vertex   1.172300e+001 8.881835e+000 1.000000e+000
    endloop
  endfacet
  facet normal 0.000000e+000 1.000000e+000 -0.000000e+000
    outer loop
      vertex   1.172300e+001 8.881835e+000 1.000000e+000
      vertex   -9.265776e+000 8.881835e+000 0.000000e+000
      vertex   -9.265776e+000 8.881835e+000 1.000000e+000
    endloop
  endfacet
  facet normal 0.000000e+000 -0.000000e+000 -1.000000e+000
    outer loop
      vertex   -9.265776e+000 8.881835e+000 0.000000e+000
      vertex   1.172300e+001 8.881835e+000 0.000000e+000
      vertex   -9.265776e+000 -1.210694e+001 0.000000e+000
    endloop
  endfacet
  facet normal 0.000000e+000 0.000000e+000 -1.000000e+000
    outer loop
      vertex   -9.265776e+000 -1.210694e+001 0.000000e+000
      vertex   1.172300e+001 8.881835e+000 0.000000e+000
      vertex   1.172300e+001 -1.210694e+001 0.000000e+000
    endloop
  endfacet
  facet normal 0.000000e+000 0.000000e+000 1.000000e+000
    outer loop
      vertex   1.172300e+001 8.881835e+000 1.000000e+000
      vertex   -9.265776e+000 8.881835e+000 1.000000e+000
      vertex   1.172300e+001 -1.210694e+001 1.000000e+000
    endloop
  endfacet
  facet normal 0.000000e+000 0.000000e+000 1.000000e+000
    outer loop
      vertex   1.172300e+001 -1.210694e+001 1.000000e+000
      vertex   -9.265776e+000 8.881835e+000 1.000000e+000
      vertex   -9.265776e+000 -1.210694e+001 1.000000e+000
    endloop
  endfacet
endsolid
