999
Software by Reuben Reyes hitechmex@gmail.com    : STL to DXF utility            
  0
SECTION
  2
ENTITIES
  0
3DFACE
  8
0
 10
110.1553
 20
111.5551
 30
1.882859
 11
110.2047
 21
111.4681
 31
1.392968
 12
110.0519
 22
111.8579
 32
1.81867
 13
110.0519
 23
111.8579
 33
1.81867
  0
3DFACE
  8
0
 10
110.1553
 20
111.5551
 30
1.882859
 11
110.3843
 21
111.2035
 31
1.458051
 12
110.2047
 22
111.4681
 32
1.392968
 13
110.2047
 23
111.4681
 33
1.392968
  0
3DFACE
  8
0
 10
110.1553
 20
111.5551
 30
1.882859
 11
110.3349
 21
111.2905
 31
1.947943
 12
110.3843
 22
111.2035
 32
1.458051
 13
110.3843
 23
111.2035
 33
1.458051
  0
3DFACE
  8
0
 10
110.3843
 20
111.2035
 30
1.458051
 11
110.3349
 21
111.2905
 31
1.947943
 12
110.6278
 22
110.9952
 32
1.519594
 13
110.6278
 23
110.9952
 33
1.519594
  0
3DFACE
  8
0
 10
110.6278
 20
110.9952
 30
1.519594
 11
110.3349
 21
111.2905
 31
1.947943
 12
110.5784
 22
111.0822
 32
2.009485
 13
110.5784
 23
111.0822
 33
2.009485
  0
3DFACE
  8
0
 10
110.9185
 20
110.8572
 30
1.5734
 11
110.5784
 21
111.0822
 31
2.009485
 12
110.8692
 22
110.9442
 32
2.063292
 13
110.8692
 23
110.9442
 33
2.063292
  0
3DFACE
  8
0
 10
111.2368
 20
110.7991
 30
1.615805
 11
110.8692
 21
110.9442
 31
2.063292
 12
111.1874
 22
110.8861
 32
2.105696
 13
111.1874
 23
110.8861
 33
2.105696
  0
3DFACE
  8
0
 10
111.5609
 20
110.8248
 30
1.643919
 11
111.1874
 21
110.8861
 31
2.105696
 12
111.5115
 22
110.9117
 32
2.13381
 13
111.5115
 23
110.9117
 33
2.13381
  0
3DFACE
  8
0
 10
111.8687
 20
110.9324
 30
1.655823
 11
111.5115
 21
110.9117
 31
2.13381
 12
111.8193
 22
111.0194
 32
2.145715
 13
111.8193
 23
111.0194
 33
2.145715
  0
3DFACE
  8
0
 10
112.1393
 20
111.1148
 30
1.65071
 11
111.8193
 21
111.0194
 31
2.145715
 12
112.0899
 22
111.2018
 32
2.140601
 13
112.0899
 23
111.2018
 33
2.140601
  0
3DFACE
  8
0
 10
112.3541
 20
111.3594
 30
1.628926
 11
112.0899
 21
111.2018
 31
2.140601
 12
112.3047
 22
111.4464
 32
2.118817
 13
112.3047
 23
111.4464
 33
2.118817
  0
3DFACE
  8
0
 10
112.4986
 20
111.6497
 30
1.591955
 11
112.3047
 21
111.4464
 31
2.118817
 12
112.4493
 22
111.7366
 32
2.081846
 13
112.4493
 23
111.7366
 33
2.081846
  0
3DFACE
  8
0
 10
112.563
 20
111.9657
 30
1.542318
 11
112.4493
 21
111.7366
 31
2.081846
 12
112.5136
 22
112.0527
 32
2.032209
 13
112.5136
 23
112.0527
 33
2.032209
  0
3DFACE
  8
0
 10
112.5427
 20
112.286
 30
1.483397
 11
112.5136
 21
112.0527
 31
2.032209
 12
112.4934
 22
112.373
 32
1.973288
 13
112.4934
 23
112.373
 33
1.973288
  0
3DFACE
  8
0
 10
112.4393
 20
112.5888
 30
1.419207
 11
112.4934
 21
112.373
 31
1.973288
 12
112.3899
 22
112.6758
 32
1.909099
 13
112.3899
 23
112.6758
 33
1.909099
  0
3DFACE
  8
0
 10
112.2597
 20
112.8533
 30
1.354124
 11
112.3899
 21
112.6758
 31
1.909099
 12
112.2104
 22
112.9403
 32
1.844015
 13
112.2104
 23
112.9403
 33
1.844015
  0
3DFACE
  8
0
 10
112.0163
 20
113.0617
 30
1.292582
 11
112.2104
 21
112.9403
 31
1.844015
 12
111.9669
 22
113.1487
 32
1.782473
 13
111.9669
 23
113.1487
 33
1.782473
  0
3DFACE
  8
0
 10
111.7255
 20
113.1996
 30
1.238775
 11
111.9669
 21
113.1487
 31
1.782473
 12
111.6761
 22
113.2866
 32
1.728666
 13
111.6761
 23
113.2866
 33
1.728666
  0
3DFACE
  8
0
 10
111.4072
 20
113.2578
 30
1.196369
 11
111.6761
 21
113.2866
 31
1.728666
 12
111.3578
 22
113.3448
 32
1.686261
 13
111.3578
 23
113.3448
 33
1.686261
  0
3DFACE
  8
0
 10
111.0831
 20
113.2321
 30
1.168257
 11
111.3578
 21
113.3448
 31
1.686261
 12
111.0337
 22
113.3191
 32
1.658148
 13
111.0337
 23
113.3191
 33
1.658148
  0
3DFACE
  8
0
 10
110.7753
 20
113.1245
 30
1.156351
 11
111.0337
 21
113.3191
 31
1.658148
 12
110.7259
 22
113.2114
 32
1.646242
 13
110.7259
 23
113.2114
 33
1.646242
  0
3DFACE
  8
0
 10
110.5047
 20
112.9421
 30
1.161466
 11
110.7259
 21
113.2114
 31
1.646242
 12
110.4554
 22
113.0291
 32
1.651357
 13
110.4554
 23
113.0291
 33
1.651357
  0
3DFACE
  8
0
 10
110.2899
 20
112.6974
 30
1.183249
 11
110.4554
 21
113.0291
 31
1.651357
 12
110.2405
 22
112.7844
 32
1.673141
 13
110.2405
 23
112.7844
 33
1.673141
  0
3DFACE
  8
0
 10
110.1454
 20
112.4072
 30
1.22022
 11
110.2405
 21
112.7844
 31
1.673141
 12
110.096
 22
112.4942
 32
1.710112
 13
110.096
 23
112.4942
 33
1.710112
  0
3DFACE
  8
0
 10
110.081
 20
112.0912
 30
1.269857
 11
110.096
 21
112.4942
 31
1.710112
 12
110.0317
 22
112.1782
 32
1.759748
 13
110.0317
 23
112.1782
 33
1.759748
  0
3DFACE
  8
0
 10
110.1013
 20
111.7709
 30
1.328778
 11
110.0317
 21
112.1782
 31
1.759748
 12
110.0519
 22
111.8579
 32
1.81867
 13
110.0519
 23
111.8579
 33
1.81867
  0
3DFACE
  8
0
 10
110.2047
 20
111.4681
 30
1.392968
 11
110.1013
 21
111.7709
 31
1.328778
 12
110.0519
 22
111.8579
 32
1.81867
 13
110.0519
 23
111.8579
 33
1.81867
  0
3DFACE
  8
0
 10
110.6278
 20
110.9952
 30
1.519594
 11
110.5784
 21
111.0822
 31
2.009485
 12
110.9185
 22
110.8572
 32
1.5734
 13
110.9185
 23
110.8572
 33
1.5734
  0
3DFACE
  8
0
 10
110.9185
 20
110.8572
 30
1.5734
 11
110.8692
 21
110.9442
 31
2.063292
 12
111.2368
 22
110.7991
 32
1.615805
 13
111.2368
 23
110.7991
 33
1.615805
  0
3DFACE
  8
0
 10
111.2368
 20
110.7991
 30
1.615805
 11
111.1874
 21
110.8861
 31
2.105696
 12
111.5609
 22
110.8248
 32
1.643919
 13
111.5609
 23
110.8248
 33
1.643919
  0
3DFACE
  8
0
 10
111.5609
 20
110.8248
 30
1.643919
 11
111.5115
 21
110.9117
 31
2.13381
 12
111.8687
 22
110.9324
 32
1.655823
 13
111.8687
 23
110.9324
 33
1.655823
  0
3DFACE
  8
0
 10
111.8687
 20
110.9324
 30
1.655823
 11
111.8193
 21
111.0194
 31
2.145715
 12
112.1393
 22
111.1148
 32
1.65071
 13
112.1393
 23
111.1148
 33
1.65071
  0
3DFACE
  8
0
 10
112.1393
 20
111.1148
 30
1.65071
 11
112.0899
 21
111.2018
 31
2.140601
 12
112.3541
 22
111.3594
 32
1.628926
 13
112.3541
 23
111.3594
 33
1.628926
  0
3DFACE
  8
0
 10
112.3541
 20
111.3594
 30
1.628926
 11
112.3047
 21
111.4464
 31
2.118817
 12
112.4986
 22
111.6497
 32
1.591955
 13
112.4986
 23
111.6497
 33
1.591955
  0
3DFACE
  8
0
 10
112.4986
 20
111.6497
 30
1.591955
 11
112.4493
 21
111.7366
 31
2.081846
 12
112.563
 22
111.9657
 32
1.542318
 13
112.563
 23
111.9657
 33
1.542318
  0
3DFACE
  8
0
 10
112.563
 20
111.9657
 30
1.542318
 11
112.5136
 21
112.0527
 31
2.032209
 12
112.5427
 22
112.286
 32
1.483397
 13
112.5427
 23
112.286
 33
1.483397
  0
3DFACE
  8
0
 10
112.5427
 20
112.286
 30
1.483397
 11
112.4934
 21
112.373
 31
1.973288
 12
112.4393
 22
112.5888
 32
1.419207
 13
112.4393
 23
112.5888
 33
1.419207
  0
3DFACE
  8
0
 10
112.4393
 20
112.5888
 30
1.419207
 11
112.3899
 21
112.6758
 31
1.909099
 12
112.2597
 22
112.8533
 32
1.354124
 13
112.2597
 23
112.8533
 33
1.354124
  0
3DFACE
  8
0
 10
112.2597
 20
112.8533
 30
1.354124
 11
112.2104
 21
112.9403
 31
1.844015
 12
112.0163
 22
113.0617
 32
1.292582
 13
112.0163
 23
113.0617
 33
1.292582
  0
3DFACE
  8
0
 10
112.0163
 20
113.0617
 30
1.292582
 11
111.9669
 21
113.1487
 31
1.782473
 12
111.7255
 22
113.1996
 32
1.238775
 13
111.7255
 23
113.1996
 33
1.238775
  0
3DFACE
  8
0
 10
111.7255
 20
113.1996
 30
1.238775
 11
111.6761
 21
113.2866
 31
1.728666
 12
111.4072
 22
113.2578
 32
1.196369
 13
111.4072
 23
113.2578
 33
1.196369
  0
3DFACE
  8
0
 10
111.4072
 20
113.2578
 30
1.196369
 11
111.3578
 21
113.3448
 31
1.686261
 12
111.0831
 22
113.2321
 32
1.168257
 13
111.0831
 23
113.2321
 33
1.168257
  0
3DFACE
  8
0
 10
111.0831
 20
113.2321
 30
1.168257
 11
111.0337
 21
113.3191
 31
1.658148
 12
110.7753
 22
113.1245
 32
1.156351
 13
110.7753
 23
113.1245
 33
1.156351
  0
3DFACE
  8
0
 10
110.7753
 20
113.1245
 30
1.156351
 11
110.7259
 21
113.2114
 31
1.646242
 12
110.5047
 22
112.9421
 32
1.161466
 13
110.5047
 23
112.9421
 33
1.161466
  0
3DFACE
  8
0
 10
110.5047
 20
112.9421
 30
1.161466
 11
110.4554
 21
113.0291
 31
1.651357
 12
110.2899
 22
112.6974
 32
1.183249
 13
110.2899
 23
112.6974
 33
1.183249
  0
3DFACE
  8
0
 10
110.2899
 20
112.6974
 30
1.183249
 11
110.2405
 21
112.7844
 31
1.673141
 12
110.1454
 22
112.4072
 32
1.22022
 13
110.1454
 23
112.4072
 33
1.22022
  0
3DFACE
  8
0
 10
110.1454
 20
112.4072
 30
1.22022
 11
110.096
 21
112.4942
 31
1.710112
 12
110.081
 22
112.0912
 32
1.269857
 13
110.081
 23
112.0912
 33
1.269857
  0
3DFACE
  8
0
 10
110.081
 20
112.0912
 30
1.269857
 11
110.0317
 21
112.1782
 31
1.759748
 12
110.1013
 22
111.7709
 32
1.328778
 13
110.1013
 23
111.7709
 33
1.328778
  0
3DFACE
  8
0
 10
99.9863
 20
105.1249
 30
1.999713
 11
100.0357
 21
105.0379
 31
1.509822
 12
99.88287
 22
105.4276
 32
1.935523
 13
99.88287
 23
105.4276
 33
1.935523
  0
3DFACE
  8
0
 10
99.9863
 20
105.1249
 30
1.999713
 11
100.2152
 21
104.7733
 31
1.574905
 12
100.0357
 22
105.0379
 32
1.509822
 13
100.0357
 23
105.0379
 33
1.509822
  0
3DFACE
  8
0
 10
99.9863
 20
105.1249
 30
1.999713
 11
100.1659
 21
104.8603
 31
2.064796
 12
100.2152
 22
104.7733
 32
1.574905
 13
100.2152
 23
104.7733
 33
1.574905
  0
3DFACE
  8
0
 10
100.2152
 20
104.7733
 30
1.574905
 11
100.1659
 21
104.8603
 31
2.064796
 12
100.4587
 22
104.565
 32
1.636448
 13
100.4587
 23
104.565
 33
1.636448
  0
3DFACE
  8
0
 10
100.4587
 20
104.565
 30
1.636448
 11
100.1659
 21
104.8603
 31
2.064796
 12
100.4093
 22
104.6519
 32
2.126339
 13
100.4093
 23
104.6519
 33
2.126339
  0
3DFACE
  8
0
 10
100.7495
 20
104.427
 30
1.690254
 11
100.4093
 21
104.6519
 31
2.126339
 12
100.7001
 22
104.514
 32
2.180145
 13
100.7001
 23
104.514
 33
2.180145
  0
3DFACE
  8
0
 10
101.0678
 20
104.3689
 30
1.732659
 11
100.7001
 21
104.514
 31
2.180145
 12
101.0184
 22
104.4559
 32
2.22255
 13
101.0184
 23
104.4559
 33
2.22255
  0
3DFACE
  8
0
 10
101.3919
 20
104.3945
 30
1.760772
 11
101.0184
 21
104.4559
 31
2.22255
 12
101.3425
 22
104.4815
 32
2.250664
 13
101.3425
 23
104.4815
 33
2.250664
  0
3DFACE
  8
0
 10
101.6997
 20
104.5022
 30
1.772677
 11
101.3425
 21
104.4815
 31
2.250664
 12
101.6503
 22
104.5892
 32
2.262568
 13
101.6503
 23
104.5892
 33
2.262568
  0
3DFACE
  8
0
 10
101.9702
 20
104.6846
 30
1.767563
 11
101.6503
 21
104.5892
 31
2.262568
 12
101.9209
 22
104.7716
 32
2.257454
 13
101.9209
 23
104.7716
 33
2.257454
  0
3DFACE
  8
0
 10
102.1851
 20
104.9292
 30
1.745779
 11
101.9209
 21
104.7716
 31
2.257454
 12
102.1357
 22
105.0162
 32
2.235671
 13
102.1357
 23
105.0162
 33
2.235671
  0
3DFACE
  8
0
 10
102.3296
 20
105.2194
 30
1.708809
 11
102.1357
 21
105.0162
 31
2.235671
 12
102.2802
 22
105.3064
 32
2.1987
 13
102.2802
 23
105.3064
 33
2.1987
  0
3DFACE
  8
0
 10
102.394
 20
105.5355
 30
1.659172
 11
102.2802
 21
105.3064
 31
2.1987
 12
102.3446
 22
105.6225
 32
2.149063
 13
102.3446
 23
105.6225
 33
2.149063
  0
3DFACE
  8
0
 10
102.3737
 20
105.8558
 30
1.60025
 11
102.3446
 21
105.6225
 31
2.149063
 12
102.3243
 22
105.9428
 32
2.090142
 13
102.3243
 23
105.9428
 33
2.090142
  0
3DFACE
  8
0
 10
102.2703
 20
106.1585
 30
1.536061
 11
102.3243
 21
105.9428
 31
2.090142
 12
102.2209
 22
106.2455
 32
2.025952
 13
102.2209
 23
106.2455
 33
2.025952
  0
3DFACE
  8
0
 10
102.0907
 20
106.4231
 30
1.470978
 11
102.2209
 21
106.2455
 31
2.025952
 12
102.0413
 22
106.5101
 32
1.960869
 13
102.0413
 23
106.5101
 33
1.960869
  0
3DFACE
  8
0
 10
101.8472
 20
106.6315
 30
1.409435
 11
102.0413
 21
106.5101
 31
1.960869
 12
101.7979
 22
106.7185
 32
1.899326
 13
101.7979
 23
106.7185
 33
1.899326
  0
3DFACE
  8
0
 10
101.5564
 20
106.7694
 30
1.355628
 11
101.7979
 21
106.7185
 31
1.899326
 12
101.5071
 22
106.8564
 32
1.84552
 13
101.5071
 23
106.8564
 33
1.84552
  0
3DFACE
  8
0
 10
101.2382
 20
106.8276
 30
1.313223
 11
101.5071
 21
106.8564
 31
1.84552
 12
101.1888
 22
106.9146
 32
1.803114
 13
101.1888
 23
106.9146
 33
1.803114
  0
3DFACE
  8
0
 10
100.9141
 20
106.8019
 30
1.28511
 11
101.1888
 21
106.9146
 31
1.803114
 12
100.8647
 22
106.8889
 32
1.775002
 13
100.8647
 23
106.8889
 33
1.775002
  0
3DFACE
  8
0
 10
100.6063
 20
106.6942
 30
1.273205
 11
100.8647
 21
106.8889
 31
1.775002
 12
100.5569
 22
106.7812
 32
1.763096
 13
100.5569
 23
106.7812
 33
1.763096
  0
3DFACE
  8
0
 10
100.3357
 20
106.5119
 30
1.278319
 11
100.5569
 21
106.7812
 31
1.763096
 12
100.2863
 22
106.5988
 32
1.768211
 13
100.2863
 23
106.5988
 33
1.768211
  0
3DFACE
  8
0
 10
100.1209
 20
106.2672
 30
1.300103
 11
100.2863
 21
106.5988
 31
1.768211
 12
100.0715
 22
106.3542
 32
1.789995
 13
100.0715
 23
106.3542
 33
1.789995
  0
3DFACE
  8
0
 10
99.97634
 20
105.977
 30
1.337074
 11
100.0715
 21
106.3542
 31
1.789995
 12
99.92696
 22
106.064
 32
1.826965
 13
99.92696
 23
106.064
 33
1.826965
  0
3DFACE
  8
0
 10
99.91201
 20
105.661
 30
1.386711
 11
99.92696
 21
106.064
 31
1.826965
 12
99.86263
 22
105.748
 32
1.876602
 13
99.86263
 23
105.748
 33
1.876602
  0
3DFACE
  8
0
 10
99.93224
 20
105.3407
 30
1.445632
 11
99.86263
 21
105.748
 31
1.876602
 12
99.88287
 22
105.4276
 32
1.935523
 13
99.88287
 23
105.4276
 33
1.935523
  0
3DFACE
  8
0
 10
100.0357
 20
105.0379
 30
1.509822
 11
99.93224
 21
105.3407
 31
1.445632
 12
99.88287
 22
105.4276
 32
1.935523
 13
99.88287
 23
105.4276
 33
1.935523
  0
3DFACE
  8
0
 10
100.4587
 20
104.565
 30
1.636448
 11
100.4093
 21
104.6519
 31
2.126339
 12
100.7495
 22
104.427
 32
1.690254
 13
100.7495
 23
104.427
 33
1.690254
  0
3DFACE
  8
0
 10
100.7495
 20
104.427
 30
1.690254
 11
100.7001
 21
104.514
 31
2.180145
 12
101.0678
 22
104.3689
 32
1.732659
 13
101.0678
 23
104.3689
 33
1.732659
  0
3DFACE
  8
0
 10
101.0678
 20
104.3689
 30
1.732659
 11
101.0184
 21
104.4559
 31
2.22255
 12
101.3919
 22
104.3945
 32
1.760772
 13
101.3919
 23
104.3945
 33
1.760772
  0
3DFACE
  8
0
 10
101.3919
 20
104.3945
 30
1.760772
 11
101.3425
 21
104.4815
 31
2.250664
 12
101.6997
 22
104.5022
 32
1.772677
 13
101.6997
 23
104.5022
 33
1.772677
  0
3DFACE
  8
0
 10
101.6997
 20
104.5022
 30
1.772677
 11
101.6503
 21
104.5892
 31
2.262568
 12
101.9702
 22
104.6846
 32
1.767563
 13
101.9702
 23
104.6846
 33
1.767563
  0
3DFACE
  8
0
 10
101.9702
 20
104.6846
 30
1.767563
 11
101.9209
 21
104.7716
 31
2.257454
 12
102.1851
 22
104.9292
 32
1.745779
 13
102.1851
 23
104.9292
 33
1.745779
  0
3DFACE
  8
0
 10
102.1851
 20
104.9292
 30
1.745779
 11
102.1357
 21
105.0162
 31
2.235671
 12
102.3296
 22
105.2194
 32
1.708809
 13
102.3296
 23
105.2194
 33
1.708809
  0
3DFACE
  8
0
 10
102.3296
 20
105.2194
 30
1.708809
 11
102.2802
 21
105.3064
 31
2.1987
 12
102.394
 22
105.5355
 32
1.659172
 13
102.394
 23
105.5355
 33
1.659172
  0
3DFACE
  8
0
 10
102.394
 20
105.5355
 30
1.659172
 11
102.3446
 21
105.6225
 31
2.149063
 12
102.3737
 22
105.8558
 32
1.60025
 13
102.3737
 23
105.8558
 33
1.60025
  0
3DFACE
  8
0
 10
102.3737
 20
105.8558
 30
1.60025
 11
102.3243
 21
105.9428
 31
2.090142
 12
102.2703
 22
106.1585
 32
1.536061
 13
102.2703
 23
106.1585
 33
1.536061
  0
3DFACE
  8
0
 10
102.2703
 20
106.1585
 30
1.536061
 11
102.2209
 21
106.2455
 31
2.025952
 12
102.0907
 22
106.4231
 32
1.470978
 13
102.0907
 23
106.4231
 33
1.470978
  0
3DFACE
  8
0
 10
102.0907
 20
106.4231
 30
1.470978
 11
102.0413
 21
106.5101
 31
1.960869
 12
101.8472
 22
106.6315
 32
1.409435
 13
101.8472
 23
106.6315
 33
1.409435
  0
3DFACE
  8
0
 10
101.8472
 20
106.6315
 30
1.409435
 11
101.7979
 21
106.7185
 31
1.899326
 12
101.5564
 22
106.7694
 32
1.355628
 13
101.5564
 23
106.7694
 33
1.355628
  0
3DFACE
  8
0
 10
101.5564
 20
106.7694
 30
1.355628
 11
101.5071
 21
106.8564
 31
1.84552
 12
101.2382
 22
106.8276
 32
1.313223
 13
101.2382
 23
106.8276
 33
1.313223
  0
3DFACE
  8
0
 10
101.2382
 20
106.8276
 30
1.313223
 11
101.1888
 21
106.9146
 31
1.803114
 12
100.9141
 22
106.8019
 32
1.28511
 13
100.9141
 23
106.8019
 33
1.28511
  0
3DFACE
  8
0
 10
100.9141
 20
106.8019
 30
1.28511
 11
100.8647
 21
106.8889
 31
1.775002
 12
100.6063
 22
106.6942
 32
1.273205
 13
100.6063
 23
106.6942
 33
1.273205
  0
3DFACE
  8
0
 10
100.6063
 20
106.6942
 30
1.273205
 11
100.5569
 21
106.7812
 31
1.763096
 12
100.3357
 22
106.5119
 32
1.278319
 13
100.3357
 23
106.5119
 33
1.278319
  0
3DFACE
  8
0
 10
100.3357
 20
106.5119
 30
1.278319
 11
100.2863
 21
106.5988
 31
1.768211
 12
100.1209
 22
106.2672
 32
1.300103
 13
100.1209
 23
106.2672
 33
1.300103
  0
3DFACE
  8
0
 10
100.1209
 20
106.2672
 30
1.300103
 11
100.0715
 21
106.3542
 31
1.789995
 12
99.97634
 22
105.977
 32
1.337074
 13
99.97634
 23
105.977
 33
1.337074
  0
3DFACE
  8
0
 10
99.97634
 20
105.977
 30
1.337074
 11
99.92696
 21
106.064
 31
1.826965
 12
99.91201
 22
105.661
 32
1.386711
 13
99.91201
 23
105.661
 33
1.386711
  0
3DFACE
  8
0
 10
99.91201
 20
105.661
 30
1.386711
 11
99.86263
 21
105.748
 31
1.876602
 12
99.93224
 22
105.3407
 32
1.445632
 13
99.93224
 23
105.3407
 33
1.445632
  0
3DFACE
  8
0
 10
89.52972
 20
102.9186
 30
1.337494
 11
89.5791
 21
102.8316
 31
.8476026
 12
89.42629
 22
103.2214
 32
1.273304
 13
89.42629
 23
103.2214
 33
1.273304
  0
3DFACE
  8
0
 10
89.52972
 20
102.9186
 30
1.337494
 11
89.75867
 21
102.5671
 31
.9126859
 12
89.5791
 22
102.8316
 32
.8476026
 13
89.5791
 23
102.8316
 33
.8476026
  0
3DFACE
  8
0
 10
89.52972
 20
102.9186
 30
1.337494
 11
89.70929
 21
102.6541
 31
1.402577
 12
89.75867
 22
102.5671
 32
.9126859
 13
89.75867
 23
102.5671
 33
.9126859
  0
3DFACE
  8
0
 10
89.75867
 20
102.5671
 30
.9126859
 11
89.70929
 21
102.6541
 31
1.402577
 12
90.00214
 22
102.3587
 32
.9742283
 13
90.00214
 23
102.3587
 33
.9742283
  0
3DFACE
  8
0
 10
90.00214
 20
102.3587
 30
.9742283
 11
89.70929
 21
102.6541
 31
1.402577
 12
89.95277
 22
102.4457
 32
1.46412
 13
89.95277
 23
102.4457
 33
1.46412
  0
3DFACE
  8
0
 10
90.29294
 20
102.2208
 30
1.028035
 11
89.95277
 21
102.4457
 31
1.46412
 12
90.24355
 22
102.3078
 32
1.517926
 13
90.24355
 23
102.3078
 33
1.517926
  0
3DFACE
  8
0
 10
90.61122
 20
102.1626
 30
1.07044
 11
90.24355
 21
102.3078
 31
1.517926
 12
90.56184
 22
102.2496
 32
1.560331
 13
90.56184
 23
102.2496
 33
1.560331
  0
3DFACE
  8
0
 10
90.93531
 20
102.1883
 30
1.098553
 11
90.56184
 21
102.2496
 31
1.560331
 12
90.88593
 22
102.2753
 32
1.588444
 13
90.88593
 23
102.2753
 33
1.588444
  0
3DFACE
  8
0
 10
91.24312
 20
102.296
 30
1.110458
 11
90.88593
 21
102.2753
 31
1.588444
 12
91.19373
 22
102.3829
 32
1.600349
 13
91.19373
 23
102.3829
 33
1.600349
  0
3DFACE
  8
0
 10
91.51366
 20
102.4783
 30
1.105344
 11
91.19373
 21
102.3829
 31
1.600349
 12
91.46429
 22
102.5653
 32
1.595235
 13
91.46429
 23
102.5653
 33
1.595235
  0
3DFACE
  8
0
 10
91.72852
 20
102.723
 30
1.08356
 11
91.46429
 21
102.5653
 31
1.595235
 12
91.67915
 22
102.8099
 32
1.573452
 13
91.67915
 23
102.8099
 33
1.573452
  0
3DFACE
  8
0
 10
91.87304
 20
103.0132
 30
1.04659
 11
91.67915
 21
102.8099
 31
1.573452
 12
91.82366
 22
103.1002
 32
1.536481
 13
91.82366
 23
103.1002
 33
1.536481
  0
3DFACE
  8
0
 10
91.93737
 20
103.3292
 30
.9969528
 11
91.82366
 21
103.1002
 31
1.536481
 12
91.88799
 22
103.4162
 32
1.486844
 13
91.88799
 23
103.4162
 33
1.486844
  0
3DFACE
  8
0
 10
91.91713
 20
103.6495
 30
.9380315
 11
91.88799
 21
103.4162
 31
1.486844
 12
91.86775
 22
103.7365
 32
1.427923
 13
91.86775
 23
103.7365
 33
1.427923
  0
3DFACE
  8
0
 10
91.81371
 20
103.9523
 30
.873842
 11
91.86775
 21
103.7365
 31
1.427923
 12
91.76433
 22
104.0393
 32
1.363733
 13
91.76433
 23
104.0393
 33
1.363733
  0
3DFACE
  8
0
 10
91.63413
 20
104.2169
 30
.8087587
 11
91.76433
 21
104.0393
 31
1.363733
 12
91.58475
 22
104.3039
 32
1.29865
 13
91.58475
 23
104.3039
 33
1.29865
  0
3DFACE
  8
0
 10
91.39066
 20
104.4252
 30
.747216
 11
91.58475
 21
104.3039
 31
1.29865
 12
91.34128
 22
104.5122
 32
1.237107
 13
91.34128
 23
104.5122
 33
1.237107
  0
3DFACE
  8
0
 10
91.09987
 20
104.5632
 30
.6934095
 11
91.34128
 21
104.5122
 31
1.237107
 12
91.05049
 22
104.6502
 32
1.183301
 13
91.05049
 23
104.6502
 33
1.183301
  0
3DFACE
  8
0
 10
90.78159
 20
104.6213
 30
.6510038
 11
91.05049
 21
104.6502
 31
1.183301
 12
90.73221
 22
104.7083
 32
1.140895
 13
90.73221
 23
104.7083
 33
1.140895
  0
3DFACE
  8
0
 10
90.4575
 20
104.5956
 30
.6228912
 11
90.73221
 21
104.7083
 31
1.140895
 12
90.40811
 22
104.6826
 32
1.112783
 13
90.40811
 23
104.6826
 33
1.112783
  0
3DFACE
  8
0
 10
90.14969
 20
104.488
 30
.6109853
 11
90.40811
 21
104.6826
 31
1.112783
 12
90.1003
 22
104.575
 32
1.100877
 13
90.1003
 23
104.575
 33
1.100877
  0
3DFACE
  8
0
 10
89.87914
 20
104.3056
 30
.6161001
 11
90.1003
 21
104.575
 31
1.100877
 12
89.82976
 22
104.3926
 32
1.105991
 13
89.82976
 23
104.3926
 33
1.105991
  0
3DFACE
  8
0
 10
89.66428
 20
104.061
 30
.6378839
 11
89.82976
 21
104.3926
 31
1.105991
 12
89.6149
 22
104.148
 32
1.127775
 13
89.6149
 23
104.148
 33
1.127775
  0
3DFACE
  8
0
 10
89.51977
 20
103.7707
 30
.6748549
 11
89.6149
 21
104.148
 31
1.127775
 12
89.47038
 22
103.8577
 32
1.164746
 13
89.47038
 23
103.8577
 33
1.164746
  0
3DFACE
  8
0
 10
89.45544
 20
103.4547
 30
.7244918
 11
89.47038
 21
103.8577
 31
1.164746
 12
89.40605
 22
103.5417
 32
1.214383
 13
89.40605
 23
103.5417
 33
1.214383
  0
3DFACE
  8
0
 10
89.47567
 20
103.1344
 30
.7834128
 11
89.40605
 21
103.5417
 31
1.214383
 12
89.42629
 22
103.2214
 32
1.273304
 13
89.42629
 23
103.2214
 33
1.273304
  0
3DFACE
  8
0
 10
89.5791
 20
102.8316
 30
.8476026
 11
89.47567
 21
103.1344
 31
.7834128
 12
89.42629
 22
103.2214
 32
1.273304
 13
89.42629
 23
103.2214
 33
1.273304
  0
3DFACE
  8
0
 10
90.00214
 20
102.3587
 30
.9742283
 11
89.95277
 21
102.4457
 31
1.46412
 12
90.29294
 22
102.2208
 32
1.028035
 13
90.29294
 23
102.2208
 33
1.028035
  0
3DFACE
  8
0
 10
90.29294
 20
102.2208
 30
1.028035
 11
90.24355
 21
102.3078
 31
1.517926
 12
90.61122
 22
102.1626
 32
1.07044
 13
90.61122
 23
102.1626
 33
1.07044
  0
3DFACE
  8
0
 10
90.61122
 20
102.1626
 30
1.07044
 11
90.56184
 21
102.2496
 31
1.560331
 12
90.93531
 22
102.1883
 32
1.098553
 13
90.93531
 23
102.1883
 33
1.098553
  0
3DFACE
  8
0
 10
90.93531
 20
102.1883
 30
1.098553
 11
90.88593
 21
102.2753
 31
1.588444
 12
91.24312
 22
102.296
 32
1.110458
 13
91.24312
 23
102.296
 33
1.110458
  0
3DFACE
  8
0
 10
91.24312
 20
102.296
 30
1.110458
 11
91.19373
 21
102.3829
 31
1.600349
 12
91.51366
 22
102.4783
 32
1.105344
 13
91.51366
 23
102.4783
 33
1.105344
  0
3DFACE
  8
0
 10
91.51366
 20
102.4783
 30
1.105344
 11
91.46429
 21
102.5653
 31
1.595235
 12
91.72852
 22
102.723
 32
1.08356
 13
91.72852
 23
102.723
 33
1.08356
  0
3DFACE
  8
0
 10
91.72852
 20
102.723
 30
1.08356
 11
91.67915
 21
102.8099
 31
1.573452
 12
91.87304
 22
103.0132
 32
1.04659
 13
91.87304
 23
103.0132
 33
1.04659
  0
3DFACE
  8
0
 10
91.87304
 20
103.0132
 30
1.04659
 11
91.82366
 21
103.1002
 31
1.536481
 12
91.93737
 22
103.3292
 32
.9969528
 13
91.93737
 23
103.3292
 33
.9969528
  0
3DFACE
  8
0
 10
91.93737
 20
103.3292
 30
.9969528
 11
91.88799
 21
103.4162
 31
1.486844
 12
91.91713
 22
103.6495
 32
.9380315
 13
91.91713
 23
103.6495
 33
.9380315
  0
3DFACE
  8
0
 10
91.91713
 20
103.6495
 30
.9380315
 11
91.86775
 21
103.7365
 31
1.427923
 12
91.81371
 22
103.9523
 32
.873842
 13
91.81371
 23
103.9523
 33
.873842
  0
3DFACE
  8
0
 10
91.81371
 20
103.9523
 30
.873842
 11
91.76433
 21
104.0393
 31
1.363733
 12
91.63413
 22
104.2169
 32
.8087587
 13
91.63413
 23
104.2169
 33
.8087587
  0
3DFACE
  8
0
 10
91.63413
 20
104.2169
 30
.8087587
 11
91.58475
 21
104.3039
 31
1.29865
 12
91.39066
 22
104.4252
 32
.747216
 13
91.39066
 23
104.4252
 33
.747216
  0
3DFACE
  8
0
 10
91.39066
 20
104.4252
 30
.747216
 11
91.34128
 21
104.5122
 31
1.237107
 12
91.09987
 22
104.5632
 32
.6934095
 13
91.09987
 23
104.5632
 33
.6934095
  0
3DFACE
  8
0
 10
91.09987
 20
104.5632
 30
.6934095
 11
91.05049
 21
104.6502
 31
1.183301
 12
90.78159
 22
104.6213
 32
.6510038
 13
90.78159
 23
104.6213
 33
.6510038
  0
3DFACE
  8
0
 10
90.78159
 20
104.6213
 30
.6510038
 11
90.73221
 21
104.7083
 31
1.140895
 12
90.4575
 22
104.5956
 32
.6228912
 13
90.4575
 23
104.5956
 33
.6228912
  0
3DFACE
  8
0
 10
90.4575
 20
104.5956
 30
.6228912
 11
90.40811
 21
104.6826
 31
1.112783
 12
90.14969
 22
104.488
 32
.6109853
 13
90.14969
 23
104.488
 33
.6109853
  0
3DFACE
  8
0
 10
90.14969
 20
104.488
 30
.6109853
 11
90.1003
 21
104.575
 31
1.100877
 12
89.87914
 22
104.3056
 32
.6161001
 13
89.87914
 23
104.3056
 33
.6161001
  0
3DFACE
  8
0
 10
89.87914
 20
104.3056
 30
.6161001
 11
89.82976
 21
104.3926
 31
1.105991
 12
89.66428
 22
104.061
 32
.6378839
 13
89.66428
 23
104.061
 33
.6378839
  0
3DFACE
  8
0
 10
89.66428
 20
104.061
 30
.6378839
 11
89.6149
 21
104.148
 31
1.127775
 12
89.51977
 22
103.7707
 32
.6748549
 13
89.51977
 23
103.7707
 33
.6748549
  0
3DFACE
  8
0
 10
89.51977
 20
103.7707
 30
.6748549
 11
89.47038
 21
103.8577
 31
1.164746
 12
89.45544
 22
103.4547
 32
.7244918
 13
89.45544
 23
103.4547
 33
.7244918
  0
3DFACE
  8
0
 10
89.45544
 20
103.4547
 30
.7244918
 11
89.40605
 21
103.5417
 31
1.214383
 12
89.47567
 22
103.1344
 32
.7834128
 13
89.47567
 23
103.1344
 33
.7834128
  0
3DFACE
  8
0
 10
74.6804
 20
95.17172
 30
1.216399
 11
74.72979
 21
95.08473
 31
.7265072
 12
74.57697
 22
95.47449
 32
1.152209
 13
74.57697
 23
95.47449
 33
1.152209
  0
3DFACE
  8
0
 10
74.6804
 20
95.17172
 30
1.216399
 11
74.90936
 21
94.82015
 31
.7915905
 12
74.72979
 22
95.08473
 32
.7265072
 13
74.72979
 23
95.08473
 33
.7265072
  0
3DFACE
  8
0
 10
74.6804
 20
95.17172
 30
1.216399
 11
74.85998
 21
94.90715
 31
1.281482
 12
74.90936
 22
94.82015
 32
.7915905
 13
74.90936
 23
94.82015
 33
.7915905
  0
3DFACE
  8
0
 10
74.90936
 20
94.82015
 30
.7915905
 11
74.85998
 21
94.90715
 31
1.281482
 12
75.15284
 22
94.61179
 32
.8531332
 13
75.15284
 23
94.61179
 33
.8531332
  0
3DFACE
  8
0
 10
75.15284
 20
94.61179
 30
.8531332
 11
74.85998
 21
94.90715
 31
1.281482
 12
75.10345
 22
94.69879
 32
1.343025
 13
75.10345
 23
94.69879
 33
1.343025
  0
3DFACE
  8
0
 10
75.44362
 20
94.47385
 30
.9069404
 11
75.10345
 21
94.69879
 31
1.343025
 12
75.39424
 22
94.56084
 32
1.396832
 13
75.39424
 23
94.56084
 33
1.396832
  0
3DFACE
  8
0
 10
75.76191
 20
94.41572
 30
.9493455
 11
75.39424
 21
94.56084
 31
1.396832
 12
75.71253
 22
94.50272
 32
1.439237
 13
75.71253
 23
94.50272
 33
1.439237
  0
3DFACE
  8
0
 10
76.08599
 20
94.44137
 30
.9774578
 11
75.71253
 21
94.50272
 31
1.439237
 12
76.03661
 22
94.52837
 32
1.467349
 13
76.03661
 23
94.52837
 33
1.467349
  0
3DFACE
  8
0
 10
76.39381
 20
94.54904
 30
.9893636
 11
76.03661
 21
94.52837
 31
1.467349
 12
76.34442
 22
94.63604
 32
1.479255
 13
76.34442
 23
94.63604
 33
1.479255
  0
3DFACE
  8
0
 10
76.66435
 20
94.73141
 30
.9842497
 11
76.34442
 21
94.63604
 31
1.479255
 12
76.61497
 22
94.81841
 32
1.474141
 13
76.61497
 23
94.81841
 33
1.474141
  0
3DFACE
  8
0
 10
76.87921
 20
94.97604
 30
.962465
 11
76.61497
 21
94.81841
 31
1.474141
 12
76.82983
 22
95.06304
 32
1.452356
 13
76.82983
 23
95.06304
 33
1.452356
  0
3DFACE
  8
0
 10
77.02373
 20
95.26627
 30
.9254944
 11
76.82983
 21
95.06304
 31
1.452356
 12
76.97435
 22
95.35326
 32
1.415386
 13
76.97435
 23
95.35326
 33
1.415386
  0
3DFACE
  8
0
 10
77.08806
 20
95.58231
 30
.8758575
 11
76.97435
 21
95.35326
 31
1.415386
 12
77.03868
 22
95.6693
 32
1.365749
 13
77.03868
 23
95.6693
 33
1.365749
  0
3DFACE
  8
0
 10
77.06782
 20
95.90262
 30
.8169361
 11
77.03868
 21
95.6693
 31
1.365749
 12
77.01844
 22
95.98962
 32
1.306828
 13
77.01844
 23
95.98962
 33
1.306828
  0
3DFACE
  8
0
 10
76.96439
 20
96.20538
 30
.7527476
 11
77.01844
 21
95.98962
 31
1.306828
 12
76.91502
 22
96.29237
 32
1.242639
 13
76.91502
 23
96.29237
 33
1.242639
  0
3DFACE
  8
0
 10
76.78482
 20
96.46996
 30
.6876634
 11
76.91502
 21
96.29237
 31
1.242639
 12
76.73544
 22
96.55695
 32
1.177555
 13
76.73544
 23
96.55695
 33
1.177555
  0
3DFACE
  8
0
 10
76.54134
 20
96.67831
 30
.6261216
 11
76.73544
 21
96.55695
 31
1.177555
 12
76.49197
 22
96.7653
 32
1.116013
 13
76.49197
 23
96.7653
 33
1.116013
  0
3DFACE
  8
0
 10
76.25056
 20
96.81626
 30
.5723141
 11
76.49197
 21
96.7653
 31
1.116013
 12
76.20117
 22
96.90325
 32
1.062206
 13
76.20117
 23
96.90325
 33
1.062206
  0
3DFACE
  8
0
 10
75.93227
 20
96.87439
 30
.5299094
 11
76.20117
 21
96.90325
 31
1.062206
 12
75.88289
 22
96.96138
 32
1.019801
 13
75.88289
 23
96.96138
 33
1.019801
  0
3DFACE
  8
0
 10
75.60818
 20
96.84874
 30
.5017958
 11
75.88289
 21
96.96138
 31
1.019801
 12
75.5588
 22
96.93574
 32
.9916872
 13
75.5588
 23
96.93574
 33
.9916872
  0
3DFACE
  8
0
 10
75.30038
 20
96.74107
 30
.4898913
 11
75.5588
 21
96.93574
 31
.9916872
 12
75.251
 22
96.82806
 32
.9797826
 13
75.251
 23
96.82806
 33
.9797826
  0
3DFACE
  8
0
 10
75.02982
 20
96.55869
 30
.4950048
 11
75.251
 21
96.82806
 31
.9797826
 12
74.98045
 22
96.64569
 32
.9848962
 13
74.98045
 23
96.64569
 33
.9848962
  0
3DFACE
  8
0
 10
74.81497
 20
96.31406
 30
.5167899
 11
74.98045
 21
96.64569
 31
.9848962
 12
74.76559
 22
96.40105
 32
1.006681
 13
74.76559
 23
96.40105
 33
1.006681
  0
3DFACE
  8
0
 10
74.67045
 20
96.02384
 30
.5537596
 11
74.76559
 21
96.40105
 31
1.006681
 12
74.62107
 22
96.11083
 32
1.043651
 13
74.62107
 23
96.11083
 33
1.043651
  0
3DFACE
  8
0
 10
74.60612
 20
95.7078
 30
.6033974
 11
74.62107
 21
96.11083
 31
1.043651
 12
74.55674
 22
95.79479
 32
1.093289
 13
74.55674
 23
95.79479
 33
1.093289
  0
3DFACE
  8
0
 10
74.62636
 20
95.38749
 30
.6623175
 11
74.55674
 21
95.79479
 31
1.093289
 12
74.57697
 22
95.47449
 32
1.152209
 13
74.57697
 23
95.47449
 33
1.152209
  0
3DFACE
  8
0
 10
74.72979
 20
95.08473
 30
.7265072
 11
74.62636
 21
95.38749
 31
.6623175
 12
74.57697
 22
95.47449
 32
1.152209
 13
74.57697
 23
95.47449
 33
1.152209
  0
3DFACE
  8
0
 10
75.15284
 20
94.61179
 30
.8531332
 11
75.10345
 21
94.69879
 31
1.343025
 12
75.44362
 22
94.47385
 32
.9069404
 13
75.44362
 23
94.47385
 33
.9069404
  0
3DFACE
  8
0
 10
75.44362
 20
94.47385
 30
.9069404
 11
75.39424
 21
94.56084
 31
1.396832
 12
75.76191
 22
94.41572
 32
.9493455
 13
75.76191
 23
94.41572
 33
.9493455
  0
3DFACE
  8
0
 10
75.76191
 20
94.41572
 30
.9493455
 11
75.71253
 21
94.50272
 31
1.439237
 12
76.08599
 22
94.44137
 32
.9774578
 13
76.08599
 23
94.44137
 33
.9774578
  0
3DFACE
  8
0
 10
76.08599
 20
94.44137
 30
.9774578
 11
76.03661
 21
94.52837
 31
1.467349
 12
76.39381
 22
94.54904
 32
.9893636
 13
76.39381
 23
94.54904
 33
.9893636
  0
3DFACE
  8
0
 10
76.39381
 20
94.54904
 30
.9893636
 11
76.34442
 21
94.63604
 31
1.479255
 12
76.66435
 22
94.73141
 32
.9842497
 13
76.66435
 23
94.73141
 33
.9842497
  0
3DFACE
  8
0
 10
76.66435
 20
94.73141
 30
.9842497
 11
76.61497
 21
94.81841
 31
1.474141
 12
76.87921
 22
94.97604
 32
.962465
 13
76.87921
 23
94.97604
 33
.962465
  0
3DFACE
  8
0
 10
76.87921
 20
94.97604
 30
.962465
 11
76.82983
 21
95.06304
 31
1.452356
 12
77.02373
 22
95.26627
 32
.9254944
 13
77.02373
 23
95.26627
 33
.9254944
  0
3DFACE
  8
0
 10
77.02373
 20
95.26627
 30
.9254944
 11
76.97435
 21
95.35326
 31
1.415386
 12
77.08806
 22
95.58231
 32
.8758575
 13
77.08806
 23
95.58231
 33
.8758575
  0
3DFACE
  8
0
 10
77.08806
 20
95.58231
 30
.8758575
 11
77.03868
 21
95.6693
 31
1.365749
 12
77.06782
 22
95.90262
 32
.8169361
 13
77.06782
 23
95.90262
 33
.8169361
  0
3DFACE
  8
0
 10
77.06782
 20
95.90262
 30
.8169361
 11
77.01844
 21
95.98962
 31
1.306828
 12
76.96439
 22
96.20538
 32
.7527476
 13
76.96439
 23
96.20538
 33
.7527476
  0
3DFACE
  8
0
 10
76.96439
 20
96.20538
 30
.7527476
 11
76.91502
 21
96.29237
 31
1.242639
 12
76.78482
 22
96.46996
 32
.6876634
 13
76.78482
 23
96.46996
 33
.6876634
  0
3DFACE
  8
0
 10
76.78482
 20
96.46996
 30
.6876634
 11
76.73544
 21
96.55695
 31
1.177555
 12
76.54134
 22
96.67831
 32
.6261216
 13
76.54134
 23
96.67831
 33
.6261216
  0
3DFACE
  8
0
 10
76.54134
 20
96.67831
 30
.6261216
 11
76.49197
 21
96.7653
 31
1.116013
 12
76.25056
 22
96.81626
 32
.5723141
 13
76.25056
 23
96.81626
 33
.5723141
  0
3DFACE
  8
0
 10
76.25056
 20
96.81626
 30
.5723141
 11
76.20117
 21
96.90325
 31
1.062206
 12
75.93227
 22
96.87439
 32
.5299094
 13
75.93227
 23
96.87439
 33
.5299094
  0
3DFACE
  8
0
 10
75.93227
 20
96.87439
 30
.5299094
 11
75.88289
 21
96.96138
 31
1.019801
 12
75.60818
 22
96.84874
 32
.5017958
 13
75.60818
 23
96.84874
 33
.5017958
  0
3DFACE
  8
0
 10
75.60818
 20
96.84874
 30
.5017958
 11
75.5588
 21
96.93574
 31
.9916872
 12
75.30038
 22
96.74107
 32
.4898913
 13
75.30038
 23
96.74107
 33
.4898913
  0
3DFACE
  8
0
 10
75.30038
 20
96.74107
 30
.4898913
 11
75.251
 21
96.82806
 31
.9797826
 12
75.02982
 22
96.55869
 32
.4950048
 13
75.02982
 23
96.55869
 33
.4950048
  0
3DFACE
  8
0
 10
75.02982
 20
96.55869
 30
.4950048
 11
74.98045
 21
96.64569
 31
.9848962
 12
74.81497
 22
96.31406
 32
.5167899
 13
74.81497
 23
96.31406
 33
.5167899
  0
3DFACE
  8
0
 10
74.81497
 20
96.31406
 30
.5167899
 11
74.76559
 21
96.40105
 31
1.006681
 12
74.67045
 22
96.02384
 32
.5537596
 13
74.67045
 23
96.02384
 33
.5537596
  0
3DFACE
  8
0
 10
74.67045
 20
96.02384
 30
.5537596
 11
74.62107
 21
96.11083
 31
1.043651
 12
74.60612
 22
95.7078
 32
.6033974
 13
74.60612
 23
95.7078
 33
.6033974
  0
3DFACE
  8
0
 10
74.60612
 20
95.7078
 30
.6033974
 11
74.55674
 21
95.79479
 31
1.093289
 12
74.62636
 22
95.38749
 32
.6623175
 13
74.62636
 23
95.38749
 33
.6623175
  0
3DFACE
  8
0
 10
103.5168
 20
87.33717
 30
5.514307
 11
103.5662
 21
87.25018
 31
5.024416
 12
103.4134
 22
87.63993
 32
5.450118
 13
103.4134
 23
87.63993
 33
5.450118
  0
3DFACE
  8
0
 10
103.5168
 20
87.33717
 30
5.514307
 11
103.7457
 21
86.9856
 31
5.089499
 12
103.5662
 22
87.25018
 32
5.024416
 13
103.5662
 23
87.25018
 33
5.024416
  0
3DFACE
  8
0
 10
103.5168
 20
87.33717
 30
5.514307
 11
103.6964
 21
87.0726
 31
5.579391
 12
103.7457
 22
86.9856
 32
5.089499
 13
103.7457
 23
86.9856
 33
5.089499
  0
3DFACE
  8
0
 10
103.7457
 20
86.9856
 30
5.089499
 11
103.6964
 21
87.0726
 31
5.579391
 12
103.9892
 22
86.77724
 32
5.151042
 13
103.9892
 23
86.77724
 33
5.151042
  0
3DFACE
  8
0
 10
103.9892
 20
86.77724
 30
5.151042
 11
103.6964
 21
87.0726
 31
5.579391
 12
103.9398
 22
86.86423
 32
5.640934
 13
103.9398
 23
86.86423
 33
5.640934
  0
3DFACE
  8
0
 10
104.28
 20
86.6393
 30
5.204848
 11
103.9398
 21
86.86423
 31
5.640934
 12
104.2306
 22
86.7263
 32
5.694739
 13
104.2306
 23
86.7263
 33
5.694739
  0
3DFACE
  8
0
 10
104.5983
 20
86.58118
 30
5.247253
 11
104.2306
 21
86.7263
 31
5.694739
 12
104.5489
 22
86.66817
 32
5.737144
 13
104.5489
 23
86.66817
 33
5.737144
  0
3DFACE
  8
0
 10
104.9224
 20
86.60682
 30
5.275366
 11
104.5489
 21
86.66817
 31
5.737144
 12
104.873
 22
86.69381
 32
5.765258
 13
104.873
 23
86.69381
 33
5.765258
  0
3DFACE
  8
0
 10
105.2302
 20
86.7145
 30
5.287271
 11
104.873
 21
86.69381
 31
5.765258
 12
105.1808
 22
86.80149
 32
5.777163
 13
105.1808
 23
86.80149
 33
5.777163
  0
3DFACE
  8
0
 10
105.5007
 20
86.89687
 30
5.282157
 11
105.1808
 21
86.80149
 31
5.777163
 12
105.4513
 22
86.98386
 32
5.772049
 13
105.4513
 23
86.98386
 33
5.772049
  0
3DFACE
  8
0
 10
105.7156
 20
87.14149
 30
5.260374
 11
105.4513
 21
86.98386
 31
5.772049
 12
105.6662
 22
87.22849
 32
5.750265
 13
105.6662
 23
87.22849
 33
5.750265
  0
3DFACE
  8
0
 10
105.8601
 20
87.43172
 30
5.223403
 11
105.6662
 21
87.22849
 31
5.750265
 12
105.8107
 22
87.51871
 32
5.713295
 13
105.8107
 23
87.51871
 33
5.713295
  0
3DFACE
  8
0
 10
105.9244
 20
87.74776
 30
5.173766
 11
105.8107
 21
87.51871
 31
5.713295
 12
105.8751
 22
87.83475
 32
5.663658
 13
105.8751
 23
87.83475
 33
5.663658
  0
3DFACE
  8
0
 10
105.9042
 20
88.06807
 30
5.114845
 11
105.8751
 21
87.83475
 31
5.663658
 12
105.8548
 22
88.15506
 32
5.604736
 13
105.8548
 23
88.15506
 33
5.604736
  0
3DFACE
  8
0
 10
105.8008
 20
88.37083
 30
5.050655
 11
105.8548
 21
88.15506
 31
5.604736
 12
105.7514
 22
88.45782
 32
5.540547
 13
105.7514
 23
88.45782
 33
5.540547
  0
3DFACE
  8
0
 10
105.6212
 20
88.63541
 30
4.985572
 11
105.7514
 21
88.45782
 31
5.540547
 12
105.5718
 22
88.7224
 32
5.475463
 13
105.5718
 23
88.7224
 33
5.475463
  0
3DFACE
  8
0
 10
105.3777
 20
88.84377
 30
4.924029
 11
105.5718
 21
88.7224
 31
5.475463
 12
105.3283
 22
88.93076
 32
5.413921
 13
105.3283
 23
88.93076
 33
5.413921
  0
3DFACE
  8
0
 10
105.0869
 20
88.98171
 30
4.870222
 11
105.3283
 21
88.93076
 31
5.413921
 12
105.0376
 22
89.06871
 32
5.360113
 13
105.0376
 23
89.06871
 33
5.360113
  0
3DFACE
  8
0
 10
104.7686
 20
89.03984
 30
4.827817
 11
105.0376
 21
89.06871
 31
5.360113
 12
104.7193
 22
89.12684
 32
5.317708
 13
104.7193
 23
89.12684
 33
5.317708
  0
3DFACE
  8
0
 10
104.4446
 20
89.01419
 30
4.799705
 11
104.7193
 21
89.12684
 31
5.317708
 12
104.3952
 22
89.10118
 32
5.289596
 13
104.3952
 23
89.10118
 33
5.289596
  0
3DFACE
  8
0
 10
104.1368
 20
88.90652
 30
4.787799
 11
104.3952
 21
89.10118
 31
5.289596
 12
104.0874
 22
88.99351
 32
5.27769
 13
104.0874
 23
88.99351
 33
5.27769
  0
3DFACE
  8
0
 10
103.8662
 20
88.72414
 30
4.792912
 11
104.0874
 21
88.99351
 31
5.27769
 12
103.8168
 22
88.81114
 32
5.282804
 13
103.8168
 23
88.81114
 33
5.282804
  0
3DFACE
  8
0
 10
103.6514
 20
88.47952
 30
4.814698
 11
103.8168
 21
88.81114
 31
5.282804
 12
103.602
 22
88.56651
 32
5.304589
 13
103.602
 23
88.56651
 33
5.304589
  0
3DFACE
  8
0
 10
103.5068
 20
88.18929
 30
4.851668
 11
103.602
 21
88.56651
 31
5.304589
 12
103.4575
 22
88.27628
 32
5.34156
 13
103.4575
 23
88.27628
 33
5.34156
  0
3DFACE
  8
0
 10
103.4425
 20
87.87325
 30
4.901305
 11
103.4575
 21
88.27628
 31
5.34156
 12
103.3931
 22
87.96025
 32
5.391197
 13
103.3931
 23
87.96025
 33
5.391197
  0
3DFACE
  8
0
 10
103.4627
 20
87.55294
 30
4.960226
 11
103.3931
 21
87.96025
 31
5.391197
 12
103.4134
 22
87.63993
 32
5.450118
 13
103.4134
 23
87.63993
 33
5.450118
  0
3DFACE
  8
0
 10
103.5662
 20
87.25018
 30
5.024416
 11
103.4627
 21
87.55294
 31
4.960226
 12
103.4134
 22
87.63993
 32
5.450118
 13
103.4134
 23
87.63993
 33
5.450118
  0
3DFACE
  8
0
 10
103.9892
 20
86.77724
 30
5.151042
 11
103.9398
 21
86.86423
 31
5.640934
 12
104.28
 22
86.6393
 32
5.204848
 13
104.28
 23
86.6393
 33
5.204848
  0
3DFACE
  8
0
 10
104.28
 20
86.6393
 30
5.204848
 11
104.2306
 21
86.7263
 31
5.694739
 12
104.5983
 22
86.58118
 32
5.247253
 13
104.5983
 23
86.58118
 33
5.247253
  0
3DFACE
  8
0
 10
104.5983
 20
86.58118
 30
5.247253
 11
104.5489
 21
86.66817
 31
5.737144
 12
104.9224
 22
86.60682
 32
5.275366
 13
104.9224
 23
86.60682
 33
5.275366
  0
3DFACE
  8
0
 10
104.9224
 20
86.60682
 30
5.275366
 11
104.873
 21
86.69381
 31
5.765258
 12
105.2302
 22
86.7145
 32
5.287271
 13
105.2302
 23
86.7145
 33
5.287271
  0
3DFACE
  8
0
 10
105.2302
 20
86.7145
 30
5.287271
 11
105.1808
 21
86.80149
 31
5.777163
 12
105.5007
 22
86.89687
 32
5.282157
 13
105.5007
 23
86.89687
 33
5.282157
  0
3DFACE
  8
0
 10
105.5007
 20
86.89687
 30
5.282157
 11
105.4513
 21
86.98386
 31
5.772049
 12
105.7156
 22
87.14149
 32
5.260374
 13
105.7156
 23
87.14149
 33
5.260374
  0
3DFACE
  8
0
 10
105.7156
 20
87.14149
 30
5.260374
 11
105.6662
 21
87.22849
 31
5.750265
 12
105.8601
 22
87.43172
 32
5.223403
 13
105.8601
 23
87.43172
 33
5.223403
  0
3DFACE
  8
0
 10
105.8601
 20
87.43172
 30
5.223403
 11
105.8107
 21
87.51871
 31
5.713295
 12
105.9244
 22
87.74776
 32
5.173766
 13
105.9244
 23
87.74776
 33
5.173766
  0
3DFACE
  8
0
 10
105.9244
 20
87.74776
 30
5.173766
 11
105.8751
 21
87.83475
 31
5.663658
 12
105.9042
 22
88.06807
 32
5.114845
 13
105.9042
 23
88.06807
 33
5.114845
  0
3DFACE
  8
0
 10
105.9042
 20
88.06807
 30
5.114845
 11
105.8548
 21
88.15506
 31
5.604736
 12
105.8008
 22
88.37083
 32
5.050655
 13
105.8008
 23
88.37083
 33
5.050655
  0
3DFACE
  8
0
 10
105.8008
 20
88.37083
 30
5.050655
 11
105.7514
 21
88.45782
 31
5.540547
 12
105.6212
 22
88.63541
 32
4.985572
 13
105.6212
 23
88.63541
 33
4.985572
  0
3DFACE
  8
0
 10
105.6212
 20
88.63541
 30
4.985572
 11
105.5718
 21
88.7224
 31
5.475463
 12
105.3777
 22
88.84377
 32
4.924029
 13
105.3777
 23
88.84377
 33
4.924029
  0
3DFACE
  8
0
 10
105.3777
 20
88.84377
 30
4.924029
 11
105.3283
 21
88.93076
 31
5.413921
 12
105.0869
 22
88.98171
 32
4.870222
 13
105.0869
 23
88.98171
 33
4.870222
  0
3DFACE
  8
0
 10
105.0869
 20
88.98171
 30
4.870222
 11
105.0376
 21
89.06871
 31
5.360113
 12
104.7686
 22
89.03984
 32
4.827817
 13
104.7686
 23
89.03984
 33
4.827817
  0
3DFACE
  8
0
 10
104.7686
 20
89.03984
 30
4.827817
 11
104.7193
 21
89.12684
 31
5.317708
 12
104.4446
 22
89.01419
 32
4.799705
 13
104.4446
 23
89.01419
 33
4.799705
  0
3DFACE
  8
0
 10
104.4446
 20
89.01419
 30
4.799705
 11
104.3952
 21
89.10118
 31
5.289596
 12
104.1368
 22
88.90652
 32
4.787799
 13
104.1368
 23
88.90652
 33
4.787799
  0
3DFACE
  8
0
 10
104.1368
 20
88.90652
 30
4.787799
 11
104.0874
 21
88.99351
 31
5.27769
 12
103.8662
 22
88.72414
 32
4.792912
 13
103.8662
 23
88.72414
 33
4.792912
  0
3DFACE
  8
0
 10
103.8662
 20
88.72414
 30
4.792912
 11
103.8168
 21
88.81114
 31
5.282804
 12
103.6514
 22
88.47952
 32
4.814698
 13
103.6514
 23
88.47952
 33
4.814698
  0
3DFACE
  8
0
 10
103.6514
 20
88.47952
 30
4.814698
 11
103.602
 21
88.56651
 31
5.304589
 12
103.5068
 22
88.18929
 32
4.851668
 13
103.5068
 23
88.18929
 33
4.851668
  0
3DFACE
  8
0
 10
103.5068
 20
88.18929
 30
4.851668
 11
103.4575
 21
88.27628
 31
5.34156
 12
103.4425
 22
87.87325
 32
4.901305
 13
103.4425
 23
87.87325
 33
4.901305
  0
3DFACE
  8
0
 10
103.4425
 20
87.87325
 30
4.901305
 11
103.3931
 21
87.96025
 31
5.391197
 12
103.4627
 22
87.55294
 32
4.960226
 13
103.4627
 23
87.55294
 33
4.960226
  0
3DFACE
  8
0
 10
115.3494
 20
85.38559
 30
7.053576
 11
115.3988
 21
85.29859
 31
6.563685
 12
115.246
 22
85.68835
 32
6.989388
 13
115.246
 23
85.68835
 33
6.989388
  0
3DFACE
  8
0
 10
115.3494
 20
85.38559
 30
7.053576
 11
115.5784
 21
85.03402
 31
6.628769
 12
115.3988
 22
85.29859
 32
6.563685
 13
115.3988
 23
85.29859
 33
6.563685
  0
3DFACE
  8
0
 10
115.3494
 20
85.38559
 30
7.053576
 11
115.529
 21
85.12102
 31
7.11866
 12
115.5784
 22
85.03402
 32
6.628769
 13
115.5784
 23
85.03402
 33
6.628769
  0
3DFACE
  8
0
 10
115.5784
 20
85.03402
 30
6.628769
 11
115.529
 21
85.12102
 31
7.11866
 12
115.8219
 22
84.82566
 32
6.690311
 13
115.8219
 23
84.82566
 33
6.690311
  0
3DFACE
  8
0
 10
115.8219
 20
84.82566
 30
6.690311
 11
115.529
 21
85.12102
 31
7.11866
 12
115.7725
 22
84.91266
 32
7.180202
 13
115.7725
 23
84.91266
 33
7.180202
  0
3DFACE
  8
0
 10
116.1126
 20
84.68771
 30
6.744118
 11
115.7725
 21
84.91266
 31
7.180202
 12
116.0633
 22
84.77471
 32
7.23401
 13
116.0633
 23
84.77471
 33
7.23401
  0
3DFACE
  8
0
 10
116.4309
 20
84.62959
 30
6.786523
 11
116.0633
 21
84.77471
 31
7.23401
 12
116.3815
 22
84.71658
 32
7.276414
 13
116.3815
 23
84.71658
 33
7.276414
  0
3DFACE
  8
0
 10
116.755
 20
84.65524
 30
6.814636
 11
116.3815
 21
84.71658
 31
7.276414
 12
116.7056
 22
84.74223
 32
7.304528
 13
116.7056
 23
84.74223
 33
7.304528
  0
3DFACE
  8
0
 10
117.0628
 20
84.76291
 30
6.826541
 11
116.7056
 21
84.74223
 31
7.304528
 12
117.0134
 22
84.84991
 32
7.316433
 13
117.0134
 23
84.84991
 33
7.316433
  0
3DFACE
  8
0
 10
117.3334
 20
84.94528
 30
6.821428
 11
117.0134
 21
84.84991
 31
7.316433
 12
117.284
 22
85.03227
 32
7.311319
 13
117.284
 23
85.03227
 33
7.311319
  0
3DFACE
  8
0
 10
117.5482
 20
85.18991
 30
6.799644
 11
117.284
 21
85.03227
 31
7.311319
 12
117.4988
 22
85.27691
 32
7.289535
 13
117.4988
 23
85.27691
 33
7.289535
  0
3DFACE
  8
0
 10
117.6927
 20
85.48013
 30
6.762672
 11
117.4988
 21
85.27691
 31
7.289535
 12
117.6434
 22
85.56713
 32
7.252564
 13
117.6434
 23
85.56713
 33
7.252564
  0
3DFACE
  8
0
 10
117.7571
 20
85.79617
 30
6.713036
 11
117.6434
 21
85.56713
 31
7.252564
 12
117.7077
 22
85.88316
 32
7.202927
 13
117.7077
 23
85.88316
 33
7.202927
  0
3DFACE
  8
0
 10
117.7368
 20
86.11649
 30
6.654115
 11
117.7077
 21
85.88316
 31
7.202927
 12
117.6875
 22
86.20348
 32
7.144006
 13
117.6875
 23
86.20348
 33
7.144006
  0
3DFACE
  8
0
 10
117.6334
 20
86.41924
 30
6.589925
 11
117.6875
 21
86.20348
 31
7.144006
 12
117.584
 22
86.50624
 32
7.079816
 13
117.584
 23
86.50624
 33
7.079816
  0
3DFACE
  8
0
 10
117.4538
 20
86.68382
 30
6.524842
 11
117.584
 21
86.50624
 31
7.079816
 12
117.4045
 22
86.77081
 32
7.014733
 13
117.4045
 23
86.77081
 33
7.014733
  0
3DFACE
  8
0
 10
117.2104
 20
86.89218
 30
6.4633
 11
117.4045
 21
86.77081
 31
7.014733
 12
117.161
 22
86.97918
 32
6.953191
 13
117.161
 23
86.97918
 33
6.953191
  0
3DFACE
  8
0
 10
116.9196
 20
87.03013
 30
6.409492
 11
117.161
 21
86.97918
 31
6.953191
 12
116.8702
 22
87.11712
 32
6.899384
 13
116.8702
 23
87.11712
 33
6.899384
  0
3DFACE
  8
0
 10
116.6013
 20
87.08826
 30
6.367087
 11
116.8702
 21
87.11712
 31
6.899384
 12
116.5519
 22
87.17525
 32
6.856979
 13
116.5519
 23
87.17525
 33
6.856979
  0
3DFACE
  8
0
 10
116.2772
 20
87.06261
 30
6.338974
 11
116.5519
 21
87.17525
 31
6.856979
 12
116.2278
 22
87.1496
 32
6.828866
 13
116.2278
 23
87.1496
 33
6.828866
  0
3DFACE
  8
0
 10
115.9694
 20
86.95493
 30
6.327069
 11
116.2278
 21
87.1496
 31
6.828866
 12
115.92
 22
87.04192
 32
6.81696
 13
115.92
 23
87.04192
 33
6.81696
  0
3DFACE
  8
0
 10
115.6988
 20
86.77256
 30
6.332183
 11
115.92
 21
87.04192
 31
6.81696
 12
115.6495
 22
86.85956
 32
6.822074
 13
115.6495
 23
86.85956
 33
6.822074
  0
3DFACE
  8
0
 10
115.484
 20
86.52793
 30
6.353967
 11
115.6495
 21
86.85956
 31
6.822074
 12
115.4346
 22
86.61492
 32
6.843859
 13
115.4346
 23
86.61492
 33
6.843859
  0
3DFACE
  8
0
 10
115.3395
 20
86.23771
 30
6.390938
 11
115.4346
 21
86.61492
 31
6.843859
 12
115.2901
 22
86.3247
 32
6.880829
 13
115.2901
 23
86.3247
 33
6.880829
  0
3DFACE
  8
0
 10
115.2751
 20
85.92167
 30
6.440575
 11
115.2901
 21
86.3247
 31
6.880829
 12
115.2258
 22
86.00867
 32
6.930466
 13
115.2258
 23
86.00867
 33
6.930466
  0
3DFACE
  8
0
 10
115.2954
 20
85.60136
 30
6.499496
 11
115.2258
 21
86.00867
 31
6.930466
 12
115.246
 22
85.68835
 32
6.989388
 13
115.246
 23
85.68835
 33
6.989388
  0
3DFACE
  8
0
 10
115.3988
 20
85.29859
 30
6.563685
 11
115.2954
 21
85.60136
 31
6.499496
 12
115.246
 22
85.68835
 32
6.989388
 13
115.246
 23
85.68835
 33
6.989388
  0
3DFACE
  8
0
 10
115.8219
 20
84.82566
 30
6.690311
 11
115.7725
 21
84.91266
 31
7.180202
 12
116.1126
 22
84.68771
 32
6.744118
 13
116.1126
 23
84.68771
 33
6.744118
  0
3DFACE
  8
0
 10
116.1126
 20
84.68771
 30
6.744118
 11
116.0633
 21
84.77471
 31
7.23401
 12
116.4309
 22
84.62959
 32
6.786523
 13
116.4309
 23
84.62959
 33
6.786523
  0
3DFACE
  8
0
 10
116.4309
 20
84.62959
 30
6.786523
 11
116.3815
 21
84.71658
 31
7.276414
 12
116.755
 22
84.65524
 32
6.814636
 13
116.755
 23
84.65524
 33
6.814636
  0
3DFACE
  8
0
 10
116.755
 20
84.65524
 30
6.814636
 11
116.7056
 21
84.74223
 31
7.304528
 12
117.0628
 22
84.76291
 32
6.826541
 13
117.0628
 23
84.76291
 33
6.826541
  0
3DFACE
  8
0
 10
117.0628
 20
84.76291
 30
6.826541
 11
117.0134
 21
84.84991
 31
7.316433
 12
117.3334
 22
84.94528
 32
6.821428
 13
117.3334
 23
84.94528
 33
6.821428
  0
3DFACE
  8
0
 10
117.3334
 20
84.94528
 30
6.821428
 11
117.284
 21
85.03227
 31
7.311319
 12
117.5482
 22
85.18991
 32
6.799644
 13
117.5482
 23
85.18991
 33
6.799644
  0
3DFACE
  8
0
 10
117.5482
 20
85.18991
 30
6.799644
 11
117.4988
 21
85.27691
 31
7.289535
 12
117.6927
 22
85.48013
 32
6.762672
 13
117.6927
 23
85.48013
 33
6.762672
  0
3DFACE
  8
0
 10
117.6927
 20
85.48013
 30
6.762672
 11
117.6434
 21
85.56713
 31
7.252564
 12
117.7571
 22
85.79617
 32
6.713036
 13
117.7571
 23
85.79617
 33
6.713036
  0
3DFACE
  8
0
 10
117.7571
 20
85.79617
 30
6.713036
 11
117.7077
 21
85.88316
 31
7.202927
 12
117.7368
 22
86.11649
 32
6.654115
 13
117.7368
 23
86.11649
 33
6.654115
  0
3DFACE
  8
0
 10
117.7368
 20
86.11649
 30
6.654115
 11
117.6875
 21
86.20348
 31
7.144006
 12
117.6334
 22
86.41924
 32
6.589925
 13
117.6334
 23
86.41924
 33
6.589925
  0
3DFACE
  8
0
 10
117.6334
 20
86.41924
 30
6.589925
 11
117.584
 21
86.50624
 31
7.079816
 12
117.4538
 22
86.68382
 32
6.524842
 13
117.4538
 23
86.68382
 33
6.524842
  0
3DFACE
  8
0
 10
117.4538
 20
86.68382
 30
6.524842
 11
117.4045
 21
86.77081
 31
7.014733
 12
117.2104
 22
86.89218
 32
6.4633
 13
117.2104
 23
86.89218
 33
6.4633
  0
3DFACE
  8
0
 10
117.2104
 20
86.89218
 30
6.4633
 11
117.161
 21
86.97918
 31
6.953191
 12
116.9196
 22
87.03013
 32
6.409492
 13
116.9196
 23
87.03013
 33
6.409492
  0
3DFACE
  8
0
 10
116.9196
 20
87.03013
 30
6.409492
 11
116.8702
 21
87.11712
 31
6.899384
 12
116.6013
 22
87.08826
 32
6.367087
 13
116.6013
 23
87.08826
 33
6.367087
  0
3DFACE
  8
0
 10
116.6013
 20
87.08826
 30
6.367087
 11
116.5519
 21
87.17525
 31
6.856979
 12
116.2772
 22
87.06261
 32
6.338974
 13
116.2772
 23
87.06261
 33
6.338974
  0
3DFACE
  8
0
 10
116.2772
 20
87.06261
 30
6.338974
 11
116.2278
 21
87.1496
 31
6.828866
 12
115.9694
 22
86.95493
 32
6.327069
 13
115.9694
 23
86.95493
 33
6.327069
  0
3DFACE
  8
0
 10
115.9694
 20
86.95493
 30
6.327069
 11
115.92
 21
87.04192
 31
6.81696
 12
115.6988
 22
86.77256
 32
6.332183
 13
115.6988
 23
86.77256
 33
6.332183
  0
3DFACE
  8
0
 10
115.6988
 20
86.77256
 30
6.332183
 11
115.6495
 21
86.85956
 31
6.822074
 12
115.484
 22
86.52793
 32
6.353967
 13
115.484
 23
86.52793
 33
6.353967
  0
3DFACE
  8
0
 10
115.484
 20
86.52793
 30
6.353967
 11
115.4346
 21
86.61492
 31
6.843859
 12
115.3395
 22
86.23771
 32
6.390938
 13
115.3395
 23
86.23771
 33
6.390938
  0
3DFACE
  8
0
 10
115.3395
 20
86.23771
 30
6.390938
 11
115.2901
 21
86.3247
 31
6.880829
 12
115.2751
 22
85.92167
 32
6.440575
 13
115.2751
 23
85.92167
 33
6.440575
  0
3DFACE
  8
0
 10
115.2751
 20
85.92167
 30
6.440575
 11
115.2258
 21
86.00867
 31
6.930466
 12
115.2954
 22
85.60136
 32
6.499496
 13
115.2954
 23
85.60136
 33
6.499496
  0
3DFACE
  8
0
 10
93.01435
 20
85.12124
 30
4.849185
 11
93.06374
 21
85.03425
 31
4.359293
 12
92.91093
 22
85.424
 32
4.784995
 13
92.91093
 23
85.424
 33
4.784995
  0
3DFACE
  8
0
 10
93.01435
 20
85.12124
 30
4.849185
 11
93.2433
 21
84.76968
 31
4.424376
 12
93.06374
 22
85.03425
 32
4.359293
 13
93.06374
 23
85.03425
 33
4.359293
  0
3DFACE
  8
0
 10
93.01435
 20
85.12124
 30
4.849185
 11
93.19392
 21
84.85667
 31
4.914268
 12
93.2433
 22
84.76968
 32
4.424376
 13
93.2433
 23
84.76968
 33
4.424376
  0
3DFACE
  8
0
 10
93.2433
 20
84.76968
 30
4.424376
 11
93.19392
 21
84.85667
 31
4.914268
 12
93.48679
 22
84.56131
 32
4.485919
 13
93.48679
 23
84.56131
 33
4.485919
  0
3DFACE
  8
0
 10
93.48679
 20
84.56131
 30
4.485919
 11
93.19392
 21
84.85667
 31
4.914268
 12
93.4374
 22
84.64831
 32
4.975811
 13
93.4374
 23
84.64831
 33
4.975811
  0
3DFACE
  8
0
 10
93.77757
 20
84.42337
 30
4.539725
 11
93.4374
 21
84.64831
 31
4.975811
 12
93.7282
 22
84.51037
 32
5.029617
 13
93.7282
 23
84.51037
 33
5.029617
  0
3DFACE
  8
0
 10
94.09586
 20
84.36524
 30
4.58213
 11
93.7282
 21
84.51037
 31
5.029617
 12
94.04648
 22
84.45224
 32
5.072021
 13
94.04648
 23
84.45224
 33
5.072021
  0
3DFACE
  8
0
 10
94.41994
 20
84.39089
 30
4.610244
 11
94.04648
 21
84.45224
 31
5.072021
 12
94.37057
 22
84.47788
 32
5.100135
 13
94.37057
 23
84.47788
 33
5.100135
  0
3DFACE
  8
0
 10
94.72775
 20
84.49857
 30
4.622149
 11
94.37057
 21
84.47788
 31
5.100135
 12
94.67837
 22
84.58556
 32
5.11204
 13
94.67837
 23
84.58556
 33
5.11204
  0
3DFACE
  8
0
 10
94.99831
 20
84.68094
 30
4.617035
 11
94.67837
 21
84.58556
 31
5.11204
 12
94.94892
 22
84.76793
 32
5.106926
 13
94.94892
 23
84.76793
 33
5.106926
  0
3DFACE
  8
0
 10
95.21316
 20
84.92556
 30
4.595251
 11
94.94892
 21
84.76793
 31
5.106926
 12
95.16377
 22
85.01256
 32
5.085142
 13
95.16377
 23
85.01256
 33
5.085142
  0
3DFACE
  8
0
 10
95.35767
 20
85.21579
 30
4.55828
 11
95.16377
 21
85.01256
 31
5.085142
 12
95.3083
 22
85.30278
 32
5.048172
 13
95.3083
 23
85.30278
 33
5.048172
  0
3DFACE
  8
0
 10
95.422
 20
85.53182
 30
4.508643
 11
95.3083
 21
85.30278
 31
5.048172
 12
95.37263
 22
85.61882
 32
4.998535
 13
95.37263
 23
85.61882
 33
4.998535
  0
3DFACE
  8
0
 10
95.40177
 20
85.85214
 30
4.449722
 11
95.37263
 21
85.61882
 31
4.998535
 12
95.35239
 22
85.93913
 32
4.939613
 13
95.35239
 23
85.93913
 33
4.939613
  0
3DFACE
  8
0
 10
95.29834
 20
86.1549
 30
4.385532
 11
95.35239
 21
85.93913
 31
4.939613
 12
95.24895
 22
86.2419
 32
4.875424
 13
95.24895
 23
86.2419
 33
4.875424
  0
3DFACE
  8
0
 10
95.11877
 20
86.41947
 30
4.320449
 11
95.24895
 21
86.2419
 31
4.875424
 12
95.06939
 22
86.50647
 32
4.81034
 13
95.06939
 23
86.50647
 33
4.81034
  0
3DFACE
  8
0
 10
94.87529
 20
86.62784
 30
4.258906
 11
95.06939
 21
86.50647
 31
4.81034
 12
94.82591
 22
86.71483
 32
4.748798
 13
94.82591
 23
86.71483
 33
4.748798
  0
3DFACE
  8
0
 10
94.5845
 20
86.76579
 30
4.205099
 11
94.82591
 21
86.71483
 31
4.748798
 12
94.53513
 22
86.85278
 32
4.694991
 13
94.53513
 23
86.85278
 33
4.694991
  0
3DFACE
  8
0
 10
94.26622
 20
86.82391
 30
4.162694
 11
94.53513
 21
86.85278
 31
4.694991
 12
94.21684
 22
86.9109
 32
4.652586
 13
94.21684
 23
86.9109
 33
4.652586
  0
3DFACE
  8
0
 10
93.94213
 20
86.79826
 30
4.134582
 11
94.21684
 21
86.9109
 31
4.652586
 12
93.89275
 22
86.88525
 32
4.624473
 13
93.89275
 23
86.88525
 33
4.624473
  0
3DFACE
  8
0
 10
93.63432
 20
86.69058
 30
4.122676
 11
93.89275
 21
86.88525
 31
4.624473
 12
93.58495
 22
86.77758
 32
4.612567
 13
93.58495
 23
86.77758
 33
4.612567
  0
3DFACE
  8
0
 10
93.36378
 20
86.50822
 30
4.12779
 11
93.58495
 21
86.77758
 31
4.612567
 12
93.31439
 22
86.59521
 32
4.617681
 13
93.31439
 23
86.59521
 33
4.617681
  0
3DFACE
  8
0
 10
93.14892
 20
86.26359
 30
4.149575
 11
93.31439
 21
86.59521
 31
4.617681
 12
93.09954
 22
86.35058
 32
4.639466
 13
93.09954
 23
86.35058
 33
4.639466
  0
3DFACE
  8
0
 10
93.0044
 20
85.97336
 30
4.186545
 11
93.09954
 21
86.35058
 31
4.639466
 12
92.95502
 22
86.06036
 32
4.676436
 13
92.95502
 23
86.06036
 33
4.676436
  0
3DFACE
  8
0
 10
92.94006
 20
85.65733
 30
4.236182
 11
92.95502
 21
86.06036
 31
4.676436
 12
92.89069
 22
85.74432
 32
4.726074
 13
92.89069
 23
85.74432
 33
4.726074
  0
3DFACE
  8
0
 10
92.9603
 20
85.33701
 30
4.295104
 11
92.89069
 21
85.74432
 31
4.726074
 12
92.91093
 22
85.424
 32
4.784995
 13
92.91093
 23
85.424
 33
4.784995
  0
3DFACE
  8
0
 10
93.06374
 20
85.03425
 30
4.359293
 11
92.9603
 21
85.33701
 31
4.295104
 12
92.91093
 22
85.424
 32
4.784995
 13
92.91093
 23
85.424
 33
4.784995
  0
3DFACE
  8
0
 10
93.48679
 20
84.56131
 30
4.485919
 11
93.4374
 21
84.64831
 31
4.975811
 12
93.77757
 22
84.42337
 32
4.539725
 13
93.77757
 23
84.42337
 33
4.539725
  0
3DFACE
  8
0
 10
93.77757
 20
84.42337
 30
4.539725
 11
93.7282
 21
84.51037
 31
5.029617
 12
94.09586
 22
84.36524
 32
4.58213
 13
94.09586
 23
84.36524
 33
4.58213
  0
3DFACE
  8
0
 10
94.09586
 20
84.36524
 30
4.58213
 11
94.04648
 21
84.45224
 31
5.072021
 12
94.41994
 22
84.39089
 32
4.610244
 13
94.41994
 23
84.39089
 33
4.610244
  0
3DFACE
  8
0
 10
94.41994
 20
84.39089
 30
4.610244
 11
94.37057
 21
84.47788
 31
5.100135
 12
94.72775
 22
84.49857
 32
4.622149
 13
94.72775
 23
84.49857
 33
4.622149
  0
3DFACE
  8
0
 10
94.72775
 20
84.49857
 30
4.622149
 11
94.67837
 21
84.58556
 31
5.11204
 12
94.99831
 22
84.68094
 32
4.617035
 13
94.99831
 23
84.68094
 33
4.617035
  0
3DFACE
  8
0
 10
94.99831
 20
84.68094
 30
4.617035
 11
94.94892
 21
84.76793
 31
5.106926
 12
95.21316
 22
84.92556
 32
4.595251
 13
95.21316
 23
84.92556
 33
4.595251
  0
3DFACE
  8
0
 10
95.21316
 20
84.92556
 30
4.595251
 11
95.16377
 21
85.01256
 31
5.085142
 12
95.35767
 22
85.21579
 32
4.55828
 13
95.35767
 23
85.21579
 33
4.55828
  0
3DFACE
  8
0
 10
95.35767
 20
85.21579
 30
4.55828
 11
95.3083
 21
85.30278
 31
5.048172
 12
95.422
 22
85.53182
 32
4.508643
 13
95.422
 23
85.53182
 33
4.508643
  0
3DFACE
  8
0
 10
95.422
 20
85.53182
 30
4.508643
 11
95.37263
 21
85.61882
 31
4.998535
 12
95.40177
 22
85.85214
 32
4.449722
 13
95.40177
 23
85.85214
 33
4.449722
  0
3DFACE
  8
0
 10
95.40177
 20
85.85214
 30
4.449722
 11
95.35239
 21
85.93913
 31
4.939613
 12
95.29834
 22
86.1549
 32
4.385532
 13
95.29834
 23
86.1549
 33
4.385532
  0
3DFACE
  8
0
 10
95.29834
 20
86.1549
 30
4.385532
 11
95.24895
 21
86.2419
 31
4.875424
 12
95.11877
 22
86.41947
 32
4.320449
 13
95.11877
 23
86.41947
 33
4.320449
  0
3DFACE
  8
0
 10
95.11877
 20
86.41947
 30
4.320449
 11
95.06939
 21
86.50647
 31
4.81034
 12
94.87529
 22
86.62784
 32
4.258906
 13
94.87529
 23
86.62784
 33
4.258906
  0
3DFACE
  8
0
 10
94.87529
 20
86.62784
 30
4.258906
 11
94.82591
 21
86.71483
 31
4.748798
 12
94.5845
 22
86.76579
 32
4.205099
 13
94.5845
 23
86.76579
 33
4.205099
  0
3DFACE
  8
0
 10
94.5845
 20
86.76579
 30
4.205099
 11
94.53513
 21
86.85278
 31
4.694991
 12
94.26622
 22
86.82391
 32
4.162694
 13
94.26622
 23
86.82391
 33
4.162694
  0
3DFACE
  8
0
 10
94.26622
 20
86.82391
 30
4.162694
 11
94.21684
 21
86.9109
 31
4.652586
 12
93.94213
 22
86.79826
 32
4.134582
 13
93.94213
 23
86.79826
 33
4.134582
  0
3DFACE
  8
0
 10
93.94213
 20
86.79826
 30
4.134582
 11
93.89275
 21
86.88525
 31
4.624473
 12
93.63432
 22
86.69058
 32
4.122676
 13
93.63432
 23
86.69058
 33
4.122676
  0
3DFACE
  8
0
 10
93.63432
 20
86.69058
 30
4.122676
 11
93.58495
 21
86.77758
 31
4.612567
 12
93.36378
 22
86.50822
 32
4.12779
 13
93.36378
 23
86.50822
 33
4.12779
  0
3DFACE
  8
0
 10
93.36378
 20
86.50822
 30
4.12779
 11
93.31439
 21
86.59521
 31
4.617681
 12
93.14892
 22
86.26359
 32
4.149575
 13
93.14892
 23
86.26359
 33
4.149575
  0
3DFACE
  8
0
 10
93.14892
 20
86.26359
 30
4.149575
 11
93.09954
 21
86.35058
 31
4.639466
 12
93.0044
 22
85.97336
 32
4.186545
 13
93.0044
 23
85.97336
 33
4.186545
  0
3DFACE
  8
0
 10
93.0044
 20
85.97336
 30
4.186545
 11
92.95502
 21
86.06036
 31
4.676436
 12
92.94006
 22
85.65733
 32
4.236182
 13
92.94006
 23
85.65733
 33
4.236182
  0
3DFACE
  8
0
 10
92.94006
 20
85.65733
 30
4.236182
 11
92.89069
 21
85.74432
 31
4.726074
 12
92.9603
 22
85.33701
 32
4.295104
 13
92.9603
 23
85.33701
 33
4.295104
  0
3DFACE
  8
0
 10
76.41457
 20
86.31472
 30
2.964019
 11
76.46394
 21
86.22772
 31
2.474127
 12
76.31113
 22
86.61748
 32
2.89983
 13
76.31113
 23
86.61748
 33
2.89983
  0
3DFACE
  8
0
 10
76.41457
 20
86.31472
 30
2.964019
 11
76.64352
 21
85.96314
 31
2.539211
 12
76.46394
 22
86.22772
 32
2.474127
 13
76.46394
 23
86.22772
 33
2.474127
  0
3DFACE
  8
0
 10
76.41457
 20
86.31472
 30
2.964019
 11
76.59414
 21
86.05014
 31
3.029103
 12
76.64352
 22
85.96314
 32
2.539211
 13
76.64352
 23
85.96314
 33
2.539211
  0
3DFACE
  8
0
 10
76.64352
 20
85.96314
 30
2.539211
 11
76.59414
 21
86.05014
 31
3.029103
 12
76.88699
 22
85.75479
 32
2.600753
 13
76.88699
 23
85.75479
 33
2.600753
  0
3DFACE
  8
0
 10
76.88699
 20
85.75479
 30
2.600753
 11
76.59414
 21
86.05014
 31
3.029103
 12
76.83761
 22
85.84178
 32
3.090644
 13
76.83761
 23
85.84178
 33
3.090644
  0
3DFACE
  8
0
 10
77.17778
 20
85.61684
 30
2.65456
 11
76.83761
 21
85.84178
 31
3.090644
 12
77.1284
 22
85.70383
 32
3.144452
 13
77.1284
 23
85.70383
 33
3.144452
  0
3DFACE
  8
0
 10
77.49606
 20
85.55872
 30
2.696965
 11
77.1284
 21
85.70383
 31
3.144452
 12
77.44668
 22
85.64571
 32
3.186857
 13
77.44668
 23
85.64571
 33
3.186857
  0
3DFACE
  8
0
 10
77.82015
 20
85.58436
 30
2.725079
 11
77.44668
 21
85.64571
 31
3.186857
 12
77.77077
 22
85.67136
 32
3.21497
 13
77.77077
 23
85.67136
 33
3.21497
  0
3DFACE
  8
0
 10
78.12796
 20
85.69204
 30
2.736984
 11
77.77077
 21
85.67136
 31
3.21497
 12
78.07858
 22
85.77903
 32
3.226875
 13
78.07858
 23
85.77903
 33
3.226875
  0
3DFACE
  8
0
 10
78.39851
 20
85.8744
 30
2.73187
 11
78.07858
 21
85.77903
 31
3.226875
 12
78.34913
 22
85.9614
 32
3.221761
 13
78.34913
 23
85.9614
 33
3.221761
  0
3DFACE
  8
0
 10
78.61337
 20
86.11904
 30
2.710085
 11
78.34913
 21
85.9614
 31
3.221761
 12
78.56399
 22
86.20603
 32
3.199976
 13
78.56399
 23
86.20603
 33
3.199976
  0
3DFACE
  8
0
 10
78.75788
 20
86.40926
 30
2.673115
 11
78.56399
 21
86.20603
 31
3.199976
 12
78.7085
 22
86.49625
 32
3.163006
 13
78.7085
 23
86.49625
 33
3.163006
  0
3DFACE
  8
0
 10
78.82221
 20
86.7253
 30
2.623477
 11
78.7085
 21
86.49625
 31
3.163006
 12
78.77283
 22
86.81229
 32
3.113369
 13
78.77283
 23
86.81229
 33
3.113369
  0
3DFACE
  8
0
 10
78.80198
 20
87.04561
 30
2.564557
 11
78.77283
 21
86.81229
 31
3.113369
 12
78.75259
 22
87.13261
 32
3.054448
 13
78.75259
 23
87.13261
 33
3.054448
  0
3DFACE
  8
0
 10
78.69855
 20
87.34837
 30
2.500367
 11
78.75259
 21
87.13261
 31
3.054448
 12
78.64917
 22
87.43536
 32
2.990259
 13
78.64917
 23
87.43536
 33
2.990259
  0
3DFACE
  8
0
 10
78.51897
 20
87.61295
 30
2.435284
 11
78.64917
 21
87.43536
 31
2.990259
 12
78.4696
 22
87.69994
 32
2.925175
 13
78.4696
 23
87.69994
 33
2.925175
  0
3DFACE
  8
0
 10
78.2755
 20
87.8213
 30
2.373742
 11
78.4696
 21
87.69994
 31
2.925175
 12
78.22612
 22
87.9083
 32
2.863633
 13
78.22612
 23
87.9083
 33
2.863633
  0
3DFACE
  8
0
 10
77.98471
 20
87.95925
 30
2.319934
 11
78.22612
 21
87.9083
 31
2.863633
 12
77.93533
 22
88.04625
 32
2.809825
 13
77.93533
 23
88.04625
 33
2.809825
  0
3DFACE
  8
0
 10
77.66643
 20
88.01738
 30
2.277529
 11
77.93533
 21
88.04625
 31
2.809825
 12
77.61705
 22
88.10438
 32
2.767421
 13
77.61705
 23
88.10438
 33
2.767421
  0
3DFACE
  8
0
 10
77.34234
 20
87.99173
 30
2.249417
 11
77.61705
 21
88.10438
 31
2.767421
 12
77.29296
 22
88.07873
 32
2.739308
 13
77.29296
 23
88.07873
 33
2.739308
  0
3DFACE
  8
0
 10
77.03453
 20
87.88406
 30
2.237511
 11
77.29296
 21
88.07873
 31
2.739308
 12
76.98515
 22
87.97105
 32
2.727402
 13
76.98515
 23
87.97105
 33
2.727402
  0
3DFACE
  8
0
 10
76.76398
 20
87.70169
 30
2.242625
 11
76.98515
 21
87.97105
 31
2.727402
 12
76.7146
 22
87.78868
 32
2.732516
 13
76.7146
 23
87.78868
 33
2.732516
  0
3DFACE
  8
0
 10
76.54913
 20
87.45705
 30
2.264409
 11
76.7146
 21
87.78868
 31
2.732516
 12
76.49974
 22
87.54405
 32
2.754301
 13
76.49974
 23
87.54405
 33
2.754301
  0
3DFACE
  8
0
 10
76.40461
 20
87.16683
 30
2.30138
 11
76.49974
 21
87.54405
 31
2.754301
 12
76.35523
 22
87.25382
 32
2.791272
 13
76.35523
 23
87.25382
 33
2.791272
  0
3DFACE
  8
0
 10
76.34028
 20
86.85079
 30
2.351017
 11
76.35523
 21
87.25382
 31
2.791272
 12
76.2909
 22
86.93779
 32
2.840909
 13
76.2909
 23
86.93779
 33
2.840909
  0
3DFACE
  8
0
 10
76.36051
 20
86.53048
 30
2.409938
 11
76.2909
 21
86.93779
 31
2.840909
 12
76.31113
 22
86.61748
 32
2.89983
 13
76.31113
 23
86.61748
 33
2.89983
  0
3DFACE
  8
0
 10
76.46394
 20
86.22772
 30
2.474127
 11
76.36051
 21
86.53048
 31
2.409938
 12
76.31113
 22
86.61748
 32
2.89983
 13
76.31113
 23
86.61748
 33
2.89983
  0
3DFACE
  8
0
 10
76.88699
 20
85.75479
 30
2.600753
 11
76.83761
 21
85.84178
 31
3.090644
 12
77.17778
 22
85.61684
 32
2.65456
 13
77.17778
 23
85.61684
 33
2.65456
  0
3DFACE
  8
0
 10
77.17778
 20
85.61684
 30
2.65456
 11
77.1284
 21
85.70383
 31
3.144452
 12
77.49606
 22
85.55872
 32
2.696965
 13
77.49606
 23
85.55872
 33
2.696965
  0
3DFACE
  8
0
 10
77.49606
 20
85.55872
 30
2.696965
 11
77.44668
 21
85.64571
 31
3.186857
 12
77.82015
 22
85.58436
 32
2.725079
 13
77.82015
 23
85.58436
 33
2.725079
  0
3DFACE
  8
0
 10
77.82015
 20
85.58436
 30
2.725079
 11
77.77077
 21
85.67136
 31
3.21497
 12
78.12796
 22
85.69204
 32
2.736984
 13
78.12796
 23
85.69204
 33
2.736984
  0
3DFACE
  8
0
 10
78.12796
 20
85.69204
 30
2.736984
 11
78.07858
 21
85.77903
 31
3.226875
 12
78.39851
 22
85.8744
 32
2.73187
 13
78.39851
 23
85.8744
 33
2.73187
  0
3DFACE
  8
0
 10
78.39851
 20
85.8744
 30
2.73187
 11
78.34913
 21
85.9614
 31
3.221761
 12
78.61337
 22
86.11904
 32
2.710085
 13
78.61337
 23
86.11904
 33
2.710085
  0
3DFACE
  8
0
 10
78.61337
 20
86.11904
 30
2.710085
 11
78.56399
 21
86.20603
 31
3.199976
 12
78.75788
 22
86.40926
 32
2.673115
 13
78.75788
 23
86.40926
 33
2.673115
  0
3DFACE
  8
0
 10
78.75788
 20
86.40926
 30
2.673115
 11
78.7085
 21
86.49625
 31
3.163006
 12
78.82221
 22
86.7253
 32
2.623477
 13
78.82221
 23
86.7253
 33
2.623477
  0
3DFACE
  8
0
 10
78.82221
 20
86.7253
 30
2.623477
 11
78.77283
 21
86.81229
 31
3.113369
 12
78.80198
 22
87.04561
 32
2.564557
 13
78.80198
 23
87.04561
 33
2.564557
  0
3DFACE
  8
0
 10
78.80198
 20
87.04561
 30
2.564557
 11
78.75259
 21
87.13261
 31
3.054448
 12
78.69855
 22
87.34837
 32
2.500367
 13
78.69855
 23
87.34837
 33
2.500367
  0
3DFACE
  8
0
 10
78.69855
 20
87.34837
 30
2.500367
 11
78.64917
 21
87.43536
 31
2.990259
 12
78.51897
 22
87.61295
 32
2.435284
 13
78.51897
 23
87.61295
 33
2.435284
  0
3DFACE
  8
0
 10
78.51897
 20
87.61295
 30
2.435284
 11
78.4696
 21
87.69994
 31
2.925175
 12
78.2755
 22
87.8213
 32
2.373742
 13
78.2755
 23
87.8213
 33
2.373742
  0
3DFACE
  8
0
 10
78.2755
 20
87.8213
 30
2.373742
 11
78.22612
 21
87.9083
 31
2.863633
 12
77.98471
 22
87.95925
 32
2.319934
 13
77.98471
 23
87.95925
 33
2.319934
  0
3DFACE
  8
0
 10
77.98471
 20
87.95925
 30
2.319934
 11
77.93533
 21
88.04625
 31
2.809825
 12
77.66643
 22
88.01738
 32
2.277529
 13
77.66643
 23
88.01738
 33
2.277529
  0
3DFACE
  8
0
 10
77.66643
 20
88.01738
 30
2.277529
 11
77.61705
 21
88.10438
 31
2.767421
 12
77.34234
 22
87.99173
 32
2.249417
 13
77.34234
 23
87.99173
 33
2.249417
  0
3DFACE
  8
0
 10
77.34234
 20
87.99173
 30
2.249417
 11
77.29296
 21
88.07873
 31
2.739308
 12
77.03453
 22
87.88406
 32
2.237511
 13
77.03453
 23
87.88406
 33
2.237511
  0
3DFACE
  8
0
 10
77.03453
 20
87.88406
 30
2.237511
 11
76.98515
 21
87.97105
 31
2.727402
 12
76.76398
 22
87.70169
 32
2.242625
 13
76.76398
 23
87.70169
 33
2.242625
  0
3DFACE
  8
0
 10
76.76398
 20
87.70169
 30
2.242625
 11
76.7146
 21
87.78868
 31
2.732516
 12
76.54913
 22
87.45705
 32
2.264409
 13
76.54913
 23
87.45705
 33
2.264409
  0
3DFACE
  8
0
 10
76.54913
 20
87.45705
 30
2.264409
 11
76.49974
 21
87.54405
 31
2.754301
 12
76.40461
 22
87.16683
 32
2.30138
 13
76.40461
 23
87.16683
 33
2.30138
  0
3DFACE
  8
0
 10
76.40461
 20
87.16683
 30
2.30138
 11
76.35523
 21
87.25382
 31
2.791272
 12
76.34028
 22
86.85079
 32
2.351017
 13
76.34028
 23
86.85079
 33
2.351017
  0
3DFACE
  8
0
 10
76.34028
 20
86.85079
 30
2.351017
 11
76.2909
 21
86.93779
 31
2.840909
 12
76.36051
 22
86.53048
 32
2.409938
 13
76.36051
 23
86.53048
 33
2.409938
  0
3DFACE
  8
0
 10
65.14667
 20
88.41171
 30
1.455853
 11
65.19604
 21
88.32471
 31
.9659621
 12
65.04324
 22
88.71447
 32
1.391664
 13
65.04324
 23
88.71447
 33
1.391664
  0
3DFACE
  8
0
 10
65.14667
 20
88.41171
 30
1.455853
 11
65.37562
 21
88.06013
 31
1.031045
 12
65.19604
 22
88.32471
 32
.9659621
 13
65.19604
 23
88.32471
 33
.9659621
  0
3DFACE
  8
0
 10
65.14667
 20
88.41171
 30
1.455853
 11
65.32624
 21
88.14713
 31
1.520937
 12
65.37562
 22
88.06013
 32
1.031045
 13
65.37562
 23
88.06013
 33
1.031045
  0
3DFACE
  8
0
 10
65.37562
 20
88.06013
 30
1.031045
 11
65.32624
 21
88.14713
 31
1.520937
 12
65.61909
 22
87.85178
 32
1.092588
 13
65.61909
 23
87.85178
 33
1.092588
  0
3DFACE
  8
0
 10
65.61909
 20
87.85178
 30
1.092588
 11
65.32624
 21
88.14713
 31
1.520937
 12
65.56972
 22
87.93877
 32
1.582479
 13
65.56972
 23
87.93877
 33
1.582479
  0
3DFACE
  8
0
 10
65.90988
 20
87.71384
 30
1.146394
 11
65.56972
 21
87.93877
 31
1.582479
 12
65.8605
 22
87.80083
 32
1.636286
 13
65.8605
 23
87.80083
 33
1.636286
  0
3DFACE
  8
0
 10
66.22816
 20
87.65571
 30
1.188799
 11
65.8605
 21
87.80083
 31
1.636286
 12
66.17879
 22
87.7427
 32
1.678691
 13
66.17879
 23
87.7427
 33
1.678691
  0
3DFACE
  8
0
 10
66.55225
 20
87.68135
 30
1.216913
 11
66.17879
 21
87.7427
 31
1.678691
 12
66.50288
 22
87.76835
 32
1.706804
 13
66.50288
 23
87.76835
 33
1.706804
  0
3DFACE
  8
0
 10
66.86006
 20
87.78903
 30
1.228818
 11
66.50288
 21
87.76835
 31
1.706804
 12
66.81068
 22
87.87602
 32
1.718709
 13
66.81068
 23
87.87602
 33
1.718709
  0
3DFACE
  8
0
 10
67.13062
 20
87.9714
 30
1.223704
 11
66.81068
 21
87.87602
 31
1.718709
 12
67.08124
 22
88.0584
 32
1.713595
 13
67.08124
 23
88.0584
 33
1.713595
  0
3DFACE
  8
0
 10
67.34547
 20
88.21603
 30
1.20192
 11
67.08124
 21
88.0584
 31
1.713595
 12
67.29609
 22
88.30302
 32
1.691811
 13
67.29609
 23
88.30302
 33
1.691811
  0
3DFACE
  8
0
 10
67.48999
 20
88.50625
 30
1.164949
 11
67.29609
 21
88.30302
 31
1.691811
 12
67.44061
 22
88.59325
 32
1.65484
 13
67.44061
 23
88.59325
 33
1.65484
  0
3DFACE
  8
0
 10
67.55432
 20
88.82229
 30
1.115312
 11
67.44061
 21
88.59325
 31
1.65484
 12
67.50494
 22
88.90928
 32
1.605204
 13
67.50494
 23
88.90928
 33
1.605204
  0
3DFACE
  8
0
 10
67.53408
 20
89.1426
 30
1.056391
 11
67.50494
 21
88.90928
 31
1.605204
 12
67.4847
 22
89.2296
 32
1.546283
 13
67.4847
 23
89.2296
 33
1.546283
  0
3DFACE
  8
0
 10
67.43065
 20
89.44537
 30
.9922015
 11
67.4847
 21
89.2296
 31
1.546283
 12
67.38127
 22
89.53236
 32
1.482093
 13
67.38127
 23
89.53236
 33
1.482093
  0
3DFACE
  8
0
 10
67.25108
 20
89.70994
 30
.9271182
 11
67.38127
 21
89.53236
 31
1.482093
 12
67.2017
 22
89.79694
 32
1.41701
 13
67.2017
 23
89.79694
 33
1.41701
  0
3DFACE
  8
0
 10
67.00761
 20
89.9183
 30
.8655756
 11
67.2017
 21
89.79694
 31
1.41701
 12
66.95822
 22
90.00529
 32
1.355467
 13
66.95822
 23
90.00529
 33
1.355467
  0
3DFACE
  8
0
 10
66.71682
 20
90.05624
 30
.8117682
 11
66.95822
 21
90.00529
 31
1.355467
 12
66.66743
 22
90.14324
 32
1.30166
 13
66.66743
 23
90.14324
 33
1.30166
  0
3DFACE
  8
0
 10
66.39853
 20
90.11437
 30
.7693633
 11
66.66743
 21
90.14324
 31
1.30166
 12
66.34915
 22
90.20137
 32
1.259255
 13
66.34915
 23
90.20137
 33
1.259255
  0
3DFACE
  8
0
 10
66.07445
 20
90.08872
 30
.7412508
 11
66.34915
 21
90.20137
 31
1.259255
 12
66.02506
 22
90.17572
 32
1.231142
 13
66.02506
 23
90.17572
 33
1.231142
  0
3DFACE
  8
0
 10
65.76663
 20
89.98105
 30
.7293451
 11
66.02506
 21
90.17572
 31
1.231142
 12
65.71725
 22
90.06805
 32
1.219236
 13
65.71725
 23
90.06805
 33
1.219236
  0
3DFACE
  8
0
 10
65.49609
 20
89.79868
 30
.7344589
 11
65.71725
 21
90.06805
 31
1.219236
 12
65.44671
 22
89.88567
 32
1.22435
 13
65.44671
 23
89.88567
 33
1.22435
  0
3DFACE
  8
0
 10
65.28123
 20
89.55405
 30
.7562436
 11
65.44671
 21
89.88567
 31
1.22435
 12
65.23185
 22
89.64104
 32
1.246135
 13
65.23185
 23
89.64104
 33
1.246135
  0
3DFACE
  8
0
 10
65.13671
 20
89.26382
 30
.7932144
 11
65.23185
 21
89.64104
 31
1.246135
 12
65.08733
 22
89.35081
 32
1.283106
 13
65.08733
 23
89.35081
 33
1.283106
  0
3DFACE
  8
0
 10
65.07238
 20
88.94778
 30
.8428513
 11
65.08733
 21
89.35081
 31
1.283106
 12
65.023
 22
89.03478
 32
1.332743
 13
65.023
 23
89.03478
 33
1.332743
  0
3DFACE
  8
0
 10
65.09262
 20
88.62747
 30
.9017724
 11
65.023
 21
89.03478
 31
1.332743
 12
65.04324
 22
88.71447
 32
1.391664
 13
65.04324
 23
88.71447
 33
1.391664
  0
3DFACE
  8
0
 10
65.19604
 20
88.32471
 30
.9659621
 11
65.09262
 21
88.62747
 31
.9017724
 12
65.04324
 22
88.71447
 32
1.391664
 13
65.04324
 23
88.71447
 33
1.391664
  0
3DFACE
  8
0
 10
65.61909
 20
87.85178
 30
1.092588
 11
65.56972
 21
87.93877
 31
1.582479
 12
65.90988
 22
87.71384
 32
1.146394
 13
65.90988
 23
87.71384
 33
1.146394
  0
3DFACE
  8
0
 10
65.90988
 20
87.71384
 30
1.146394
 11
65.8605
 21
87.80083
 31
1.636286
 12
66.22816
 22
87.65571
 32
1.188799
 13
66.22816
 23
87.65571
 33
1.188799
  0
3DFACE
  8
0
 10
66.22816
 20
87.65571
 30
1.188799
 11
66.17879
 21
87.7427
 31
1.678691
 12
66.55225
 22
87.68135
 32
1.216913
 13
66.55225
 23
87.68135
 33
1.216913
  0
3DFACE
  8
0
 10
66.55225
 20
87.68135
 30
1.216913
 11
66.50288
 21
87.76835
 31
1.706804
 12
66.86006
 22
87.78903
 32
1.228818
 13
66.86006
 23
87.78903
 33
1.228818
  0
3DFACE
  8
0
 10
66.86006
 20
87.78903
 30
1.228818
 11
66.81068
 21
87.87602
 31
1.718709
 12
67.13062
 22
87.9714
 32
1.223704
 13
67.13062
 23
87.9714
 33
1.223704
  0
3DFACE
  8
0
 10
67.13062
 20
87.9714
 30
1.223704
 11
67.08124
 21
88.0584
 31
1.713595
 12
67.34547
 22
88.21603
 32
1.20192
 13
67.34547
 23
88.21603
 33
1.20192
  0
3DFACE
  8
0
 10
67.34547
 20
88.21603
 30
1.20192
 11
67.29609
 21
88.30302
 31
1.691811
 12
67.48999
 22
88.50625
 32
1.164949
 13
67.48999
 23
88.50625
 33
1.164949
  0
3DFACE
  8
0
 10
67.48999
 20
88.50625
 30
1.164949
 11
67.44061
 21
88.59325
 31
1.65484
 12
67.55432
 22
88.82229
 32
1.115312
 13
67.55432
 23
88.82229
 33
1.115312
  0
3DFACE
  8
0
 10
67.55432
 20
88.82229
 30
1.115312
 11
67.50494
 21
88.90928
 31
1.605204
 12
67.53408
 22
89.1426
 32
1.056391
 13
67.53408
 23
89.1426
 33
1.056391
  0
3DFACE
  8
0
 10
67.53408
 20
89.1426
 30
1.056391
 11
67.4847
 21
89.2296
 31
1.546283
 12
67.43065
 22
89.44537
 32
.9922015
 13
67.43065
 23
89.44537
 33
.9922015
  0
3DFACE
  8
0
 10
67.43065
 20
89.44537
 30
.9922015
 11
67.38127
 21
89.53236
 31
1.482093
 12
67.25108
 22
89.70994
 32
.9271182
 13
67.25108
 23
89.70994
 33
.9271182
  0
3DFACE
  8
0
 10
67.25108
 20
89.70994
 30
.9271182
 11
67.2017
 21
89.79694
 31
1.41701
 12
67.00761
 22
89.9183
 32
.8655756
 13
67.00761
 23
89.9183
 33
.8655756
  0
3DFACE
  8
0
 10
67.00761
 20
89.9183
 30
.8655756
 11
66.95822
 21
90.00529
 31
1.355467
 12
66.71682
 22
90.05624
 32
.8117682
 13
66.71682
 23
90.05624
 33
.8117682
  0
3DFACE
  8
0
 10
66.71682
 20
90.05624
 30
.8117682
 11
66.66743
 21
90.14324
 31
1.30166
 12
66.39853
 22
90.11437
 32
.7693633
 13
66.39853
 23
90.11437
 33
.7693633
  0
3DFACE
  8
0
 10
66.39853
 20
90.11437
 30
.7693633
 11
66.34915
 21
90.20137
 31
1.259255
 12
66.07445
 22
90.08872
 32
.7412508
 13
66.07445
 23
90.08872
 33
.7412508
  0
3DFACE
  8
0
 10
66.07445
 20
90.08872
 30
.7412508
 11
66.02506
 21
90.17572
 31
1.231142
 12
65.76663
 22
89.98105
 32
.7293451
 13
65.76663
 23
89.98105
 33
.7293451
  0
3DFACE
  8
0
 10
65.76663
 20
89.98105
 30
.7293451
 11
65.71725
 21
90.06805
 31
1.219236
 12
65.49609
 22
89.79868
 32
.7344589
 13
65.49609
 23
89.79868
 33
.7344589
  0
3DFACE
  8
0
 10
65.49609
 20
89.79868
 30
.7344589
 11
65.44671
 21
89.88567
 31
1.22435
 12
65.28123
 22
89.55405
 32
.7562436
 13
65.28123
 23
89.55405
 33
.7562436
  0
3DFACE
  8
0
 10
65.28123
 20
89.55405
 30
.7562436
 11
65.23185
 21
89.64104
 31
1.246135
 12
65.13671
 22
89.26382
 32
.7932144
 13
65.13671
 23
89.26382
 33
.7932144
  0
3DFACE
  8
0
 10
65.13671
 20
89.26382
 30
.7932144
 11
65.08733
 21
89.35081
 31
1.283106
 12
65.07238
 22
88.94778
 32
.8428513
 13
65.07238
 23
88.94778
 33
.8428513
  0
3DFACE
  8
0
 10
65.07238
 20
88.94778
 30
.8428513
 11
65.023
 21
89.03478
 31
1.332743
 12
65.09262
 22
88.62747
 32
.9017724
 13
65.09262
 23
88.62747
 33
.9017724
  0
3DFACE
  8
0
 10
119.6673
 20
95.61344
 30
5.162239
 11
130.07
 21
97.78118
 31
5.825869
 12
119.6179
 22
95.70043
 32
5.652131
 13
119.6179
 23
95.70043
 33
5.652131
  0
3DFACE
  8
0
 10
119.6179
 20
95.70043
 30
5.652131
 11
130.07
 21
97.78118
 31
5.825869
 12
130.0206
 22
97.86818
 32
6.31576
 13
130.0206
 23
97.86818
 33
6.31576
  0
3DFACE
  8
0
 10
122.6301
 20
80.68571
 30
8.111741
 11
119.6673
 21
95.61344
 31
5.162239
 12
122.5807
 22
80.77271
 32
8.601633
 13
122.5807
 23
80.77271
 33
8.601633
  0
3DFACE
  8
0
 10
122.5807
 20
80.77271
 30
8.601633
 11
119.6673
 21
95.61344
 31
5.162239
 12
119.6179
 22
95.70043
 32
5.652131
 13
119.6179
 23
95.70043
 33
5.652131
  0
3DFACE
  8
0
 10
96.81253
 20
85.9193
 30
4.579997
 11
122.6301
 21
80.68571
 31
8.111741
 12
96.76315
 22
86.0063
 32
5.069888
 13
96.76315
 23
86.0063
 33
5.069888
  0
3DFACE
  8
0
 10
96.76315
 20
86.0063
 30
5.069888
 11
122.6301
 21
80.68571
 31
8.111741
 12
122.5807
 22
80.77271
 32
8.601633
 13
122.5807
 23
80.77271
 33
8.601633
  0
3DFACE
  8
0
 10
97.82637
 20
80.81125
 30
5.589275
 11
96.81253
 21
85.9193
 31
4.579997
 12
97.77699
 22
80.89825
 32
6.079166
 13
97.77699
 23
80.89825
 33
6.079166
  0
3DFACE
  8
0
 10
97.77699
 20
80.89825
 30
6.079166
 11
96.81253
 21
85.9193
 31
4.579997
 12
96.76315
 22
86.0063
 32
5.069888
 13
96.76315
 23
86.0063
 33
5.069888
  0
3DFACE
  8
0
 10
80.44128
 20
87.92301
 30
2.573988
 11
97.82637
 21
80.81125
 31
5.589275
 12
80.39191
 22
88.01001
 32
3.06388
 13
80.39191
 23
88.01001
 33
3.06388
  0
3DFACE
  8
0
 10
80.39191
 20
88.01001
 30
3.06388
 11
97.82637
 21
80.81125
 31
5.589275
 12
97.77699
 22
80.89825
 32
6.079166
 13
97.77699
 23
80.89825
 33
6.079166
  0
3DFACE
  8
0
 10
81.43699
 20
82.90635
 30
3.565209
 11
80.44128
 21
87.92301
 31
2.573988
 12
81.38761
 22
82.99334
 32
4.0551
 13
81.38761
 23
82.99334
 33
4.0551
  0
3DFACE
  8
0
 10
81.38761
 20
82.99334
 30
4.0551
 11
80.44128
 21
87.92301
 31
2.573988
 12
80.39191
 22
88.01001
 32
3.06388
 13
80.39191
 23
88.01001
 33
3.06388
  0
3DFACE
  8
0
 10
60.87003
 20
87.5852
 30
.6612298
 11
81.43699
 21
82.90635
 31
3.565209
 12
60.82065
 22
87.67219
 32
1.151121
 13
60.82065
 23
87.67219
 33
1.151121
  0
3DFACE
  8
0
 10
60.82065
 20
87.67219
 30
1.151121
 11
81.43699
 21
82.90635
 31
3.565209
 12
81.38761
 22
82.99334
 32
4.0551
 13
81.38761
 23
82.99334
 33
4.0551
  0
3DFACE
  8
0
 10
60.808
 20
87.90199
 30
.5987214
 11
60.87003
 21
87.5852
 31
.6612298
 12
60.75863
 22
87.98898
 32
1.088613
 13
60.75863
 23
87.98898
 33
1.088613
  0
3DFACE
  8
0
 10
60.75863
 20
87.98898
 30
1.088613
 11
60.87003
 21
87.5852
 31
.6612298
 12
60.82065
 22
87.67219
 32
1.151121
 13
60.82065
 23
87.67219
 33
1.151121
  0
3DFACE
  8
0
 10
77.93896
 20
100.5348
 30
.0821662
 11
60.808
 21
87.90199
 31
.5987214
 12
77.88958
 22
100.6218
 32
.5720575
 13
77.88958
 23
100.6218
 33
.5720575
  0
3DFACE
  8
0
 10
77.88958
 20
100.6218
 30
.5720575
 11
60.808
 21
87.90199
 31
.5987214
 12
60.75863
 22
87.98898
 32
1.088613
 13
60.75863
 23
87.98898
 33
1.088613
  0
3DFACE
  8
0
 10
78.93466
 20
95.51814
 30
1.073387
 11
77.93896
 21
100.5348
 31
.0821662
 12
78.88528
 22
95.60513
 32
1.563278
 13
78.88528
 23
95.60513
 33
1.563278
  0
3DFACE
  8
0
 10
78.88528
 20
95.60513
 30
1.563278
 11
77.93896
 21
100.5348
 31
.0821662
 12
77.88958
 22
100.6218
 32
.5720575
 13
77.88958
 23
100.6218
 33
.5720575
  0
3DFACE
  8
0
 10
92.21259
 20
109.0996
 30
2.664535E-15
 11
78.93466
 21
95.51814
 31
1.073387
 12
92.16321
 22
109.1866
 32
.4898914
 13
92.16321
 23
109.1866
 33
.4898914
  0
3DFACE
  8
0
 10
92.16321
 20
109.1866
 30
.4898914
 11
78.93466
 21
95.51814
 31
1.073387
 12
78.88528
 22
95.60513
 32
1.563278
 13
78.88528
 23
95.60513
 33
1.563278
  0
3DFACE
  8
0
 10
93.22643
 20
103.9915
 30
1.009278
 11
92.21259
 21
109.0996
 31
2.664535E-15
 12
93.17705
 22
104.0785
 32
1.49917
 13
93.17705
 23
104.0785
 33
1.49917
  0
3DFACE
  8
0
 10
93.17705
 20
104.0785
 30
1.49917
 11
92.21259
 21
109.0996
 31
2.664535E-15
 12
92.16321
 22
109.1866
 32
.4898914
 13
92.16321
 23
109.1866
 33
.4898914
  0
3DFACE
  8
0
 10
114.9746
 20
119.2611
 30
.4898915
 11
93.22643
 21
103.9915
 31
1.009278
 12
114.9252
 22
119.3481
 32
.9797828
 13
114.9252
 23
119.3481
 33
.9797828
  0
3DFACE
  8
0
 10
114.9252
 20
119.3481
 30
.9797828
 11
93.22643
 21
103.9915
 31
1.009278
 12
93.17705
 22
104.0785
 32
1.49917
 13
93.17705
 23
104.0785
 33
1.49917
  0
3DFACE
  8
0
 10
117.9374
 20
104.3333
 30
3.439399
 11
114.9746
 21
119.2611
 31
.4898915
 12
117.8881
 22
104.4203
 32
3.92929
 13
117.8881
 23
104.4203
 33
3.92929
  0
3DFACE
  8
0
 10
117.8881
 20
104.4203
 30
3.92929
 11
114.9746
 21
119.2611
 31
.4898915
 12
114.9252
 22
119.3481
 32
.9797828
 13
114.9252
 23
119.3481
 33
.9797828
  0
3DFACE
  8
0
 10
128.3454
 20
106.5294
 30
4.098541
 11
117.9374
 21
104.3333
 31
3.439399
 12
128.2961
 22
106.6163
 32
4.588433
 13
128.2961
 23
106.6163
 33
4.588433
  0
3DFACE
  8
0
 10
128.2961
 20
106.6163
 30
4.588433
 11
117.9374
 21
104.3333
 31
3.439399
 12
117.8881
 22
104.4203
 32
3.92929
 13
117.8881
 23
104.4203
 33
3.92929
  0
3DFACE
  8
0
 10
129.2134
 20
102.1564
 30
4.962564
 11
128.3454
 21
106.5294
 31
4.098541
 12
129.164
 22
102.2434
 32
5.452456
 13
129.164
 23
102.2434
 33
5.452456
  0
3DFACE
  8
0
 10
129.164
 20
102.2434
 30
5.452456
 11
128.3454
 21
106.5294
 31
4.098541
 12
128.2961
 22
106.6163
 32
4.588433
 13
128.2961
 23
106.6163
 33
4.588433
  0
3DFACE
  8
0
 10
130.07
 20
97.78118
 30
5.825869
 11
129.2134
 21
102.1564
 31
4.962564
 12
130.0206
 22
97.86818
 32
6.31576
 13
130.0206
 23
97.86818
 33
6.31576
  0
3DFACE
  8
0
 10
130.0206
 20
97.86818
 30
6.31576
 11
129.2134
 21
102.1564
 31
4.962564
 12
129.164
 22
102.2434
 32
5.452456
 13
129.164
 23
102.2434
 33
5.452456
  0
3DFACE
  8
0
 10
110.2047
 20
111.4681
 30
1.392968
 11
101.5564
 21
106.7694
 31
1.355628
 12
110.1013
 22
111.7709
 32
1.328778
 13
110.1013
 23
111.7709
 33
1.328778
  0
3DFACE
  8
0
 10
110.2047
 20
111.4681
 30
1.392968
 11
110.3843
 21
111.2035
 31
1.458051
 12
101.5564
 22
106.7694
 32
1.355628
 13
101.5564
 23
106.7694
 33
1.355628
  0
3DFACE
  8
0
 10
101.5564
 20
106.7694
 30
1.355628
 11
110.3843
 21
111.2035
 31
1.458051
 12
101.8472
 22
106.6315
 32
1.409435
 13
101.8472
 23
106.6315
 33
1.409435
  0
3DFACE
  8
0
 10
101.8472
 20
106.6315
 30
1.409435
 11
110.3843
 21
111.2035
 31
1.458051
 12
110.6278
 22
110.9952
 32
1.519594
 13
110.6278
 23
110.9952
 33
1.519594
  0
3DFACE
  8
0
 10
102.0907
 20
106.4231
 30
1.470978
 11
110.6278
 21
110.9952
 31
1.519594
 12
110.9185
 22
110.8572
 32
1.5734
 13
110.9185
 23
110.8572
 33
1.5734
  0
3DFACE
  8
0
 10
102.2703
 20
106.1585
 30
1.536061
 11
110.9185
 21
110.8572
 31
1.5734
 12
102.3737
 22
105.8558
 32
1.60025
 13
102.3737
 23
105.8558
 33
1.60025
  0
3DFACE
  8
0
 10
102.2703
 20
106.1585
 30
1.536061
 11
102.0907
 21
106.4231
 31
1.470978
 12
110.9185
 22
110.8572
 32
1.5734
 13
110.9185
 23
110.8572
 33
1.5734
  0
3DFACE
  8
0
 10
101.8472
 20
106.6315
 30
1.409435
 11
110.6278
 21
110.9952
 31
1.519594
 12
102.0907
 22
106.4231
 32
1.470978
 13
102.0907
 23
106.4231
 33
1.470978
  0
3DFACE
  8
0
 10
110.9185
 20
110.8572
 30
1.5734
 11
111.2368
 21
110.7991
 31
1.615805
 12
102.3737
 22
105.8558
 32
1.60025
 13
102.3737
 23
105.8558
 33
1.60025
  0
3DFACE
  8
0
 10
102.3737
 20
105.8558
 30
1.60025
 11
111.2368
 21
110.7991
 31
1.615805
 12
102.394
 22
105.5355
 32
1.659172
 13
102.394
 23
105.5355
 33
1.659172
  0
3DFACE
  8
0
 10
102.394
 20
105.5355
 30
1.659172
 11
111.2368
 21
110.7991
 31
1.615805
 12
102.3296
 22
105.2194
 32
1.708809
 13
102.3296
 23
105.2194
 33
1.708809
  0
3DFACE
  8
0
 10
102.3296
 20
105.2194
 30
1.708809
 11
111.2368
 21
110.7991
 31
1.615805
 12
111.5609
 22
110.8248
 32
1.643919
 13
111.5609
 23
110.8248
 33
1.643919
  0
3DFACE
  8
0
 10
117.9374
 20
104.3333
 30
3.439399
 11
111.5609
 21
110.8248
 31
1.643919
 12
111.8687
 22
110.9324
 32
1.655823
 13
111.8687
 23
110.9324
 33
1.655823
  0
3DFACE
  8
0
 10
112.1393
 20
111.1148
 30
1.65071
 11
117.9374
 21
104.3333
 31
3.439399
 12
111.8687
 22
110.9324
 32
1.655823
 13
111.8687
 23
110.9324
 33
1.655823
  0
3DFACE
  8
0
 10
112.1393
 20
111.1148
 30
1.65071
 11
112.3541
 21
111.3594
 31
1.628926
 12
117.9374
 22
104.3333
 32
3.439399
 13
117.9374
 23
104.3333
 33
3.439399
  0
3DFACE
  8
0
 10
117.9374
 20
104.3333
 30
3.439399
 11
112.3541
 21
111.3594
 31
1.628926
 12
112.4986
 22
111.6497
 32
1.591955
 13
112.4986
 23
111.6497
 33
1.591955
  0
3DFACE
  8
0
 10
112.563
 20
111.9657
 30
1.542318
 11
117.9374
 21
104.3333
 31
3.439399
 12
112.4986
 22
111.6497
 32
1.591955
 13
112.4986
 23
111.6497
 33
1.591955
  0
3DFACE
  8
0
 10
112.563
 20
111.9657
 30
1.542318
 11
114.9746
 21
119.2611
 31
.4898915
 12
117.9374
 22
104.3333
 32
3.439399
 13
117.9374
 23
104.3333
 33
3.439399
  0
3DFACE
  8
0
 10
112.563
 20
111.9657
 30
1.542318
 11
112.5427
 21
112.286
 31
1.483397
 12
114.9746
 22
119.2611
 32
.4898915
 13
114.9746
 23
119.2611
 33
.4898915
  0
3DFACE
  8
0
 10
114.9746
 20
119.2611
 30
.4898915
 11
112.5427
 21
112.286
 31
1.483397
 12
112.4393
 22
112.5888
 32
1.419207
 13
112.4393
 23
112.5888
 33
1.419207
  0
3DFACE
  8
0
 10
112.2597
 20
112.8533
 30
1.354124
 11
114.9746
 21
119.2611
 31
.4898915
 12
112.4393
 22
112.5888
 32
1.419207
 13
112.4393
 23
112.5888
 33
1.419207
  0
3DFACE
  8
0
 10
112.2597
 20
112.8533
 30
1.354124
 11
112.0163
 21
113.0617
 31
1.292582
 12
114.9746
 22
119.2611
 32
.4898915
 13
114.9746
 23
119.2611
 33
.4898915
  0
3DFACE
  8
0
 10
114.9746
 20
119.2611
 30
.4898915
 11
112.0163
 21
113.0617
 31
1.292582
 12
111.7255
 22
113.1996
 32
1.238775
 13
111.7255
 23
113.1996
 33
1.238775
  0
3DFACE
  8
0
 10
111.4072
 20
113.2578
 30
1.196369
 11
114.9746
 21
119.2611
 31
.4898915
 12
111.7255
 22
113.1996
 32
1.238775
 13
111.7255
 23
113.1996
 33
1.238775
  0
3DFACE
  8
0
 10
111.4072
 20
113.2578
 30
1.196369
 11
111.0831
 21
113.2321
 31
1.168257
 12
114.9746
 22
119.2611
 32
.4898915
 13
114.9746
 23
119.2611
 33
.4898915
  0
3DFACE
  8
0
 10
114.9746
 20
119.2611
 30
.4898915
 11
111.0831
 21
113.2321
 31
1.168257
 12
110.7753
 22
113.1245
 32
1.156351
 13
110.7753
 23
113.1245
 33
1.156351
  0
3DFACE
  8
0
 10
110.5047
 20
112.9421
 30
1.161466
 11
114.9746
 21
119.2611
 31
.4898915
 12
110.7753
 22
113.1245
 32
1.156351
 13
110.7753
 23
113.1245
 33
1.156351
  0
3DFACE
  8
0
 10
110.5047
 20
112.9421
 30
1.161466
 11
100.6063
 21
106.6942
 31
1.273205
 12
114.9746
 22
119.2611
 32
.4898915
 13
114.9746
 23
119.2611
 33
.4898915
  0
3DFACE
  8
0
 10
110.5047
 20
112.9421
 30
1.161466
 11
110.2899
 21
112.6974
 31
1.183249
 12
100.6063
 22
106.6942
 32
1.273205
 13
100.6063
 23
106.6942
 33
1.273205
  0
3DFACE
  8
0
 10
100.6063
 20
106.6942
 30
1.273205
 11
110.2899
 21
112.6974
 31
1.183249
 12
100.9141
 22
106.8019
 32
1.28511
 13
100.9141
 23
106.8019
 33
1.28511
  0
3DFACE
  8
0
 10
100.9141
 20
106.8019
 30
1.28511
 11
110.2899
 21
112.6974
 31
1.183249
 12
110.1454
 22
112.4072
 32
1.22022
 13
110.1454
 23
112.4072
 33
1.22022
  0
3DFACE
  8
0
 10
101.2382
 20
106.8276
 30
1.313223
 11
110.1454
 21
112.4072
 31
1.22022
 12
110.081
 22
112.0912
 32
1.269857
 13
110.081
 23
112.0912
 33
1.269857
  0
3DFACE
  8
0
 10
110.1013
 20
111.7709
 30
1.328778
 11
101.2382
 21
106.8276
 31
1.313223
 12
110.081
 22
112.0912
 32
1.269857
 13
110.081
 23
112.0912
 33
1.269857
  0
3DFACE
  8
0
 10
110.1013
 20
111.7709
 30
1.328778
 11
101.5564
 21
106.7694
 31
1.355628
 12
101.2382
 22
106.8276
 32
1.313223
 13
101.2382
 23
106.8276
 33
1.313223
  0
3DFACE
  8
0
 10
102.3296
 20
105.2194
 30
1.708809
 11
111.5609
 21
110.8248
 31
1.643919
 12
117.9374
 22
104.3333
 32
3.439399
 13
117.9374
 23
104.3333
 33
3.439399
  0
3DFACE
  8
0
 10
102.1851
 20
104.9292
 30
1.745779
 11
117.9374
 21
104.3333
 31
3.439399
 12
101.9702
 22
104.6846
 32
1.767563
 13
101.9702
 23
104.6846
 33
1.767563
  0
3DFACE
  8
0
 10
102.1851
 20
104.9292
 30
1.745779
 11
102.3296
 21
105.2194
 31
1.708809
 12
117.9374
 22
104.3333
 32
3.439399
 13
117.9374
 23
104.3333
 33
3.439399
  0
3DFACE
  8
0
 10
100.9141
 20
106.8019
 30
1.28511
 11
110.1454
 21
112.4072
 31
1.22022
 12
101.2382
 22
106.8276
 32
1.313223
 13
101.2382
 23
106.8276
 33
1.313223
  0
3DFACE
  8
0
 10
99.91201
 20
105.661
 30
1.386711
 11
99.93224
 21
105.3407
 31
1.445632
 12
93.22643
 22
103.9915
 32
1.009278
 13
93.22643
 23
103.9915
 33
1.009278
  0
3DFACE
  8
0
 10
99.97634
 20
105.977
 30
1.337074
 11
93.22643
 21
103.9915
 31
1.009278
 12
100.1209
 22
106.2672
 32
1.300103
 13
100.1209
 23
106.2672
 33
1.300103
  0
3DFACE
  8
0
 10
99.97634
 20
105.977
 30
1.337074
 11
99.91201
 21
105.661
 31
1.386711
 12
93.22643
 22
103.9915
 32
1.009278
 13
93.22643
 23
103.9915
 33
1.009278
  0
3DFACE
  8
0
 10
99.93224
 20
105.3407
 30
1.445632
 11
100.0357
 21
105.0379
 31
1.509822
 12
93.22643
 22
103.9915
 32
1.009278
 13
93.22643
 23
103.9915
 33
1.009278
  0
3DFACE
  8
0
 10
93.22643
 20
103.9915
 30
1.009278
 11
100.0357
 21
105.0379
 31
1.509822
 12
100.2152
 22
104.7733
 32
1.574905
 13
100.2152
 23
104.7733
 33
1.574905
  0
3DFACE
  8
0
 10
100.4587
 20
104.565
 30
1.636448
 11
93.22643
 21
103.9915
 31
1.009278
 12
100.2152
 22
104.7733
 32
1.574905
 13
100.2152
 23
104.7733
 33
1.574905
  0
3DFACE
  8
0
 10
100.4587
 20
104.565
 30
1.636448
 11
91.72852
 21
102.723
 31
1.08356
 12
93.22643
 22
103.9915
 32
1.009278
 13
93.22643
 23
103.9915
 33
1.009278
  0
3DFACE
  8
0
 10
100.4587
 20
104.565
 30
1.636448
 11
100.7495
 21
104.427
 31
1.690254
 12
91.72852
 22
102.723
 32
1.08356
 13
91.72852
 23
102.723
 33
1.08356
  0
3DFACE
  8
0
 10
91.72852
 20
102.723
 30
1.08356
 11
100.7495
 21
104.427
 31
1.690254
 12
91.51366
 22
102.4783
 32
1.105344
 13
91.51366
 23
102.4783
 33
1.105344
  0
3DFACE
  8
0
 10
91.51366
 20
102.4783
 30
1.105344
 11
100.7495
 21
104.427
 31
1.690254
 12
101.0678
 22
104.3689
 32
1.732659
 13
101.0678
 23
104.3689
 33
1.732659
  0
3DFACE
  8
0
 10
91.24312
 20
102.296
 30
1.110458
 11
101.0678
 21
104.3689
 31
1.732659
 12
104.1368
 22
88.90652
 32
4.787799
 13
104.1368
 23
88.90652
 33
4.787799
  0
3DFACE
  8
0
 10
94.26622
 20
86.82391
 30
4.162694
 11
104.1368
 21
88.90652
 31
4.787799
 12
94.5845
 22
86.76579
 32
4.205099
 13
94.5845
 23
86.76579
 33
4.205099
  0
3DFACE
  8
0
 10
94.26622
 20
86.82391
 30
4.162694
 11
91.24312
 21
102.296
 31
1.110458
 12
104.1368
 22
88.90652
 32
4.787799
 13
104.1368
 23
88.90652
 33
4.787799
  0
3DFACE
  8
0
 10
94.26622
 20
86.82391
 30
4.162694
 11
90.93531
 21
102.1883
 31
1.098553
 12
91.24312
 22
102.296
 32
1.110458
 13
91.24312
 23
102.296
 33
1.110458
  0
3DFACE
  8
0
 10
94.26622
 20
86.82391
 30
4.162694
 11
93.94213
 21
86.79826
 31
4.134582
 12
90.93531
 22
102.1883
 32
1.098553
 13
90.93531
 23
102.1883
 33
1.098553
  0
3DFACE
  8
0
 10
90.93531
 20
102.1883
 30
1.098553
 11
93.94213
 21
86.79826
 31
4.134582
 12
78.93466
 22
95.51814
 32
1.073387
 13
78.93466
 23
95.51814
 33
1.073387
  0
3DFACE
  8
0
 10
90.61122
 20
102.1626
 30
1.07044
 11
78.93466
 21
95.51814
 31
1.073387
 12
90.29294
 22
102.2208
 32
1.028035
 13
90.29294
 23
102.2208
 33
1.028035
  0
3DFACE
  8
0
 10
90.61122
 20
102.1626
 30
1.07044
 11
90.93531
 21
102.1883
 31
1.098553
 12
78.93466
 22
95.51814
 32
1.073387
 13
78.93466
 23
95.51814
 33
1.073387
  0
3DFACE
  8
0
 10
104.1368
 20
88.90652
 30
4.787799
 11
101.0678
 21
104.3689
 31
1.732659
 12
104.4446
 22
89.01419
 32
4.799705
 13
104.4446
 23
89.01419
 33
4.799705
  0
3DFACE
  8
0
 10
104.4446
 20
89.01419
 30
4.799705
 11
101.0678
 21
104.3689
 31
1.732659
 12
101.3919
 22
104.3945
 32
1.760772
 13
101.3919
 23
104.3945
 33
1.760772
  0
3DFACE
  8
0
 10
104.7686
 20
89.03984
 30
4.827817
 11
101.3919
 21
104.3945
 31
1.760772
 12
101.6997
 22
104.5022
 32
1.772677
 13
101.6997
 23
104.5022
 33
1.772677
  0
3DFACE
  8
0
 10
117.9374
 20
104.3333
 30
3.439399
 11
101.6997
 21
104.5022
 31
1.772677
 12
101.9702
 22
104.6846
 32
1.767563
 13
101.9702
 23
104.6846
 33
1.767563
  0
3DFACE
  8
0
 10
117.9374
 20
104.3333
 30
3.439399
 11
104.7686
 21
89.03984
 31
4.827817
 12
101.6997
 22
104.5022
 32
1.772677
 13
101.6997
 23
104.5022
 33
1.772677
  0
3DFACE
  8
0
 10
117.9374
 20
104.3333
 30
3.439399
 11
119.6673
 21
95.61344
 31
5.162239
 12
104.7686
 22
89.03984
 32
4.827817
 13
104.7686
 23
89.03984
 33
4.827817
  0
3DFACE
  8
0
 10
117.9374
 20
104.3333
 30
3.439399
 11
129.2134
 21
102.1564
 31
4.962564
 12
119.6673
 22
95.61344
 32
5.162239
 13
119.6673
 23
95.61344
 33
5.162239
  0
3DFACE
  8
0
 10
117.9374
 20
104.3333
 30
3.439399
 11
128.3454
 21
106.5294
 31
4.098541
 12
129.2134
 22
102.1564
 32
4.962564
 13
129.2134
 23
102.1564
 33
4.962564
  0
3DFACE
  8
0
 10
104.4446
 20
89.01419
 30
4.799705
 11
101.3919
 21
104.3945
 31
1.760772
 12
104.7686
 22
89.03984
 32
4.827817
 13
104.7686
 23
89.03984
 33
4.827817
  0
3DFACE
  8
0
 10
114.9746
 20
119.2611
 30
.4898915
 11
100.6063
 21
106.6942
 31
1.273205
 12
93.22643
 22
103.9915
 32
1.009278
 13
93.22643
 23
103.9915
 33
1.009278
  0
3DFACE
  8
0
 10
93.22643
 20
103.9915
 30
1.009278
 11
100.6063
 21
106.6942
 31
1.273205
 12
100.3357
 22
106.5119
 32
1.278319
 13
100.3357
 23
106.5119
 33
1.278319
  0
3DFACE
  8
0
 10
100.1209
 20
106.2672
 30
1.300103
 11
93.22643
 21
103.9915
 31
1.009278
 12
100.3357
 22
106.5119
 32
1.278319
 13
100.3357
 23
106.5119
 33
1.278319
  0
3DFACE
  8
0
 10
89.45544
 20
103.4547
 30
.7244918
 11
89.47567
 21
103.1344
 31
.7834128
 12
78.93466
 22
95.51814
 32
1.073387
 13
78.93466
 23
95.51814
 33
1.073387
  0
3DFACE
  8
0
 10
89.51977
 20
103.7707
 30
.6748549
 11
78.93466
 21
95.51814
 31
1.073387
 12
89.66428
 22
104.061
 32
.6378839
 13
89.66428
 23
104.061
 33
.6378839
  0
3DFACE
  8
0
 10
89.51977
 20
103.7707
 30
.6748549
 11
89.45544
 21
103.4547
 31
.7244918
 12
78.93466
 22
95.51814
 32
1.073387
 13
78.93466
 23
95.51814
 33
1.073387
  0
3DFACE
  8
0
 10
89.47567
 20
103.1344
 30
.7834128
 11
89.5791
 21
102.8316
 31
.8476026
 12
78.93466
 22
95.51814
 32
1.073387
 13
78.93466
 23
95.51814
 33
1.073387
  0
3DFACE
  8
0
 10
78.93466
 20
95.51814
 30
1.073387
 11
89.5791
 21
102.8316
 31
.8476026
 12
89.75867
 22
102.5671
 32
.9126859
 13
89.75867
 23
102.5671
 33
.9126859
  0
3DFACE
  8
0
 10
90.00214
 20
102.3587
 30
.9742283
 11
78.93466
 21
95.51814
 31
1.073387
 12
89.75867
 22
102.5671
 32
.9126859
 13
89.75867
 23
102.5671
 33
.9126859
  0
3DFACE
  8
0
 10
90.00214
 20
102.3587
 30
.9742283
 11
90.29294
 21
102.2208
 31
1.028035
 12
78.93466
 22
95.51814
 32
1.073387
 13
78.93466
 23
95.51814
 33
1.073387
  0
3DFACE
  8
0
 10
91.24312
 20
102.296
 30
1.110458
 11
91.51366
 21
102.4783
 31
1.105344
 12
101.0678
 22
104.3689
 32
1.732659
 13
101.0678
 23
104.3689
 33
1.732659
  0
3DFACE
  8
0
 10
91.72852
 20
102.723
 30
1.08356
 11
91.87304
 21
103.0132
 31
1.04659
 12
93.22643
 22
103.9915
 32
1.009278
 13
93.22643
 23
103.9915
 33
1.009278
  0
3DFACE
  8
0
 10
93.22643
 20
103.9915
 30
1.009278
 11
91.87304
 21
103.0132
 31
1.04659
 12
91.93737
 22
103.3292
 32
.9969528
 13
91.93737
 23
103.3292
 33
.9969528
  0
3DFACE
  8
0
 10
91.91713
 20
103.6495
 30
.9380315
 11
93.22643
 21
103.9915
 31
1.009278
 12
91.93737
 22
103.3292
 32
.9969528
 13
91.93737
 23
103.3292
 33
.9969528
  0
3DFACE
  8
0
 10
91.91713
 20
103.6495
 30
.9380315
 11
91.81371
 21
103.9523
 31
.873842
 12
93.22643
 22
103.9915
 32
1.009278
 13
93.22643
 23
103.9915
 33
1.009278
  0
3DFACE
  8
0
 10
93.22643
 20
103.9915
 30
1.009278
 11
91.81371
 21
103.9523
 31
.873842
 12
91.63413
 22
104.2169
 32
.8087587
 13
91.63413
 23
104.2169
 33
.8087587
  0
3DFACE
  8
0
 10
91.39066
 20
104.4252
 30
.747216
 11
93.22643
 21
103.9915
 31
1.009278
 12
91.63413
 22
104.2169
 32
.8087587
 13
91.63413
 23
104.2169
 33
.8087587
  0
3DFACE
  8
0
 10
91.39066
 20
104.4252
 30
.747216
 11
92.21259
 21
109.0996
 31
2.664535E-15
 12
93.22643
 22
103.9915
 32
1.009278
 13
93.22643
 23
103.9915
 33
1.009278
  0
3DFACE
  8
0
 10
91.39066
 20
104.4252
 30
.747216
 11
91.09987
 21
104.5632
 31
.6934095
 12
92.21259
 22
109.0996
 32
2.664535E-15
 13
92.21259
 23
109.0996
 33
2.664535E-15
  0
3DFACE
  8
0
 10
92.21259
 20
109.0996
 30
2.664535E-15
 11
91.09987
 21
104.5632
 31
.6934095
 12
90.78159
 22
104.6213
 32
.6510038
 13
90.78159
 23
104.6213
 33
.6510038
  0
3DFACE
  8
0
 10
90.4575
 20
104.5956
 30
.6228912
 11
92.21259
 21
109.0996
 31
2.664535E-15
 12
90.78159
 22
104.6213
 32
.6510038
 13
90.78159
 23
104.6213
 33
.6510038
  0
3DFACE
  8
0
 10
90.4575
 20
104.5956
 30
.6228912
 11
90.14969
 21
104.488
 31
.6109853
 12
92.21259
 22
109.0996
 32
2.664535E-15
 13
92.21259
 23
109.0996
 33
2.664535E-15
  0
3DFACE
  8
0
 10
92.21259
 20
109.0996
 30
2.664535E-15
 11
90.14969
 21
104.488
 31
.6109853
 12
89.87914
 22
104.3056
 32
.6161001
 13
89.87914
 23
104.3056
 33
.6161001
  0
3DFACE
  8
0
 10
89.66428
 20
104.061
 30
.6378839
 11
92.21259
 21
109.0996
 31
2.664535E-15
 12
89.87914
 22
104.3056
 32
.6161001
 13
89.87914
 23
104.3056
 33
.6161001
  0
3DFACE
  8
0
 10
89.66428
 20
104.061
 30
.6378839
 11
78.93466
 21
95.51814
 31
1.073387
 12
92.21259
 22
109.0996
 32
2.664535E-15
 13
92.21259
 23
109.0996
 33
2.664535E-15
  0
3DFACE
  8
0
 10
74.60612
 20
95.7078
 30
.6033974
 11
74.62636
 21
95.38749
 31
.6623175
 12
66.39853
 22
90.11437
 32
.7693633
 13
66.39853
 23
90.11437
 33
.7693633
  0
3DFACE
  8
0
 10
66.07445
 20
90.08872
 30
.7412508
 11
74.60612
 21
95.7078
 31
.6033974
 12
66.39853
 22
90.11437
 32
.7693633
 13
66.39853
 23
90.11437
 33
.7693633
  0
3DFACE
  8
0
 10
66.07445
 20
90.08872
 30
.7412508
 11
74.67045
 21
96.02384
 31
.5537596
 12
74.60612
 22
95.7078
 32
.6033974
 13
74.60612
 23
95.7078
 33
.6033974
  0
3DFACE
  8
0
 10
66.07445
 20
90.08872
 30
.7412508
 11
74.81497
 21
96.31406
 31
.5167899
 12
74.67045
 22
96.02384
 32
.5537596
 13
74.67045
 23
96.02384
 33
.5537596
  0
3DFACE
  8
0
 10
66.07445
 20
90.08872
 30
.7412508
 11
65.76663
 21
89.98105
 31
.7293451
 12
74.81497
 22
96.31406
 32
.5167899
 13
74.81497
 23
96.31406
 33
.5167899
  0
3DFACE
  8
0
 10
74.81497
 20
96.31406
 30
.5167899
 11
65.76663
 21
89.98105
 31
.7293451
 12
75.02982
 22
96.55869
 32
.4950048
 13
75.02982
 23
96.55869
 33
.4950048
  0
3DFACE
  8
0
 10
75.02982
 20
96.55869
 30
.4950048
 11
65.76663
 21
89.98105
 31
.7293451
 12
77.93896
 22
100.5348
 32
.0821662
 13
77.93896
 23
100.5348
 33
.0821662
  0
3DFACE
  8
0
 10
75.30038
 20
96.74107
 30
.4898913
 11
77.93896
 21
100.5348
 31
.0821662
 12
75.60818
 22
96.84874
 32
.5017958
 13
75.60818
 23
96.84874
 33
.5017958
  0
3DFACE
  8
0
 10
75.30038
 20
96.74107
 30
.4898913
 11
75.02982
 21
96.55869
 31
.4950048
 12
77.93896
 22
100.5348
 32
.0821662
 13
77.93896
 23
100.5348
 33
.0821662
  0
3DFACE
  8
0
 10
74.90936
 20
94.82015
 30
.7915905
 11
66.71682
 21
90.05624
 31
.8117682
 12
74.72979
 22
95.08473
 32
.7265072
 13
74.72979
 23
95.08473
 33
.7265072
  0
3DFACE
  8
0
 10
74.90936
 20
94.82015
 30
.7915905
 11
75.15284
 21
94.61179
 31
.8531332
 12
66.71682
 22
90.05624
 32
.8117682
 13
66.71682
 23
90.05624
 33
.8117682
  0
3DFACE
  8
0
 10
66.71682
 20
90.05624
 30
.8117682
 11
75.15284
 21
94.61179
 31
.8531332
 12
67.00761
 22
89.9183
 32
.8655756
 13
67.00761
 23
89.9183
 33
.8655756
  0
3DFACE
  8
0
 10
67.00761
 20
89.9183
 30
.8655756
 11
75.15284
 21
94.61179
 31
.8531332
 12
75.44362
 22
94.47385
 32
.9069404
 13
75.44362
 23
94.47385
 33
.9069404
  0
3DFACE
  8
0
 10
67.25108
 20
89.70994
 30
.9271182
 11
75.44362
 21
94.47385
 31
.9069404
 12
67.43065
 22
89.44537
 32
.9922015
 13
67.43065
 23
89.44537
 33
.9922015
  0
3DFACE
  8
0
 10
67.25108
 20
89.70994
 30
.9271182
 11
67.00761
 21
89.9183
 31
.8655756
 12
75.44362
 22
94.47385
 32
.9069404
 13
75.44362
 23
94.47385
 33
.9069404
  0
3DFACE
  8
0
 10
75.44362
 20
94.47385
 30
.9069404
 11
75.76191
 21
94.41572
 31
.9493455
 12
67.43065
 22
89.44537
 32
.9922015
 13
67.43065
 23
89.44537
 33
.9922015
  0
3DFACE
  8
0
 10
67.43065
 20
89.44537
 30
.9922015
 11
75.76191
 21
94.41572
 31
.9493455
 12
67.53408
 22
89.1426
 32
1.056391
 13
67.53408
 23
89.1426
 33
1.056391
  0
3DFACE
  8
0
 10
67.53408
 20
89.1426
 30
1.056391
 11
75.76191
 21
94.41572
 31
.9493455
 12
77.03453
 22
87.88406
 32
2.237511
 13
77.03453
 23
87.88406
 33
2.237511
  0
3DFACE
  8
0
 10
67.55432
 20
88.82229
 30
1.115312
 11
77.03453
 21
87.88406
 31
2.237511
 12
76.76398
 22
87.70169
 32
2.242625
 13
76.76398
 23
87.70169
 33
2.242625
  0
3DFACE
  8
0
 10
67.48999
 20
88.50625
 30
1.164949
 11
76.76398
 21
87.70169
 31
2.242625
 12
76.54913
 22
87.45705
 32
2.264409
 13
76.54913
 23
87.45705
 33
2.264409
  0
3DFACE
  8
0
 10
67.34547
 20
88.21603
 30
1.20192
 11
76.54913
 21
87.45705
 31
2.264409
 12
76.40461
 22
87.16683
 32
2.30138
 13
76.40461
 23
87.16683
 33
2.30138
  0
3DFACE
  8
0
 10
67.13062
 20
87.9714
 30
1.223704
 11
76.40461
 21
87.16683
 31
2.30138
 12
76.34028
 22
86.85079
 32
2.351017
 13
76.34028
 23
86.85079
 33
2.351017
  0
3DFACE
  8
0
 10
66.86006
 20
87.78903
 30
1.228818
 11
76.34028
 21
86.85079
 31
2.351017
 12
76.36051
 22
86.53048
 32
2.409938
 13
76.36051
 23
86.53048
 33
2.409938
  0
3DFACE
  8
0
 10
76.46394
 20
86.22772
 30
2.474127
 11
66.86006
 21
87.78903
 31
1.228818
 12
76.36051
 22
86.53048
 32
2.409938
 13
76.36051
 23
86.53048
 33
2.409938
  0
3DFACE
  8
0
 10
76.46394
 20
86.22772
 30
2.474127
 11
66.55225
 21
87.68135
 31
1.216913
 12
66.86006
 22
87.78903
 32
1.228818
 13
66.86006
 23
87.78903
 33
1.228818
  0
3DFACE
  8
0
 10
76.46394
 20
86.22772
 30
2.474127
 11
76.64352
 21
85.96314
 31
2.539211
 12
66.55225
 22
87.68135
 32
1.216913
 13
66.55225
 23
87.68135
 33
1.216913
  0
3DFACE
  8
0
 10
66.55225
 20
87.68135
 30
1.216913
 11
76.64352
 21
85.96314
 31
2.539211
 12
76.88699
 22
85.75479
 32
2.600753
 13
76.88699
 23
85.75479
 33
2.600753
  0
3DFACE
  8
0
 10
66.22816
 20
87.65571
 30
1.188799
 11
76.88699
 21
85.75479
 31
2.600753
 12
77.17778
 22
85.61684
 32
2.65456
 13
77.17778
 23
85.61684
 33
2.65456
  0
3DFACE
  8
0
 10
81.43699
 20
82.90635
 30
3.565209
 11
77.17778
 21
85.61684
 31
2.65456
 12
77.49606
 22
85.55872
 32
2.696965
 13
77.49606
 23
85.55872
 33
2.696965
  0
3DFACE
  8
0
 10
77.82015
 20
85.58436
 30
2.725079
 11
81.43699
 21
82.90635
 31
3.565209
 12
77.49606
 22
85.55872
 32
2.696965
 13
77.49606
 23
85.55872
 33
2.696965
  0
3DFACE
  8
0
 10
77.82015
 20
85.58436
 30
2.725079
 11
78.12796
 21
85.69204
 31
2.736984
 12
81.43699
 22
82.90635
 32
3.565209
 13
81.43699
 23
82.90635
 33
3.565209
  0
3DFACE
  8
0
 10
81.43699
 20
82.90635
 30
3.565209
 11
78.12796
 21
85.69204
 31
2.736984
 12
78.39851
 22
85.8744
 32
2.73187
 13
78.39851
 23
85.8744
 33
2.73187
  0
3DFACE
  8
0
 10
78.61337
 20
86.11904
 30
2.710085
 11
81.43699
 21
82.90635
 31
3.565209
 12
78.39851
 22
85.8744
 32
2.73187
 13
78.39851
 23
85.8744
 33
2.73187
  0
3DFACE
  8
0
 10
78.61337
 20
86.11904
 30
2.710085
 11
80.44128
 21
87.92301
 31
2.573988
 12
81.43699
 22
82.90635
 32
3.565209
 13
81.43699
 23
82.90635
 33
3.565209
  0
3DFACE
  8
0
 10
78.61337
 20
86.11904
 30
2.710085
 11
78.75788
 21
86.40926
 31
2.673115
 12
80.44128
 22
87.92301
 32
2.573988
 13
80.44128
 23
87.92301
 33
2.573988
  0
3DFACE
  8
0
 10
80.44128
 20
87.92301
 30
2.573988
 11
78.75788
 21
86.40926
 31
2.673115
 12
78.82221
 22
86.7253
 32
2.623477
 13
78.82221
 23
86.7253
 33
2.623477
  0
3DFACE
  8
0
 10
78.80198
 20
87.04561
 30
2.564557
 11
80.44128
 21
87.92301
 31
2.573988
 12
78.82221
 22
86.7253
 32
2.623477
 13
78.82221
 23
86.7253
 33
2.623477
  0
3DFACE
  8
0
 10
78.80198
 20
87.04561
 30
2.564557
 11
78.69855
 21
87.34837
 31
2.500367
 12
80.44128
 22
87.92301
 32
2.573988
 13
80.44128
 23
87.92301
 33
2.573988
  0
3DFACE
  8
0
 10
80.44128
 20
87.92301
 30
2.573988
 11
78.69855
 21
87.34837
 31
2.500367
 12
78.51897
 22
87.61295
 32
2.435284
 13
78.51897
 23
87.61295
 33
2.435284
  0
3DFACE
  8
0
 10
78.2755
 20
87.8213
 30
2.373742
 11
80.44128
 21
87.92301
 31
2.573988
 12
78.51897
 22
87.61295
 32
2.435284
 13
78.51897
 23
87.61295
 33
2.435284
  0
3DFACE
  8
0
 10
78.2755
 20
87.8213
 30
2.373742
 11
77.98471
 21
87.95925
 31
2.319934
 12
80.44128
 22
87.92301
 32
2.573988
 13
80.44128
 23
87.92301
 33
2.573988
  0
3DFACE
  8
0
 10
80.44128
 20
87.92301
 30
2.573988
 11
77.98471
 21
87.95925
 31
2.319934
 12
77.66643
 22
88.01738
 32
2.277529
 13
77.66643
 23
88.01738
 33
2.277529
  0
3DFACE
  8
0
 10
78.93466
 20
95.51814
 30
1.073387
 11
77.66643
 21
88.01738
 31
2.277529
 12
76.39381
 22
94.54904
 32
.9893636
 13
76.39381
 23
94.54904
 33
.9893636
  0
3DFACE
  8
0
 10
76.66435
 20
94.73141
 30
.9842497
 11
78.93466
 21
95.51814
 31
1.073387
 12
76.39381
 22
94.54904
 32
.9893636
 13
76.39381
 23
94.54904
 33
.9893636
  0
3DFACE
  8
0
 10
76.66435
 20
94.73141
 30
.9842497
 11
76.87921
 21
94.97604
 31
.962465
 12
78.93466
 22
95.51814
 32
1.073387
 13
78.93466
 23
95.51814
 33
1.073387
  0
3DFACE
  8
0
 10
78.93466
 20
95.51814
 30
1.073387
 11
76.87921
 21
94.97604
 31
.962465
 12
77.02373
 22
95.26627
 32
.9254944
 13
77.02373
 23
95.26627
 33
.9254944
  0
3DFACE
  8
0
 10
77.08806
 20
95.58231
 30
.8758575
 11
78.93466
 21
95.51814
 31
1.073387
 12
77.02373
 22
95.26627
 32
.9254944
 13
77.02373
 23
95.26627
 33
.9254944
  0
3DFACE
  8
0
 10
77.08806
 20
95.58231
 30
.8758575
 11
77.06782
 21
95.90262
 31
.8169361
 12
78.93466
 22
95.51814
 32
1.073387
 13
78.93466
 23
95.51814
 33
1.073387
  0
3DFACE
  8
0
 10
78.93466
 20
95.51814
 30
1.073387
 11
77.06782
 21
95.90262
 31
.8169361
 12
76.96439
 22
96.20538
 32
.7527476
 13
76.96439
 23
96.20538
 33
.7527476
  0
3DFACE
  8
0
 10
76.78482
 20
96.46996
 30
.6876634
 11
78.93466
 21
95.51814
 31
1.073387
 12
76.96439
 22
96.20538
 32
.7527476
 13
76.96439
 23
96.20538
 33
.7527476
  0
3DFACE
  8
0
 10
76.78482
 20
96.46996
 30
.6876634
 11
77.93896
 21
100.5348
 31
.0821662
 12
78.93466
 22
95.51814
 32
1.073387
 13
78.93466
 23
95.51814
 33
1.073387
  0
3DFACE
  8
0
 10
76.78482
 20
96.46996
 30
.6876634
 11
76.54134
 21
96.67831
 31
.6261216
 12
77.93896
 22
100.5348
 32
.0821662
 13
77.93896
 23
100.5348
 33
.0821662
  0
3DFACE
  8
0
 10
77.93896
 20
100.5348
 30
.0821662
 11
76.54134
 21
96.67831
 31
.6261216
 12
76.25056
 22
96.81626
 32
.5723141
 13
76.25056
 23
96.81626
 33
.5723141
  0
3DFACE
  8
0
 10
75.93227
 20
96.87439
 30
.5299094
 11
77.93896
 21
100.5348
 31
.0821662
 12
76.25056
 22
96.81626
 32
.5723141
 13
76.25056
 23
96.81626
 33
.5723141
  0
3DFACE
  8
0
 10
75.93227
 20
96.87439
 30
.5299094
 11
75.60818
 21
96.84874
 31
.5017958
 12
77.93896
 22
100.5348
 32
.0821662
 13
77.93896
 23
100.5348
 33
.0821662
  0
3DFACE
  8
0
 10
77.03453
 20
87.88406
 30
2.237511
 11
75.76191
 21
94.41572
 31
.9493455
 12
77.34234
 22
87.99173
 32
2.249417
 13
77.34234
 23
87.99173
 33
2.249417
  0
3DFACE
  8
0
 10
77.34234
 20
87.99173
 30
2.249417
 11
75.76191
 21
94.41572
 31
.9493455
 12
76.08599
 22
94.44137
 32
.9774578
 13
76.08599
 23
94.44137
 33
.9774578
  0
3DFACE
  8
0
 10
77.66643
 20
88.01738
 30
2.277529
 11
76.08599
 21
94.44137
 31
.9774578
 12
76.39381
 22
94.54904
 32
.9893636
 13
76.39381
 23
94.54904
 33
.9893636
  0
3DFACE
  8
0
 10
77.66643
 20
88.01738
 30
2.277529
 11
77.34234
 21
87.99173
 31
2.249417
 12
76.08599
 22
94.44137
 32
.9774578
 13
76.08599
 23
94.44137
 33
.9774578
  0
3DFACE
  8
0
 10
103.4425
 20
87.87325
 30
4.901305
 11
103.4627
 21
87.55294
 31
4.960226
 12
96.81253
 22
85.9193
 32
4.579997
 13
96.81253
 23
85.9193
 33
4.579997
  0
3DFACE
  8
0
 10
103.5068
 20
88.18929
 30
4.851668
 11
96.81253
 21
85.9193
 31
4.579997
 12
103.6514
 22
88.47952
 32
4.814698
 13
103.6514
 23
88.47952
 33
4.814698
  0
3DFACE
  8
0
 10
103.5068
 20
88.18929
 30
4.851668
 11
103.4425
 21
87.87325
 31
4.901305
 12
96.81253
 22
85.9193
 32
4.579997
 13
96.81253
 23
85.9193
 33
4.579997
  0
3DFACE
  8
0
 10
103.4627
 20
87.55294
 30
4.960226
 11
103.5662
 21
87.25018
 31
5.024416
 12
96.81253
 22
85.9193
 32
4.579997
 13
96.81253
 23
85.9193
 33
4.579997
  0
3DFACE
  8
0
 10
96.81253
 20
85.9193
 30
4.579997
 11
103.5662
 21
87.25018
 31
5.024416
 12
103.7457
 22
86.9856
 32
5.089499
 13
103.7457
 23
86.9856
 33
5.089499
  0
3DFACE
  8
0
 10
103.9892
 20
86.77724
 30
5.151042
 11
96.81253
 21
85.9193
 31
4.579997
 12
103.7457
 22
86.9856
 32
5.089499
 13
103.7457
 23
86.9856
 33
5.089499
  0
3DFACE
  8
0
 10
103.9892
 20
86.77724
 30
5.151042
 11
104.28
 21
86.6393
 31
5.204848
 12
96.81253
 22
85.9193
 32
4.579997
 13
96.81253
 23
85.9193
 33
4.579997
  0
3DFACE
  8
0
 10
96.81253
 20
85.9193
 30
4.579997
 11
104.28
 21
86.6393
 31
5.204848
 12
104.5983
 22
86.58118
 32
5.247253
 13
104.5983
 23
86.58118
 33
5.247253
  0
3DFACE
  8
0
 10
122.6301
 20
80.68571
 30
8.111741
 11
104.5983
 21
86.58118
 31
5.247253
 12
116.1126
 22
84.68771
 32
6.744118
 13
116.1126
 23
84.68771
 33
6.744118
  0
3DFACE
  8
0
 10
116.4309
 20
84.62959
 30
6.786523
 11
122.6301
 21
80.68571
 31
8.111741
 12
116.1126
 22
84.68771
 32
6.744118
 13
116.1126
 23
84.68771
 33
6.744118
  0
3DFACE
  8
0
 10
116.4309
 20
84.62959
 30
6.786523
 11
116.755
 21
84.65524
 31
6.814636
 12
122.6301
 22
80.68571
 32
8.111741
 13
122.6301
 23
80.68571
 33
8.111741
  0
3DFACE
  8
0
 10
122.6301
 20
80.68571
 30
8.111741
 11
116.755
 21
84.65524
 31
6.814636
 12
117.0628
 22
84.76291
 32
6.826541
 13
117.0628
 23
84.76291
 33
6.826541
  0
3DFACE
  8
0
 10
117.3334
 20
84.94528
 30
6.821428
 11
122.6301
 21
80.68571
 31
8.111741
 12
117.0628
 22
84.76291
 32
6.826541
 13
117.0628
 23
84.76291
 33
6.826541
  0
3DFACE
  8
0
 10
117.3334
 20
84.94528
 30
6.821428
 11
117.5482
 21
85.18991
 31
6.799644
 12
122.6301
 22
80.68571
 32
8.111741
 13
122.6301
 23
80.68571
 33
8.111741
  0
3DFACE
  8
0
 10
122.6301
 20
80.68571
 30
8.111741
 11
117.5482
 21
85.18991
 31
6.799644
 12
117.6927
 22
85.48013
 32
6.762672
 13
117.6927
 23
85.48013
 33
6.762672
  0
3DFACE
  8
0
 10
117.7571
 20
85.79617
 30
6.713036
 11
122.6301
 21
80.68571
 31
8.111741
 12
117.6927
 22
85.48013
 32
6.762672
 13
117.6927
 23
85.48013
 33
6.762672
  0
3DFACE
  8
0
 10
117.7571
 20
85.79617
 30
6.713036
 11
117.7368
 21
86.11649
 31
6.654115
 12
122.6301
 22
80.68571
 32
8.111741
 13
122.6301
 23
80.68571
 33
8.111741
  0
3DFACE
  8
0
 10
122.6301
 20
80.68571
 30
8.111741
 11
117.7368
 21
86.11649
 31
6.654115
 12
117.6334
 22
86.41924
 32
6.589925
 13
117.6334
 23
86.41924
 33
6.589925
  0
3DFACE
  8
0
 10
119.6673
 20
95.61344
 30
5.162239
 11
117.6334
 21
86.41924
 31
6.589925
 12
117.4538
 22
86.68382
 32
6.524842
 13
117.4538
 23
86.68382
 33
6.524842
  0
3DFACE
  8
0
 10
117.2104
 20
86.89218
 30
6.4633
 11
119.6673
 21
95.61344
 31
5.162239
 12
117.4538
 22
86.68382
 32
6.524842
 13
117.4538
 23
86.68382
 33
6.524842
  0
3DFACE
  8
0
 10
117.2104
 20
86.89218
 30
6.4633
 11
116.9196
 21
87.03013
 31
6.409492
 12
119.6673
 22
95.61344
 32
5.162239
 13
119.6673
 23
95.61344
 33
5.162239
  0
3DFACE
  8
0
 10
119.6673
 20
95.61344
 30
5.162239
 11
116.9196
 21
87.03013
 31
6.409492
 12
116.6013
 22
87.08826
 32
6.367087
 13
116.6013
 23
87.08826
 33
6.367087
  0
3DFACE
  8
0
 10
116.2772
 20
87.06261
 30
6.338974
 11
119.6673
 21
95.61344
 31
5.162239
 12
116.6013
 22
87.08826
 32
6.367087
 13
116.6013
 23
87.08826
 33
6.367087
  0
3DFACE
  8
0
 10
116.2772
 20
87.06261
 30
6.338974
 11
105.6212
 21
88.63541
 31
4.985572
 12
119.6673
 22
95.61344
 32
5.162239
 13
119.6673
 23
95.61344
 33
5.162239
  0
3DFACE
  8
0
 10
116.2772
 20
87.06261
 30
6.338974
 11
105.8008
 21
88.37083
 31
5.050655
 12
105.6212
 22
88.63541
 32
4.985572
 13
105.6212
 23
88.63541
 33
4.985572
  0
3DFACE
  8
0
 10
116.2772
 20
87.06261
 30
6.338974
 11
115.9694
 21
86.95493
 31
6.327069
 12
105.8008
 22
88.37083
 32
5.050655
 13
105.8008
 23
88.37083
 33
5.050655
  0
3DFACE
  8
0
 10
105.8008
 20
88.37083
 30
5.050655
 11
115.9694
 21
86.95493
 31
6.327069
 12
105.9042
 22
88.06807
 32
5.114845
 13
105.9042
 23
88.06807
 33
5.114845
  0
3DFACE
  8
0
 10
105.9042
 20
88.06807
 30
5.114845
 11
115.9694
 21
86.95493
 31
6.327069
 12
105.9244
 22
87.74776
 32
5.173766
 13
105.9244
 23
87.74776
 33
5.173766
  0
3DFACE
  8
0
 10
105.9244
 20
87.74776
 30
5.173766
 11
115.9694
 21
86.95493
 31
6.327069
 12
115.6988
 22
86.77256
 32
6.332183
 13
115.6988
 23
86.77256
 33
6.332183
  0
3DFACE
  8
0
 10
105.8601
 20
87.43172
 30
5.223403
 11
115.6988
 21
86.77256
 31
6.332183
 12
115.484
 22
86.52793
 32
6.353967
 13
115.484
 23
86.52793
 33
6.353967
  0
3DFACE
  8
0
 10
105.7156
 20
87.14149
 30
5.260374
 11
115.484
 21
86.52793
 31
6.353967
 12
115.3395
 22
86.23771
 32
6.390938
 13
115.3395
 23
86.23771
 33
6.390938
  0
3DFACE
  8
0
 10
105.5007
 20
86.89687
 30
5.282157
 11
115.3395
 21
86.23771
 31
6.390938
 12
115.2751
 22
85.92167
 32
6.440575
 13
115.2751
 23
85.92167
 33
6.440575
  0
3DFACE
  8
0
 10
105.2302
 20
86.7145
 30
5.287271
 11
115.2751
 21
85.92167
 31
6.440575
 12
115.2954
 22
85.60136
 32
6.499496
 13
115.2954
 23
85.60136
 33
6.499496
  0
3DFACE
  8
0
 10
115.3988
 20
85.29859
 30
6.563685
 11
105.2302
 21
86.7145
 31
5.287271
 12
115.2954
 22
85.60136
 32
6.499496
 13
115.2954
 23
85.60136
 33
6.499496
  0
3DFACE
  8
0
 10
115.3988
 20
85.29859
 30
6.563685
 11
104.9224
 21
86.60682
 31
5.275366
 12
105.2302
 22
86.7145
 32
5.287271
 13
105.2302
 23
86.7145
 33
5.287271
  0
3DFACE
  8
0
 10
115.3988
 20
85.29859
 30
6.563685
 11
115.5784
 21
85.03402
 31
6.628769
 12
104.9224
 22
86.60682
 32
5.275366
 13
104.9224
 23
86.60682
 33
5.275366
  0
3DFACE
  8
0
 10
104.9224
 20
86.60682
 30
5.275366
 11
115.5784
 21
85.03402
 31
6.628769
 12
115.8219
 22
84.82566
 32
6.690311
 13
115.8219
 23
84.82566
 33
6.690311
  0
3DFACE
  8
0
 10
104.5983
 20
86.58118
 30
5.247253
 11
115.8219
 21
84.82566
 31
6.690311
 12
116.1126
 22
84.68771
 32
6.744118
 13
116.1126
 23
84.68771
 33
6.744118
  0
3DFACE
  8
0
 10
104.5983
 20
86.58118
 30
5.247253
 11
104.9224
 21
86.60682
 31
5.275366
 12
115.8219
 22
84.82566
 32
6.690311
 13
115.8219
 23
84.82566
 33
6.690311
  0
3DFACE
  8
0
 10
105.2302
 20
86.7145
 30
5.287271
 11
105.5007
 21
86.89687
 31
5.282157
 12
115.2751
 22
85.92167
 32
6.440575
 13
115.2751
 23
85.92167
 33
6.440575
  0
3DFACE
  8
0
 10
105.5007
 20
86.89687
 30
5.282157
 11
105.7156
 21
87.14149
 31
5.260374
 12
115.3395
 22
86.23771
 32
6.390938
 13
115.3395
 23
86.23771
 33
6.390938
  0
3DFACE
  8
0
 10
105.7156
 20
87.14149
 30
5.260374
 11
105.8601
 21
87.43172
 31
5.223403
 12
115.484
 22
86.52793
 32
6.353967
 13
115.484
 23
86.52793
 33
6.353967
  0
3DFACE
  8
0
 10
105.8601
 20
87.43172
 30
5.223403
 11
105.9244
 21
87.74776
 31
5.173766
 12
115.6988
 22
86.77256
 32
6.332183
 13
115.6988
 23
86.77256
 33
6.332183
  0
3DFACE
  8
0
 10
105.6212
 20
88.63541
 30
4.985572
 11
105.3777
 21
88.84377
 31
4.924029
 12
119.6673
 22
95.61344
 32
5.162239
 13
119.6673
 23
95.61344
 33
5.162239
  0
3DFACE
  8
0
 10
119.6673
 20
95.61344
 30
5.162239
 11
105.3777
 21
88.84377
 31
4.924029
 12
105.0869
 22
88.98171
 32
4.870222
 13
105.0869
 23
88.98171
 33
4.870222
  0
3DFACE
  8
0
 10
104.7686
 20
89.03984
 30
4.827817
 11
119.6673
 21
95.61344
 31
5.162239
 12
105.0869
 22
88.98171
 32
4.870222
 13
105.0869
 23
88.98171
 33
4.870222
  0
3DFACE
  8
0
 10
104.1368
 20
88.90652
 30
4.787799
 11
103.8662
 21
88.72414
 31
4.792912
 12
94.5845
 22
86.76579
 32
4.205099
 13
94.5845
 23
86.76579
 33
4.205099
  0
3DFACE
  8
0
 10
94.5845
 20
86.76579
 30
4.205099
 11
103.8662
 21
88.72414
 31
4.792912
 12
103.6514
 22
88.47952
 32
4.814698
 13
103.6514
 23
88.47952
 33
4.814698
  0
3DFACE
  8
0
 10
94.87529
 20
86.62784
 30
4.258906
 11
103.6514
 21
88.47952
 31
4.814698
 12
96.81253
 22
85.9193
 32
4.579997
 13
96.81253
 23
85.9193
 33
4.579997
  0
3DFACE
  8
0
 10
95.11877
 20
86.41947
 30
4.320449
 11
96.81253
 21
85.9193
 31
4.579997
 12
95.29834
 22
86.1549
 32
4.385532
 13
95.29834
 23
86.1549
 33
4.385532
  0
3DFACE
  8
0
 10
95.11877
 20
86.41947
 30
4.320449
 11
94.87529
 21
86.62784
 31
4.258906
 12
96.81253
 22
85.9193
 32
4.579997
 13
96.81253
 23
85.9193
 33
4.579997
  0
3DFACE
  8
0
 10
122.6301
 20
80.68571
 30
8.111741
 11
117.6334
 21
86.41924
 31
6.589925
 12
119.6673
 22
95.61344
 32
5.162239
 13
119.6673
 23
95.61344
 33
5.162239
  0
3DFACE
  8
0
 10
92.94006
 20
85.65733
 30
4.236182
 11
92.9603
 21
85.33701
 31
4.295104
 12
80.44128
 22
87.92301
 32
2.573988
 13
80.44128
 23
87.92301
 33
2.573988
  0
3DFACE
  8
0
 10
93.0044
 20
85.97336
 30
4.186545
 11
80.44128
 21
87.92301
 31
2.573988
 12
93.14892
 22
86.26359
 32
4.149575
 13
93.14892
 23
86.26359
 33
4.149575
  0
3DFACE
  8
0
 10
93.0044
 20
85.97336
 30
4.186545
 11
92.94006
 21
85.65733
 31
4.236182
 12
80.44128
 22
87.92301
 32
2.573988
 13
80.44128
 23
87.92301
 33
2.573988
  0
3DFACE
  8
0
 10
92.9603
 20
85.33701
 30
4.295104
 11
93.06374
 21
85.03425
 31
4.359293
 12
80.44128
 22
87.92301
 32
2.573988
 13
80.44128
 23
87.92301
 33
2.573988
  0
3DFACE
  8
0
 10
80.44128
 20
87.92301
 30
2.573988
 11
93.06374
 21
85.03425
 31
4.359293
 12
93.2433
 22
84.76968
 32
4.424376
 13
93.2433
 23
84.76968
 33
4.424376
  0
3DFACE
  8
0
 10
93.48679
 20
84.56131
 30
4.485919
 11
80.44128
 21
87.92301
 31
2.573988
 12
93.2433
 22
84.76968
 32
4.424376
 13
93.2433
 23
84.76968
 33
4.424376
  0
3DFACE
  8
0
 10
93.48679
 20
84.56131
 30
4.485919
 11
97.82637
 21
80.81125
 31
5.589275
 12
80.44128
 22
87.92301
 32
2.573988
 13
80.44128
 23
87.92301
 33
2.573988
  0
3DFACE
  8
0
 10
93.48679
 20
84.56131
 30
4.485919
 11
93.77757
 21
84.42337
 31
4.539725
 12
97.82637
 22
80.81125
 32
5.589275
 13
97.82637
 23
80.81125
 33
5.589275
  0
3DFACE
  8
0
 10
97.82637
 20
80.81125
 30
5.589275
 11
93.77757
 21
84.42337
 31
4.539725
 12
94.09586
 22
84.36524
 32
4.58213
 13
94.09586
 23
84.36524
 33
4.58213
  0
3DFACE
  8
0
 10
94.41994
 20
84.39089
 30
4.610244
 11
97.82637
 21
80.81125
 31
5.589275
 12
94.09586
 22
84.36524
 32
4.58213
 13
94.09586
 23
84.36524
 33
4.58213
  0
3DFACE
  8
0
 10
94.41994
 20
84.39089
 30
4.610244
 11
94.72775
 21
84.49857
 31
4.622149
 12
97.82637
 22
80.81125
 32
5.589275
 13
97.82637
 23
80.81125
 33
5.589275
  0
3DFACE
  8
0
 10
97.82637
 20
80.81125
 30
5.589275
 11
94.72775
 21
84.49857
 31
4.622149
 12
94.99831
 22
84.68094
 32
4.617035
 13
94.99831
 23
84.68094
 33
4.617035
  0
3DFACE
  8
0
 10
96.81253
 20
85.9193
 30
4.579997
 11
94.99831
 21
84.68094
 31
4.617035
 12
95.21316
 22
84.92556
 32
4.595251
 13
95.21316
 23
84.92556
 33
4.595251
  0
3DFACE
  8
0
 10
95.35767
 20
85.21579
 30
4.55828
 11
96.81253
 21
85.9193
 31
4.579997
 12
95.21316
 22
84.92556
 32
4.595251
 13
95.21316
 23
84.92556
 33
4.595251
  0
3DFACE
  8
0
 10
95.35767
 20
85.21579
 30
4.55828
 11
95.422
 21
85.53182
 31
4.508643
 12
96.81253
 22
85.9193
 32
4.579997
 13
96.81253
 23
85.9193
 33
4.579997
  0
3DFACE
  8
0
 10
96.81253
 20
85.9193
 30
4.579997
 11
95.422
 21
85.53182
 31
4.508643
 12
95.40177
 22
85.85214
 32
4.449722
 13
95.40177
 23
85.85214
 33
4.449722
  0
3DFACE
  8
0
 10
95.29834
 20
86.1549
 30
4.385532
 11
96.81253
 21
85.9193
 31
4.579997
 12
95.40177
 22
85.85214
 32
4.449722
 13
95.40177
 23
85.85214
 33
4.449722
  0
3DFACE
  8
0
 10
97.82637
 20
80.81125
 30
5.589275
 11
94.99831
 21
84.68094
 31
4.617035
 12
96.81253
 22
85.9193
 32
4.579997
 13
96.81253
 23
85.9193
 33
4.579997
  0
3DFACE
  8
0
 10
94.87529
 20
86.62784
 30
4.258906
 11
94.5845
 21
86.76579
 31
4.205099
 12
103.6514
 22
88.47952
 32
4.814698
 13
103.6514
 23
88.47952
 33
4.814698
  0
3DFACE
  8
0
 10
78.93466
 20
95.51814
 30
1.073387
 11
93.94213
 21
86.79826
 31
4.134582
 12
80.44128
 22
87.92301
 32
2.573988
 13
80.44128
 23
87.92301
 33
2.573988
  0
3DFACE
  8
0
 10
77.66643
 20
88.01738
 30
2.277529
 11
78.93466
 21
95.51814
 31
1.073387
 12
80.44128
 22
87.92301
 32
2.573988
 13
80.44128
 23
87.92301
 33
2.573988
  0
3DFACE
  8
0
 10
93.94213
 20
86.79826
 30
4.134582
 11
93.63432
 21
86.69058
 31
4.122676
 12
80.44128
 22
87.92301
 32
2.573988
 13
80.44128
 23
87.92301
 33
2.573988
  0
3DFACE
  8
0
 10
80.44128
 20
87.92301
 30
2.573988
 11
93.63432
 21
86.69058
 31
4.122676
 12
93.36378
 22
86.50822
 32
4.12779
 13
93.36378
 23
86.50822
 33
4.12779
  0
3DFACE
  8
0
 10
93.14892
 20
86.26359
 30
4.149575
 11
80.44128
 21
87.92301
 31
2.573988
 12
93.36378
 22
86.50822
 32
4.12779
 13
93.36378
 23
86.50822
 33
4.12779
  0
3DFACE
  8
0
 10
66.55225
 20
87.68135
 30
1.216913
 11
76.88699
 21
85.75479
 31
2.600753
 12
66.22816
 22
87.65571
 32
1.188799
 13
66.22816
 23
87.65571
 33
1.188799
  0
3DFACE
  8
0
 10
66.22816
 20
87.65571
 30
1.188799
 11
77.17778
 21
85.61684
 31
2.65456
 12
81.43699
 22
82.90635
 32
3.565209
 13
81.43699
 23
82.90635
 33
3.565209
  0
3DFACE
  8
0
 10
60.87003
 20
87.5852
 30
.6612298
 11
66.22816
 21
87.65571
 31
1.188799
 12
81.43699
 22
82.90635
 32
3.565209
 13
81.43699
 23
82.90635
 33
3.565209
  0
3DFACE
  8
0
 10
60.87003
 20
87.5852
 30
.6612298
 11
65.90988
 21
87.71384
 31
1.146394
 12
66.22816
 22
87.65571
 32
1.188799
 13
66.22816
 23
87.65571
 33
1.188799
  0
3DFACE
  8
0
 10
60.87003
 20
87.5852
 30
.6612298
 11
65.61909
 21
87.85178
 31
1.092588
 12
65.90988
 22
87.71384
 32
1.146394
 13
65.90988
 23
87.71384
 33
1.146394
  0
3DFACE
  8
0
 10
60.87003
 20
87.5852
 30
.6612298
 11
65.37562
 21
88.06013
 31
1.031045
 12
65.61909
 22
87.85178
 32
1.092588
 13
65.61909
 23
87.85178
 33
1.092588
  0
3DFACE
  8
0
 10
60.87003
 20
87.5852
 30
.6612298
 11
65.19604
 21
88.32471
 31
.9659621
 12
65.37562
 22
88.06013
 32
1.031045
 13
65.37562
 23
88.06013
 33
1.031045
  0
3DFACE
  8
0
 10
60.87003
 20
87.5852
 30
.6612298
 11
65.09262
 21
88.62747
 31
.9017724
 12
65.19604
 22
88.32471
 32
.9659621
 13
65.19604
 23
88.32471
 33
.9659621
  0
3DFACE
  8
0
 10
60.87003
 20
87.5852
 30
.6612298
 11
60.808
 21
87.90199
 31
.5987214
 12
65.09262
 22
88.62747
 32
.9017724
 13
65.09262
 23
88.62747
 33
.9017724
  0
3DFACE
  8
0
 10
65.09262
 20
88.62747
 30
.9017724
 11
60.808
 21
87.90199
 31
.5987214
 12
65.07238
 22
88.94778
 32
.8428513
 13
65.07238
 23
88.94778
 33
.8428513
  0
3DFACE
  8
0
 10
65.07238
 20
88.94778
 30
.8428513
 11
60.808
 21
87.90199
 31
.5987214
 12
65.13671
 22
89.26382
 32
.7932144
 13
65.13671
 23
89.26382
 33
.7932144
  0
3DFACE
  8
0
 10
65.13671
 20
89.26382
 30
.7932144
 11
60.808
 21
87.90199
 31
.5987214
 12
65.28123
 22
89.55405
 32
.7562436
 13
65.28123
 23
89.55405
 33
.7562436
  0
3DFACE
  8
0
 10
65.28123
 20
89.55405
 30
.7562436
 11
60.808
 21
87.90199
 31
.5987214
 12
65.49609
 22
89.79868
 32
.7344589
 13
65.49609
 23
89.79868
 33
.7344589
  0
3DFACE
  8
0
 10
65.49609
 20
89.79868
 30
.7344589
 11
60.808
 21
87.90199
 31
.5987214
 12
65.76663
 22
89.98105
 32
.7293451
 13
65.76663
 23
89.98105
 33
.7293451
  0
3DFACE
  8
0
 10
65.76663
 20
89.98105
 30
.7293451
 11
60.808
 21
87.90199
 31
.5987214
 12
77.93896
 22
100.5348
 32
.0821662
 13
77.93896
 23
100.5348
 33
.0821662
  0
3DFACE
  8
0
 10
67.53408
 20
89.1426
 30
1.056391
 11
77.03453
 21
87.88406
 31
2.237511
 12
67.55432
 22
88.82229
 32
1.115312
 13
67.55432
 23
88.82229
 33
1.115312
  0
3DFACE
  8
0
 10
67.55432
 20
88.82229
 30
1.115312
 11
76.76398
 21
87.70169
 31
2.242625
 12
67.48999
 22
88.50625
 32
1.164949
 13
67.48999
 23
88.50625
 33
1.164949
  0
3DFACE
  8
0
 10
67.48999
 20
88.50625
 30
1.164949
 11
76.54913
 21
87.45705
 31
2.264409
 12
67.34547
 22
88.21603
 32
1.20192
 13
67.34547
 23
88.21603
 33
1.20192
  0
3DFACE
  8
0
 10
67.34547
 20
88.21603
 30
1.20192
 11
76.40461
 21
87.16683
 31
2.30138
 12
67.13062
 22
87.9714
 32
1.223704
 13
67.13062
 23
87.9714
 33
1.223704
  0
3DFACE
  8
0
 10
67.13062
 20
87.9714
 30
1.223704
 11
76.34028
 21
86.85079
 31
2.351017
 12
66.86006
 22
87.78903
 32
1.228818
 13
66.86006
 23
87.78903
 33
1.228818
  0
3DFACE
  8
0
 10
66.71682
 20
90.05624
 30
.8117682
 11
66.39853
 21
90.11437
 31
.7693633
 12
74.72979
 22
95.08473
 32
.7265072
 13
74.72979
 23
95.08473
 33
.7265072
  0
3DFACE
  8
0
 10
74.72979
 20
95.08473
 30
.7265072
 11
66.39853
 21
90.11437
 31
.7693633
 12
74.62636
 22
95.38749
 32
.6623175
 13
74.62636
 23
95.38749
 33
.6623175
  0
3DFACE
  8
0
 10
129.2134
 20
102.1564
 30
4.962564
 11
130.07
 21
97.78118
 31
5.825869
 12
119.6673
 22
95.61344
 32
5.162239
 13
119.6673
 23
95.61344
 33
5.162239
  0
3DFACE
  8
0
 10
122.6301
 20
80.68571
 30
8.111741
 11
96.81253
 21
85.9193
 31
4.579997
 12
104.5983
 22
86.58118
 32
5.247253
 13
104.5983
 23
86.58118
 33
5.247253
  0
3DFACE
  8
0
 10
110.0317
 20
112.1782
 30
1.759748
 11
101.1888
 21
106.9146
 31
1.803114
 12
110.0519
 22
111.8579
 32
1.81867
 13
110.0519
 23
111.8579
 33
1.81867
  0
3DFACE
  8
0
 10
110.0317
 20
112.1782
 30
1.759748
 11
110.096
 21
112.4942
 31
1.710112
 12
101.1888
 22
106.9146
 32
1.803114
 13
101.1888
 23
106.9146
 33
1.803114
  0
3DFACE
  8
0
 10
101.1888
 20
106.9146
 30
1.803114
 11
110.096
 21
112.4942
 31
1.710112
 12
100.8647
 22
106.8889
 32
1.775002
 13
100.8647
 23
106.8889
 33
1.775002
  0
3DFACE
  8
0
 10
100.8647
 20
106.8889
 30
1.775002
 11
110.096
 21
112.4942
 31
1.710112
 12
110.2405
 22
112.7844
 32
1.673141
 13
110.2405
 23
112.7844
 33
1.673141
  0
3DFACE
  8
0
 10
100.5569
 20
106.7812
 30
1.763096
 11
110.2405
 21
112.7844
 31
1.673141
 12
110.4554
 22
113.0291
 32
1.651357
 13
110.4554
 23
113.0291
 33
1.651357
  0
3DFACE
  8
0
 10
114.9252
 20
119.3481
 30
.9797828
 11
110.4554
 21
113.0291
 31
1.651357
 12
110.7259
 22
113.2114
 32
1.646242
 13
110.7259
 23
113.2114
 33
1.646242
  0
3DFACE
  8
0
 10
111.0337
 20
113.3191
 30
1.658148
 11
114.9252
 21
119.3481
 31
.9797828
 12
110.7259
 22
113.2114
 32
1.646242
 13
110.7259
 23
113.2114
 33
1.646242
  0
3DFACE
  8
0
 10
111.0337
 20
113.3191
 30
1.658148
 11
111.3578
 21
113.3448
 31
1.686261
 12
114.9252
 22
119.3481
 32
.9797828
 13
114.9252
 23
119.3481
 33
.9797828
  0
3DFACE
  8
0
 10
114.9252
 20
119.3481
 30
.9797828
 11
111.3578
 21
113.3448
 31
1.686261
 12
111.6761
 22
113.2866
 32
1.728666
 13
111.6761
 23
113.2866
 33
1.728666
  0
3DFACE
  8
0
 10
111.9669
 20
113.1487
 30
1.782473
 11
114.9252
 21
119.3481
 31
.9797828
 12
111.6761
 22
113.2866
 32
1.728666
 13
111.6761
 23
113.2866
 33
1.728666
  0
3DFACE
  8
0
 10
111.9669
 20
113.1487
 30
1.782473
 11
112.2104
 21
112.9403
 31
1.844015
 12
114.9252
 22
119.3481
 32
.9797828
 13
114.9252
 23
119.3481
 33
.9797828
  0
3DFACE
  8
0
 10
114.9252
 20
119.3481
 30
.9797828
 11
112.2104
 21
112.9403
 31
1.844015
 12
112.3899
 22
112.6758
 32
1.909099
 13
112.3899
 23
112.6758
 33
1.909099
  0
3DFACE
  8
0
 10
112.4934
 20
112.373
 30
1.973288
 11
114.9252
 21
119.3481
 31
.9797828
 12
112.3899
 22
112.6758
 32
1.909099
 13
112.3899
 23
112.6758
 33
1.909099
  0
3DFACE
  8
0
 10
112.4934
 20
112.373
 30
1.973288
 11
112.5136
 21
112.0527
 31
2.032209
 12
114.9252
 22
119.3481
 32
.9797828
 13
114.9252
 23
119.3481
 33
.9797828
  0
3DFACE
  8
0
 10
114.9252
 20
119.3481
 30
.9797828
 11
112.5136
 21
112.0527
 31
2.032209
 12
117.8881
 22
104.4203
 32
3.92929
 13
117.8881
 23
104.4203
 33
3.92929
  0
3DFACE
  8
0
 10
117.8881
 20
104.4203
 30
3.92929
 11
112.5136
 21
112.0527
 31
2.032209
 12
112.4493
 22
111.7366
 32
2.081846
 13
112.4493
 23
111.7366
 33
2.081846
  0
3DFACE
  8
0
 10
112.3047
 20
111.4464
 30
2.118817
 11
117.8881
 21
104.4203
 31
3.92929
 12
112.4493
 22
111.7366
 32
2.081846
 13
112.4493
 23
111.7366
 33
2.081846
  0
3DFACE
  8
0
 10
112.3047
 20
111.4464
 30
2.118817
 11
112.0899
 21
111.2018
 31
2.140601
 12
117.8881
 22
104.4203
 32
3.92929
 13
117.8881
 23
104.4203
 33
3.92929
  0
3DFACE
  8
0
 10
117.8881
 20
104.4203
 30
3.92929
 11
112.0899
 21
111.2018
 31
2.140601
 12
111.8193
 22
111.0194
 32
2.145715
 13
111.8193
 23
111.0194
 33
2.145715
  0
3DFACE
  8
0
 10
111.5115
 20
110.9117
 30
2.13381
 11
117.8881
 21
104.4203
 31
3.92929
 12
111.8193
 22
111.0194
 32
2.145715
 13
111.8193
 23
111.0194
 33
2.145715
  0
3DFACE
  8
0
 10
111.5115
 20
110.9117
 30
2.13381
 11
102.2802
 21
105.3064
 31
2.1987
 12
117.8881
 22
104.4203
 32
3.92929
 13
117.8881
 23
104.4203
 33
3.92929
  0
3DFACE
  8
0
 10
111.5115
 20
110.9117
 30
2.13381
 11
111.1874
 21
110.8861
 31
2.105696
 12
102.2802
 22
105.3064
 32
2.1987
 13
102.2802
 23
105.3064
 33
2.1987
  0
3DFACE
  8
0
 10
102.2802
 20
105.3064
 30
2.1987
 11
111.1874
 21
110.8861
 31
2.105696
 12
102.3446
 22
105.6225
 32
2.149063
 13
102.3446
 23
105.6225
 33
2.149063
  0
3DFACE
  8
0
 10
102.3446
 20
105.6225
 30
2.149063
 11
111.1874
 21
110.8861
 31
2.105696
 12
102.3243
 22
105.9428
 32
2.090142
 13
102.3243
 23
105.9428
 33
2.090142
  0
3DFACE
  8
0
 10
102.3243
 20
105.9428
 30
2.090142
 11
111.1874
 21
110.8861
 31
2.105696
 12
110.8692
 22
110.9442
 32
2.063292
 13
110.8692
 23
110.9442
 33
2.063292
  0
3DFACE
  8
0
 10
102.2209
 20
106.2455
 30
2.025952
 11
110.8692
 21
110.9442
 31
2.063292
 12
102.0413
 22
106.5101
 32
1.960869
 13
102.0413
 23
106.5101
 33
1.960869
  0
3DFACE
  8
0
 10
102.2209
 20
106.2455
 30
2.025952
 11
102.3243
 21
105.9428
 31
2.090142
 12
110.8692
 22
110.9442
 32
2.063292
 13
110.8692
 23
110.9442
 33
2.063292
  0
3DFACE
  8
0
 10
100.8647
 20
106.8889
 30
1.775002
 11
110.2405
 21
112.7844
 31
1.673141
 12
100.5569
 22
106.7812
 32
1.763096
 13
100.5569
 23
106.7812
 33
1.763096
  0
3DFACE
  8
0
 10
100.5569
 20
106.7812
 30
1.763096
 11
110.4554
 21
113.0291
 31
1.651357
 12
114.9252
 22
119.3481
 32
.9797828
 13
114.9252
 23
119.3481
 33
.9797828
  0
3DFACE
  8
0
 10
93.17705
 20
104.0785
 30
1.49917
 11
100.5569
 21
106.7812
 31
1.763096
 12
114.9252
 22
119.3481
 32
.9797828
 13
114.9252
 23
119.3481
 33
.9797828
  0
3DFACE
  8
0
 10
93.17705
 20
104.0785
 30
1.49917
 11
100.2863
 21
106.5988
 31
1.768211
 12
100.5569
 22
106.7812
 32
1.763096
 13
100.5569
 23
106.7812
 33
1.763096
  0
3DFACE
  8
0
 10
93.17705
 20
104.0785
 30
1.49917
 11
100.0715
 21
106.3542
 31
1.789995
 12
100.2863
 22
106.5988
 32
1.768211
 13
100.2863
 23
106.5988
 33
1.768211
  0
3DFACE
  8
0
 10
93.17705
 20
104.0785
 30
1.49917
 11
99.92696
 21
106.064
 31
1.826965
 12
100.0715
 22
106.3542
 32
1.789995
 13
100.0715
 23
106.3542
 33
1.789995
  0
3DFACE
  8
0
 10
93.17705
 20
104.0785
 30
1.49917
 11
99.86263
 21
105.748
 31
1.876602
 12
99.92696
 22
106.064
 32
1.826965
 13
99.92696
 23
106.064
 33
1.826965
  0
3DFACE
  8
0
 10
93.17705
 20
104.0785
 30
1.49917
 11
99.88287
 21
105.4276
 31
1.935523
 12
99.86263
 22
105.748
 32
1.876602
 13
99.86263
 23
105.748
 33
1.876602
  0
3DFACE
  8
0
 10
93.17705
 20
104.0785
 30
1.49917
 11
99.9863
 21
105.1249
 31
1.999713
 12
99.88287
 22
105.4276
 32
1.935523
 13
99.88287
 23
105.4276
 33
1.935523
  0
3DFACE
  8
0
 10
93.17705
 20
104.0785
 30
1.49917
 11
100.1659
 21
104.8603
 31
2.064796
 12
99.9863
 22
105.1249
 32
1.999713
 13
99.9863
 23
105.1249
 33
1.999713
  0
3DFACE
  8
0
 10
93.17705
 20
104.0785
 30
1.49917
 11
100.4093
 21
104.6519
 31
2.126339
 12
100.1659
 22
104.8603
 32
2.064796
 13
100.1659
 23
104.8603
 33
2.064796
  0
3DFACE
  8
0
 10
93.17705
 20
104.0785
 30
1.49917
 11
91.67915
 21
102.8099
 31
1.573452
 12
100.4093
 22
104.6519
 32
2.126339
 13
100.4093
 23
104.6519
 33
2.126339
  0
3DFACE
  8
0
 10
93.17705
 20
104.0785
 30
1.49917
 11
91.82366
 21
103.1002
 31
1.536481
 12
91.67915
 22
102.8099
 32
1.573452
 13
91.67915
 23
102.8099
 33
1.573452
  0
3DFACE
  8
0
 10
93.17705
 20
104.0785
 30
1.49917
 11
91.88799
 21
103.4162
 31
1.486844
 12
91.82366
 22
103.1002
 32
1.536481
 13
91.82366
 23
103.1002
 33
1.536481
  0
3DFACE
  8
0
 10
93.17705
 20
104.0785
 30
1.49917
 11
91.86775
 21
103.7365
 31
1.427923
 12
91.88799
 22
103.4162
 32
1.486844
 13
91.88799
 23
103.4162
 33
1.486844
  0
3DFACE
  8
0
 10
93.17705
 20
104.0785
 30
1.49917
 11
91.76433
 21
104.0393
 31
1.363733
 12
91.86775
 22
103.7365
 32
1.427923
 13
91.86775
 23
103.7365
 33
1.427923
  0
3DFACE
  8
0
 10
93.17705
 20
104.0785
 30
1.49917
 11
91.58475
 21
104.3039
 31
1.29865
 12
91.76433
 22
104.0393
 32
1.363733
 13
91.76433
 23
104.0393
 33
1.363733
  0
3DFACE
  8
0
 10
93.17705
 20
104.0785
 30
1.49917
 11
91.34128
 21
104.5122
 31
1.237107
 12
91.58475
 22
104.3039
 32
1.29865
 13
91.58475
 23
104.3039
 33
1.29865
  0
3DFACE
  8
0
 10
93.17705
 20
104.0785
 30
1.49917
 11
92.16321
 21
109.1866
 31
.4898914
 12
91.34128
 22
104.5122
 32
1.237107
 13
91.34128
 23
104.5122
 33
1.237107
  0
3DFACE
  8
0
 10
91.34128
 20
104.5122
 30
1.237107
 11
92.16321
 21
109.1866
 31
.4898914
 12
91.05049
 22
104.6502
 32
1.183301
 13
91.05049
 23
104.6502
 33
1.183301
  0
3DFACE
  8
0
 10
91.05049
 20
104.6502
 30
1.183301
 11
92.16321
 21
109.1866
 31
.4898914
 12
90.73221
 22
104.7083
 32
1.140895
 13
90.73221
 23
104.7083
 33
1.140895
  0
3DFACE
  8
0
 10
90.73221
 20
104.7083
 30
1.140895
 11
92.16321
 21
109.1866
 31
.4898914
 12
90.40811
 22
104.6826
 32
1.112783
 13
90.40811
 23
104.6826
 33
1.112783
  0
3DFACE
  8
0
 10
90.40811
 20
104.6826
 30
1.112783
 11
92.16321
 21
109.1866
 31
.4898914
 12
90.1003
 22
104.575
 32
1.100877
 13
90.1003
 23
104.575
 33
1.100877
  0
3DFACE
  8
0
 10
90.1003
 20
104.575
 30
1.100877
 11
92.16321
 21
109.1866
 31
.4898914
 12
89.82976
 22
104.3926
 32
1.105991
 13
89.82976
 23
104.3926
 33
1.105991
  0
3DFACE
  8
0
 10
89.82976
 20
104.3926
 30
1.105991
 11
92.16321
 21
109.1866
 31
.4898914
 12
89.6149
 22
104.148
 32
1.127775
 13
89.6149
 23
104.148
 33
1.127775
  0
3DFACE
  8
0
 10
89.6149
 20
104.148
 30
1.127775
 11
92.16321
 21
109.1866
 31
.4898914
 12
78.88528
 22
95.60513
 32
1.563278
 13
78.88528
 23
95.60513
 33
1.563278
  0
3DFACE
  8
0
 10
89.47038
 20
103.8577
 30
1.164746
 11
78.88528
 21
95.60513
 31
1.563278
 12
89.40605
 22
103.5417
 32
1.214383
 13
89.40605
 23
103.5417
 33
1.214383
  0
3DFACE
  8
0
 10
89.47038
 20
103.8577
 30
1.164746
 11
89.6149
 21
104.148
 31
1.127775
 12
78.88528
 22
95.60513
 32
1.563278
 13
78.88528
 23
95.60513
 33
1.563278
  0
3DFACE
  8
0
 10
110.8692
 20
110.9442
 30
2.063292
 11
110.5784
 21
111.0822
 31
2.009485
 12
102.0413
 22
106.5101
 32
1.960869
 13
102.0413
 23
106.5101
 33
1.960869
  0
3DFACE
  8
0
 10
102.0413
 20
106.5101
 30
1.960869
 11
110.5784
 21
111.0822
 31
2.009485
 12
101.7979
 22
106.7185
 32
1.899326
 13
101.7979
 23
106.7185
 33
1.899326
  0
3DFACE
  8
0
 10
101.7979
 20
106.7185
 30
1.899326
 11
110.5784
 21
111.0822
 31
2.009485
 12
110.3349
 22
111.2905
 32
1.947943
 13
110.3349
 23
111.2905
 33
1.947943
  0
3DFACE
  8
0
 10
101.5071
 20
106.8564
 30
1.84552
 11
110.3349
 21
111.2905
 31
1.947943
 12
110.1553
 22
111.5551
 32
1.882859
 13
110.1553
 23
111.5551
 33
1.882859
  0
3DFACE
  8
0
 10
110.0519
 20
111.8579
 30
1.81867
 11
101.5071
 21
106.8564
 31
1.84552
 12
110.1553
 22
111.5551
 32
1.882859
 13
110.1553
 23
111.5551
 33
1.882859
  0
3DFACE
  8
0
 10
110.0519
 20
111.8579
 30
1.81867
 11
101.1888
 21
106.9146
 31
1.803114
 12
101.5071
 22
106.8564
 32
1.84552
 13
101.5071
 23
106.8564
 33
1.84552
  0
3DFACE
  8
0
 10
101.7979
 20
106.7185
 30
1.899326
 11
110.3349
 21
111.2905
 31
1.947943
 12
101.5071
 22
106.8564
 32
1.84552
 13
101.5071
 23
106.8564
 33
1.84552
  0
3DFACE
  8
0
 10
102.2802
 20
105.3064
 30
2.1987
 11
102.1357
 21
105.0162
 31
2.235671
 12
117.8881
 22
104.4203
 32
3.92929
 13
117.8881
 23
104.4203
 33
3.92929
  0
3DFACE
  8
0
 10
117.8881
 20
104.4203
 30
3.92929
 11
102.1357
 21
105.0162
 31
2.235671
 12
101.9209
 22
104.7716
 32
2.257454
 13
101.9209
 23
104.7716
 33
2.257454
  0
3DFACE
  8
0
 10
101.6503
 20
104.5892
 30
2.262568
 11
117.8881
 21
104.4203
 31
3.92929
 12
101.9209
 22
104.7716
 32
2.257454
 13
101.9209
 23
104.7716
 33
2.257454
  0
3DFACE
  8
0
 10
101.6503
 20
104.5892
 30
2.262568
 11
104.7193
 21
89.12684
 31
5.317708
 12
117.8881
 22
104.4203
 32
3.92929
 13
117.8881
 23
104.4203
 33
3.92929
  0
3DFACE
  8
0
 10
101.6503
 20
104.5892
 30
2.262568
 11
104.3952
 21
89.10118
 31
5.289596
 12
104.7193
 22
89.12684
 32
5.317708
 13
104.7193
 23
89.12684
 33
5.317708
  0
3DFACE
  8
0
 10
101.6503
 20
104.5892
 30
2.262568
 11
101.3425
 21
104.4815
 31
2.250664
 12
104.3952
 22
89.10118
 32
5.289596
 13
104.3952
 23
89.10118
 33
5.289596
  0
3DFACE
  8
0
 10
104.3952
 20
89.10118
 30
5.289596
 11
101.3425
 21
104.4815
 31
2.250664
 12
104.0874
 22
88.99351
 32
5.27769
 13
104.0874
 23
88.99351
 33
5.27769
  0
3DFACE
  8
0
 10
104.0874
 20
88.99351
 30
5.27769
 11
101.3425
 21
104.4815
 31
2.250664
 12
101.0184
 22
104.4559
 32
2.22255
 13
101.0184
 23
104.4559
 33
2.22255
  0
3DFACE
  8
0
 10
91.19373
 20
102.3829
 30
1.600349
 11
101.0184
 21
104.4559
 31
2.22255
 12
91.46429
 22
102.5653
 32
1.595235
 13
91.46429
 23
102.5653
 33
1.595235
  0
3DFACE
  8
0
 10
91.19373
 20
102.3829
 30
1.600349
 11
104.0874
 21
88.99351
 31
5.27769
 12
101.0184
 22
104.4559
 32
2.22255
 13
101.0184
 23
104.4559
 33
2.22255
  0
3DFACE
  8
0
 10
91.19373
 20
102.3829
 30
1.600349
 11
94.21684
 21
86.9109
 31
4.652586
 12
104.0874
 22
88.99351
 32
5.27769
 13
104.0874
 23
88.99351
 33
5.27769
  0
3DFACE
  8
0
 10
91.19373
 20
102.3829
 30
1.600349
 11
90.88593
 21
102.2753
 31
1.588444
 12
94.21684
 22
86.9109
 32
4.652586
 13
94.21684
 23
86.9109
 33
4.652586
  0
3DFACE
  8
0
 10
94.21684
 20
86.9109
 30
4.652586
 11
90.88593
 21
102.2753
 31
1.588444
 12
93.89275
 22
86.88525
 32
4.624473
 13
93.89275
 23
86.88525
 33
4.624473
  0
3DFACE
  8
0
 10
93.89275
 20
86.88525
 30
4.624473
 11
90.88593
 21
102.2753
 31
1.588444
 12
78.88528
 22
95.60513
 32
1.563278
 13
78.88528
 23
95.60513
 33
1.563278
  0
3DFACE
  8
0
 10
80.39191
 20
88.01001
 30
3.06388
 11
78.88528
 21
95.60513
 31
1.563278
 12
77.61705
 22
88.10438
 32
2.767421
 13
77.61705
 23
88.10438
 33
2.767421
  0
3DFACE
  8
0
 10
77.93533
 20
88.04625
 30
2.809825
 11
80.39191
 21
88.01001
 31
3.06388
 12
77.61705
 22
88.10438
 32
2.767421
 13
77.61705
 23
88.10438
 33
2.767421
  0
3DFACE
  8
0
 10
77.93533
 20
88.04625
 30
2.809825
 11
78.22612
 21
87.9083
 31
2.863633
 12
80.39191
 22
88.01001
 32
3.06388
 13
80.39191
 23
88.01001
 33
3.06388
  0
3DFACE
  8
0
 10
80.39191
 20
88.01001
 30
3.06388
 11
78.22612
 21
87.9083
 31
2.863633
 12
78.4696
 22
87.69994
 32
2.925175
 13
78.4696
 23
87.69994
 33
2.925175
  0
3DFACE
  8
0
 10
78.64917
 20
87.43536
 30
2.990259
 11
80.39191
 21
88.01001
 31
3.06388
 12
78.4696
 22
87.69994
 32
2.925175
 13
78.4696
 23
87.69994
 33
2.925175
  0
3DFACE
  8
0
 10
78.64917
 20
87.43536
 30
2.990259
 11
78.75259
 21
87.13261
 31
3.054448
 12
80.39191
 22
88.01001
 32
3.06388
 13
80.39191
 23
88.01001
 33
3.06388
  0
3DFACE
  8
0
 10
80.39191
 20
88.01001
 30
3.06388
 11
78.75259
 21
87.13261
 31
3.054448
 12
78.77283
 22
86.81229
 32
3.113369
 13
78.77283
 23
86.81229
 33
3.113369
  0
3DFACE
  8
0
 10
78.7085
 20
86.49625
 30
3.163006
 11
80.39191
 21
88.01001
 31
3.06388
 12
78.77283
 22
86.81229
 32
3.113369
 13
78.77283
 23
86.81229
 33
3.113369
  0
3DFACE
  8
0
 10
78.7085
 20
86.49625
 30
3.163006
 11
78.56399
 21
86.20603
 31
3.199976
 12
80.39191
 22
88.01001
 32
3.06388
 13
80.39191
 23
88.01001
 33
3.06388
  0
3DFACE
  8
0
 10
80.39191
 20
88.01001
 30
3.06388
 11
78.56399
 21
86.20603
 31
3.199976
 12
81.38761
 22
82.99334
 32
4.0551
 13
81.38761
 23
82.99334
 33
4.0551
  0
3DFACE
  8
0
 10
81.38761
 20
82.99334
 30
4.0551
 11
78.56399
 21
86.20603
 31
3.199976
 12
78.34913
 22
85.9614
 32
3.221761
 13
78.34913
 23
85.9614
 33
3.221761
  0
3DFACE
  8
0
 10
78.07858
 20
85.77903
 30
3.226875
 11
81.38761
 21
82.99334
 31
4.0551
 12
78.34913
 22
85.9614
 32
3.221761
 13
78.34913
 23
85.9614
 33
3.221761
  0
3DFACE
  8
0
 10
78.07858
 20
85.77903
 30
3.226875
 11
77.77077
 21
85.67136
 31
3.21497
 12
81.38761
 22
82.99334
 32
4.0551
 13
81.38761
 23
82.99334
 33
4.0551
  0
3DFACE
  8
0
 10
81.38761
 20
82.99334
 30
4.0551
 11
77.77077
 21
85.67136
 31
3.21497
 12
77.44668
 22
85.64571
 32
3.186857
 13
77.44668
 23
85.64571
 33
3.186857
  0
3DFACE
  8
0
 10
77.1284
 20
85.70383
 30
3.144452
 11
81.38761
 21
82.99334
 31
4.0551
 12
77.44668
 22
85.64571
 32
3.186857
 13
77.44668
 23
85.64571
 33
3.186857
  0
3DFACE
  8
0
 10
77.1284
 20
85.70383
 30
3.144452
 11
66.17879
 21
87.7427
 31
1.678691
 12
81.38761
 22
82.99334
 32
4.0551
 13
81.38761
 23
82.99334
 33
4.0551
  0
3DFACE
  8
0
 10
77.1284
 20
85.70383
 30
3.144452
 11
76.83761
 21
85.84178
 31
3.090644
 12
66.17879
 22
87.7427
 32
1.678691
 13
66.17879
 23
87.7427
 33
1.678691
  0
3DFACE
  8
0
 10
66.17879
 20
87.7427
 30
1.678691
 11
76.83761
 21
85.84178
 31
3.090644
 12
66.50288
 22
87.76835
 32
1.706804
 13
66.50288
 23
87.76835
 33
1.706804
  0
3DFACE
  8
0
 10
66.50288
 20
87.76835
 30
1.706804
 11
76.83761
 21
85.84178
 31
3.090644
 12
76.59414
 22
86.05014
 32
3.029103
 13
76.59414
 23
86.05014
 33
3.029103
  0
3DFACE
  8
0
 10
76.41457
 20
86.31472
 30
2.964019
 11
66.50288
 21
87.76835
 31
1.706804
 12
76.59414
 22
86.05014
 32
3.029103
 13
76.59414
 23
86.05014
 33
3.029103
  0
3DFACE
  8
0
 10
76.41457
 20
86.31472
 30
2.964019
 11
66.81068
 21
87.87602
 31
1.718709
 12
66.50288
 22
87.76835
 32
1.706804
 13
66.50288
 23
87.76835
 33
1.706804
  0
3DFACE
  8
0
 10
76.41457
 20
86.31472
 30
2.964019
 11
76.31113
 21
86.61748
 31
2.89983
 12
66.81068
 22
87.87602
 32
1.718709
 13
66.81068
 23
87.87602
 33
1.718709
  0
3DFACE
  8
0
 10
66.81068
 20
87.87602
 30
1.718709
 11
76.31113
 21
86.61748
 31
2.89983
 12
76.2909
 22
86.93779
 32
2.840909
 13
76.2909
 23
86.93779
 33
2.840909
  0
3DFACE
  8
0
 10
67.08124
 20
88.0584
 30
1.713595
 11
76.2909
 21
86.93779
 31
2.840909
 12
76.35523
 22
87.25382
 32
2.791272
 13
76.35523
 23
87.25382
 33
2.791272
  0
3DFACE
  8
0
 10
67.29609
 20
88.30302
 30
1.691811
 11
76.35523
 21
87.25382
 31
2.791272
 12
76.49974
 22
87.54405
 32
2.754301
 13
76.49974
 23
87.54405
 33
2.754301
  0
3DFACE
  8
0
 10
67.44061
 20
88.59325
 30
1.65484
 11
76.49974
 21
87.54405
 31
2.754301
 12
76.7146
 22
87.78868
 32
2.732516
 13
76.7146
 23
87.78868
 33
2.732516
  0
3DFACE
  8
0
 10
67.50494
 20
88.90928
 30
1.605204
 11
76.7146
 21
87.78868
 31
2.732516
 12
76.98515
 22
87.97105
 32
2.727402
 13
76.98515
 23
87.97105
 33
2.727402
  0
3DFACE
  8
0
 10
67.4847
 20
89.2296
 30
1.546283
 11
76.98515
 21
87.97105
 31
2.727402
 12
75.71253
 22
94.50272
 32
1.439237
 13
75.71253
 23
94.50272
 33
1.439237
  0
3DFACE
  8
0
 10
67.38127
 20
89.53236
 30
1.482093
 11
75.71253
 21
94.50272
 31
1.439237
 12
75.39424
 22
94.56084
 32
1.396832
 13
75.39424
 23
94.56084
 33
1.396832
  0
3DFACE
  8
0
 10
67.2017
 20
89.79694
 30
1.41701
 11
75.39424
 21
94.56084
 31
1.396832
 12
66.95822
 22
90.00529
 32
1.355467
 13
66.95822
 23
90.00529
 33
1.355467
  0
3DFACE
  8
0
 10
67.2017
 20
89.79694
 30
1.41701
 11
67.38127
 21
89.53236
 31
1.482093
 12
75.39424
 22
94.56084
 32
1.396832
 13
75.39424
 23
94.56084
 33
1.396832
  0
3DFACE
  8
0
 10
101.0184
 20
104.4559
 30
2.22255
 11
100.7001
 21
104.514
 31
2.180145
 12
91.46429
 22
102.5653
 32
1.595235
 13
91.46429
 23
102.5653
 33
1.595235
  0
3DFACE
  8
0
 10
91.46429
 20
102.5653
 30
1.595235
 11
100.7001
 21
104.514
 31
2.180145
 12
91.67915
 22
102.8099
 32
1.573452
 13
91.67915
 23
102.8099
 33
1.573452
  0
3DFACE
  8
0
 10
91.67915
 20
102.8099
 30
1.573452
 11
100.7001
 21
104.514
 31
2.180145
 12
100.4093
 22
104.6519
 32
2.126339
 13
100.4093
 23
104.6519
 33
2.126339
  0
3DFACE
  8
0
 10
89.52972
 20
102.9186
 30
1.337494
 11
89.42629
 21
103.2214
 31
1.273304
 12
78.88528
 22
95.60513
 32
1.563278
 13
78.88528
 23
95.60513
 33
1.563278
  0
3DFACE
  8
0
 10
89.70929
 20
102.6541
 30
1.402577
 11
78.88528
 21
95.60513
 31
1.563278
 12
89.95277
 22
102.4457
 32
1.46412
 13
89.95277
 23
102.4457
 33
1.46412
  0
3DFACE
  8
0
 10
89.70929
 20
102.6541
 30
1.402577
 11
89.52972
 21
102.9186
 31
1.337494
 12
78.88528
 22
95.60513
 32
1.563278
 13
78.88528
 23
95.60513
 33
1.563278
  0
3DFACE
  8
0
 10
89.42629
 20
103.2214
 30
1.273304
 11
89.40605
 21
103.5417
 31
1.214383
 12
78.88528
 22
95.60513
 32
1.563278
 13
78.88528
 23
95.60513
 33
1.563278
  0
3DFACE
  8
0
 10
90.88593
 20
102.2753
 30
1.588444
 11
90.56184
 21
102.2496
 31
1.560331
 12
78.88528
 22
95.60513
 32
1.563278
 13
78.88528
 23
95.60513
 33
1.563278
  0
3DFACE
  8
0
 10
78.88528
 20
95.60513
 30
1.563278
 11
90.56184
 21
102.2496
 31
1.560331
 12
90.24355
 22
102.3078
 32
1.517926
 13
90.24355
 23
102.3078
 33
1.517926
  0
3DFACE
  8
0
 10
89.95277
 20
102.4457
 30
1.46412
 11
78.88528
 21
95.60513
 31
1.563278
 12
90.24355
 22
102.3078
 32
1.517926
 13
90.24355
 23
102.3078
 33
1.517926
  0
3DFACE
  8
0
 10
74.6804
 20
95.17172
 30
1.216399
 11
74.57697
 21
95.47449
 31
1.152209
 12
66.34915
 22
90.20137
 32
1.259255
 13
66.34915
 23
90.20137
 33
1.259255
  0
3DFACE
  8
0
 10
66.66743
 20
90.14324
 30
1.30166
 11
74.6804
 21
95.17172
 31
1.216399
 12
66.34915
 22
90.20137
 32
1.259255
 13
66.34915
 23
90.20137
 33
1.259255
  0
3DFACE
  8
0
 10
66.66743
 20
90.14324
 30
1.30166
 11
74.85998
 21
94.90715
 31
1.281482
 12
74.6804
 22
95.17172
 32
1.216399
 13
74.6804
 23
95.17172
 33
1.216399
  0
3DFACE
  8
0
 10
66.66743
 20
90.14324
 30
1.30166
 11
75.10345
 21
94.69879
 31
1.343025
 12
74.85998
 22
94.90715
 32
1.281482
 13
74.85998
 23
94.90715
 33
1.281482
  0
3DFACE
  8
0
 10
66.66743
 20
90.14324
 30
1.30166
 11
66.95822
 21
90.00529
 31
1.355467
 12
75.10345
 22
94.69879
 32
1.343025
 13
75.10345
 23
94.69879
 33
1.343025
  0
3DFACE
  8
0
 10
75.10345
 20
94.69879
 30
1.343025
 11
66.95822
 21
90.00529
 31
1.355467
 12
75.39424
 22
94.56084
 32
1.396832
 13
75.39424
 23
94.56084
 33
1.396832
  0
3DFACE
  8
0
 10
74.62107
 20
96.11083
 30
1.043651
 11
66.02506
 21
90.17572
 31
1.231142
 12
74.55674
 22
95.79479
 32
1.093289
 13
74.55674
 23
95.79479
 33
1.093289
  0
3DFACE
  8
0
 10
74.62107
 20
96.11083
 30
1.043651
 11
74.76559
 21
96.40105
 31
1.006681
 12
66.02506
 22
90.17572
 32
1.231142
 13
66.02506
 23
90.17572
 33
1.231142
  0
3DFACE
  8
0
 10
66.02506
 20
90.17572
 30
1.231142
 11
74.76559
 21
96.40105
 31
1.006681
 12
65.71725
 22
90.06805
 32
1.219236
 13
65.71725
 23
90.06805
 33
1.219236
  0
3DFACE
  8
0
 10
65.71725
 20
90.06805
 30
1.219236
 11
74.76559
 21
96.40105
 31
1.006681
 12
74.98045
 22
96.64569
 32
.9848962
 13
74.98045
 23
96.64569
 33
.9848962
  0
3DFACE
  8
0
 10
77.88958
 20
100.6218
 30
.5720575
 11
74.98045
 21
96.64569
 31
.9848962
 12
75.251
 22
96.82806
 32
.9797826
 13
75.251
 23
96.82806
 33
.9797826
  0
3DFACE
  8
0
 10
75.5588
 20
96.93574
 30
.9916872
 11
77.88958
 21
100.6218
 31
.5720575
 12
75.251
 22
96.82806
 32
.9797826
 13
75.251
 23
96.82806
 33
.9797826
  0
3DFACE
  8
0
 10
75.5588
 20
96.93574
 30
.9916872
 11
75.88289
 21
96.96138
 31
1.019801
 12
77.88958
 22
100.6218
 32
.5720575
 13
77.88958
 23
100.6218
 33
.5720575
  0
3DFACE
  8
0
 10
77.88958
 20
100.6218
 30
.5720575
 11
75.88289
 21
96.96138
 31
1.019801
 12
76.20117
 22
96.90325
 32
1.062206
 13
76.20117
 23
96.90325
 33
1.062206
  0
3DFACE
  8
0
 10
76.49197
 20
96.7653
 30
1.116013
 11
77.88958
 21
100.6218
 31
.5720575
 12
76.20117
 22
96.90325
 32
1.062206
 13
76.20117
 23
96.90325
 33
1.062206
  0
3DFACE
  8
0
 10
76.49197
 20
96.7653
 30
1.116013
 11
76.73544
 21
96.55695
 31
1.177555
 12
77.88958
 22
100.6218
 32
.5720575
 13
77.88958
 23
100.6218
 33
.5720575
  0
3DFACE
  8
0
 10
77.88958
 20
100.6218
 30
.5720575
 11
76.73544
 21
96.55695
 31
1.177555
 12
78.88528
 22
95.60513
 32
1.563278
 13
78.88528
 23
95.60513
 33
1.563278
  0
3DFACE
  8
0
 10
78.88528
 20
95.60513
 30
1.563278
 11
76.73544
 21
96.55695
 31
1.177555
 12
76.91502
 22
96.29237
 32
1.242639
 13
76.91502
 23
96.29237
 33
1.242639
  0
3DFACE
  8
0
 10
77.01844
 20
95.98962
 30
1.306828
 11
78.88528
 21
95.60513
 31
1.563278
 12
76.91502
 22
96.29237
 32
1.242639
 13
76.91502
 23
96.29237
 33
1.242639
  0
3DFACE
  8
0
 10
77.01844
 20
95.98962
 30
1.306828
 11
77.03868
 21
95.6693
 31
1.365749
 12
78.88528
 22
95.60513
 32
1.563278
 13
78.88528
 23
95.60513
 33
1.563278
  0
3DFACE
  8
0
 10
78.88528
 20
95.60513
 30
1.563278
 11
77.03868
 21
95.6693
 31
1.365749
 12
76.97435
 22
95.35326
 32
1.415386
 13
76.97435
 23
95.35326
 33
1.415386
  0
3DFACE
  8
0
 10
76.82983
 20
95.06304
 30
1.452356
 11
78.88528
 21
95.60513
 31
1.563278
 12
76.97435
 22
95.35326
 32
1.415386
 13
76.97435
 23
95.35326
 33
1.415386
  0
3DFACE
  8
0
 10
76.82983
 20
95.06304
 30
1.452356
 11
76.61497
 21
94.81841
 31
1.474141
 12
78.88528
 22
95.60513
 32
1.563278
 13
78.88528
 23
95.60513
 33
1.563278
  0
3DFACE
  8
0
 10
78.88528
 20
95.60513
 30
1.563278
 11
76.61497
 21
94.81841
 31
1.474141
 12
76.34442
 22
94.63604
 32
1.479255
 13
76.34442
 23
94.63604
 33
1.479255
  0
3DFACE
  8
0
 10
77.61705
 20
88.10438
 30
2.767421
 11
76.34442
 21
94.63604
 31
1.479255
 12
76.03661
 22
94.52837
 32
1.467349
 13
76.03661
 23
94.52837
 33
1.467349
  0
3DFACE
  8
0
 10
77.29296
 20
88.07873
 30
2.739308
 11
76.03661
 21
94.52837
 31
1.467349
 12
75.71253
 22
94.50272
 32
1.439237
 13
75.71253
 23
94.50272
 33
1.439237
  0
3DFACE
  8
0
 10
76.98515
 20
87.97105
 30
2.727402
 11
77.29296
 21
88.07873
 31
2.739308
 12
75.71253
 22
94.50272
 32
1.439237
 13
75.71253
 23
94.50272
 33
1.439237
  0
3DFACE
  8
0
 10
65.71725
 20
90.06805
 30
1.219236
 11
74.98045
 21
96.64569
 31
.9848962
 12
77.88958
 22
100.6218
 32
.5720575
 13
77.88958
 23
100.6218
 33
.5720575
  0
3DFACE
  8
0
 10
60.75863
 20
87.98898
 30
1.088613
 11
65.71725
 21
90.06805
 31
1.219236
 12
77.88958
 22
100.6218
 32
.5720575
 13
77.88958
 23
100.6218
 33
.5720575
  0
3DFACE
  8
0
 10
60.75863
 20
87.98898
 30
1.088613
 11
65.44671
 21
89.88567
 31
1.22435
 12
65.71725
 22
90.06805
 32
1.219236
 13
65.71725
 23
90.06805
 33
1.219236
  0
3DFACE
  8
0
 10
60.75863
 20
87.98898
 30
1.088613
 11
65.23185
 21
89.64104
 31
1.246135
 12
65.44671
 22
89.88567
 32
1.22435
 13
65.44671
 23
89.88567
 33
1.22435
  0
3DFACE
  8
0
 10
60.75863
 20
87.98898
 30
1.088613
 11
65.08733
 21
89.35081
 31
1.283106
 12
65.23185
 22
89.64104
 32
1.246135
 13
65.23185
 23
89.64104
 33
1.246135
  0
3DFACE
  8
0
 10
60.75863
 20
87.98898
 30
1.088613
 11
65.023
 21
89.03478
 31
1.332743
 12
65.08733
 22
89.35081
 32
1.283106
 13
65.08733
 23
89.35081
 33
1.283106
  0
3DFACE
  8
0
 10
60.75863
 20
87.98898
 30
1.088613
 11
65.04324
 21
88.71447
 31
1.391664
 12
65.023
 22
89.03478
 32
1.332743
 13
65.023
 23
89.03478
 33
1.332743
  0
3DFACE
  8
0
 10
60.75863
 20
87.98898
 30
1.088613
 11
60.82065
 21
87.67219
 31
1.151121
 12
65.04324
 22
88.71447
 32
1.391664
 13
65.04324
 23
88.71447
 33
1.391664
  0
3DFACE
  8
0
 10
65.04324
 20
88.71447
 30
1.391664
 11
60.82065
 21
87.67219
 31
1.151121
 12
65.14667
 22
88.41171
 32
1.455853
 13
65.14667
 23
88.41171
 33
1.455853
  0
3DFACE
  8
0
 10
65.14667
 20
88.41171
 30
1.455853
 11
60.82065
 21
87.67219
 31
1.151121
 12
65.32624
 22
88.14713
 32
1.520937
 13
65.32624
 23
88.14713
 33
1.520937
  0
3DFACE
  8
0
 10
65.32624
 20
88.14713
 30
1.520937
 11
60.82065
 21
87.67219
 31
1.151121
 12
65.56972
 22
87.93877
 32
1.582479
 13
65.56972
 23
87.93877
 33
1.582479
  0
3DFACE
  8
0
 10
65.56972
 20
87.93877
 30
1.582479
 11
60.82065
 21
87.67219
 31
1.151121
 12
65.8605
 22
87.80083
 32
1.636286
 13
65.8605
 23
87.80083
 33
1.636286
  0
3DFACE
  8
0
 10
65.8605
 20
87.80083
 30
1.636286
 11
60.82065
 21
87.67219
 31
1.151121
 12
66.17879
 22
87.7427
 32
1.678691
 13
66.17879
 23
87.7427
 33
1.678691
  0
3DFACE
  8
0
 10
66.17879
 20
87.7427
 30
1.678691
 11
60.82065
 21
87.67219
 31
1.151121
 12
81.38761
 22
82.99334
 32
4.0551
 13
81.38761
 23
82.99334
 33
4.0551
  0
3DFACE
  8
0
 10
78.88528
 20
95.60513
 30
1.563278
 11
76.34442
 21
94.63604
 31
1.479255
 12
77.61705
 22
88.10438
 32
2.767421
 13
77.61705
 23
88.10438
 33
2.767421
  0
3DFACE
  8
0
 10
77.61705
 20
88.10438
 30
2.767421
 11
76.03661
 21
94.52837
 31
1.467349
 12
77.29296
 22
88.07873
 32
2.739308
 13
77.29296
 23
88.07873
 33
2.739308
  0
3DFACE
  8
0
 10
67.4847
 20
89.2296
 30
1.546283
 11
75.71253
 21
94.50272
 31
1.439237
 12
67.38127
 22
89.53236
 32
1.482093
 13
67.38127
 23
89.53236
 33
1.482093
  0
3DFACE
  8
0
 10
103.5168
 20
87.33717
 30
5.514307
 11
103.4134
 21
87.63993
 31
5.450118
 12
96.76315
 22
86.0063
 32
5.069888
 13
96.76315
 23
86.0063
 33
5.069888
  0
3DFACE
  8
0
 10
103.6964
 20
87.0726
 30
5.579391
 11
96.76315
 21
86.0063
 31
5.069888
 12
103.9398
 22
86.86423
 32
5.640934
 13
103.9398
 23
86.86423
 33
5.640934
  0
3DFACE
  8
0
 10
103.6964
 20
87.0726
 30
5.579391
 11
103.5168
 21
87.33717
 31
5.514307
 12
96.76315
 22
86.0063
 32
5.069888
 13
96.76315
 23
86.0063
 33
5.069888
  0
3DFACE
  8
0
 10
103.4134
 20
87.63993
 30
5.450118
 11
103.3931
 21
87.96025
 31
5.391197
 12
96.76315
 22
86.0063
 32
5.069888
 13
96.76315
 23
86.0063
 33
5.069888
  0
3DFACE
  8
0
 10
96.76315
 20
86.0063
 30
5.069888
 11
103.3931
 21
87.96025
 31
5.391197
 12
103.4575
 22
88.27628
 32
5.34156
 13
103.4575
 23
88.27628
 33
5.34156
  0
3DFACE
  8
0
 10
103.602
 20
88.56651
 30
5.304589
 11
96.76315
 21
86.0063
 31
5.069888
 12
103.4575
 22
88.27628
 32
5.34156
 13
103.4575
 23
88.27628
 33
5.34156
  0
3DFACE
  8
0
 10
103.602
 20
88.56651
 30
5.304589
 11
94.82591
 21
86.71483
 31
4.748798
 12
96.76315
 22
86.0063
 32
5.069888
 13
96.76315
 23
86.0063
 33
5.069888
  0
3DFACE
  8
0
 10
103.602
 20
88.56651
 30
5.304589
 11
103.8168
 21
88.81114
 31
5.282804
 12
94.82591
 22
86.71483
 32
4.748798
 13
94.82591
 23
86.71483
 33
4.748798
  0
3DFACE
  8
0
 10
94.82591
 20
86.71483
 30
4.748798
 11
103.8168
 21
88.81114
 31
5.282804
 12
94.53513
 22
86.85278
 32
4.694991
 13
94.53513
 23
86.85278
 33
4.694991
  0
3DFACE
  8
0
 10
94.53513
 20
86.85278
 30
4.694991
 11
103.8168
 21
88.81114
 31
5.282804
 12
104.0874
 22
88.99351
 32
5.27769
 13
104.0874
 23
88.99351
 33
5.27769
  0
3DFACE
  8
0
 10
94.21684
 20
86.9109
 30
4.652586
 11
94.53513
 21
86.85278
 31
4.694991
 12
104.0874
 22
88.99351
 32
5.27769
 13
104.0874
 23
88.99351
 33
5.27769
  0
3DFACE
  8
0
 10
117.8881
 20
104.4203
 30
3.92929
 11
104.7193
 21
89.12684
 31
5.317708
 12
119.6179
 22
95.70043
 32
5.652131
 13
119.6179
 23
95.70043
 33
5.652131
  0
3DFACE
  8
0
 10
129.164
 20
102.2434
 30
5.452456
 11
119.6179
 21
95.70043
 31
5.652131
 12
130.0206
 22
97.86818
 32
6.31576
 13
130.0206
 23
97.86818
 33
6.31576
  0
3DFACE
  8
0
 10
129.164
 20
102.2434
 30
5.452456
 11
117.8881
 21
104.4203
 31
3.92929
 12
119.6179
 22
95.70043
 32
5.652131
 13
119.6179
 23
95.70043
 33
5.652131
  0
3DFACE
  8
0
 10
129.164
 20
102.2434
 30
5.452456
 11
128.2961
 21
106.6163
 31
4.588433
 12
117.8881
 22
104.4203
 32
3.92929
 13
117.8881
 23
104.4203
 33
3.92929
  0
3DFACE
  8
0
 10
104.7193
 20
89.12684
 30
5.317708
 11
105.0376
 21
89.06871
 31
5.360113
 12
119.6179
 22
95.70043
 32
5.652131
 13
119.6179
 23
95.70043
 33
5.652131
  0
3DFACE
  8
0
 10
119.6179
 20
95.70043
 30
5.652131
 11
105.0376
 21
89.06871
 31
5.360113
 12
105.3283
 22
88.93076
 32
5.413921
 13
105.3283
 23
88.93076
 33
5.413921
  0
3DFACE
  8
0
 10
105.5718
 20
88.7224
 30
5.475463
 11
119.6179
 21
95.70043
 31
5.652131
 12
105.3283
 22
88.93076
 32
5.413921
 13
105.3283
 23
88.93076
 33
5.413921
  0
3DFACE
  8
0
 10
105.5718
 20
88.7224
 30
5.475463
 11
116.2278
 21
87.1496
 31
6.828866
 12
119.6179
 22
95.70043
 32
5.652131
 13
119.6179
 23
95.70043
 33
5.652131
  0
3DFACE
  8
0
 10
105.5718
 20
88.7224
 30
5.475463
 11
105.7514
 21
88.45782
 31
5.540547
 12
116.2278
 22
87.1496
 32
6.828866
 13
116.2278
 23
87.1496
 33
6.828866
  0
3DFACE
  8
0
 10
116.2278
 20
87.1496
 30
6.828866
 11
105.7514
 21
88.45782
 31
5.540547
 12
115.92
 22
87.04192
 32
6.81696
 13
115.92
 23
87.04192
 33
6.81696
  0
3DFACE
  8
0
 10
115.92
 20
87.04192
 30
6.81696
 11
105.7514
 21
88.45782
 31
5.540547
 12
105.8548
 22
88.15506
 32
5.604736
 13
105.8548
 23
88.15506
 33
5.604736
  0
3DFACE
  8
0
 10
105.8751
 20
87.83475
 30
5.663658
 11
115.92
 21
87.04192
 31
6.81696
 12
105.8548
 22
88.15506
 32
5.604736
 13
105.8548
 23
88.15506
 33
5.604736
  0
3DFACE
  8
0
 10
105.8751
 20
87.83475
 30
5.663658
 11
115.6495
 21
86.85956
 31
6.822074
 12
115.92
 22
87.04192
 32
6.81696
 13
115.92
 23
87.04192
 33
6.81696
  0
3DFACE
  8
0
 10
105.8751
 20
87.83475
 30
5.663658
 11
105.8107
 21
87.51871
 31
5.713295
 12
115.6495
 22
86.85956
 32
6.822074
 13
115.6495
 23
86.85956
 33
6.822074
  0
3DFACE
  8
0
 10
115.6495
 20
86.85956
 30
6.822074
 11
105.8107
 21
87.51871
 31
5.713295
 12
115.4346
 22
86.61492
 32
6.843859
 13
115.4346
 23
86.61492
 33
6.843859
  0
3DFACE
  8
0
 10
115.4346
 20
86.61492
 30
6.843859
 11
105.8107
 21
87.51871
 31
5.713295
 12
105.6662
 22
87.22849
 32
5.750265
 13
105.6662
 23
87.22849
 33
5.750265
  0
3DFACE
  8
0
 10
115.2901
 20
86.3247
 30
6.880829
 11
105.6662
 21
87.22849
 31
5.750265
 12
105.4513
 22
86.98386
 32
5.772049
 13
105.4513
 23
86.98386
 33
5.772049
  0
3DFACE
  8
0
 10
115.2258
 20
86.00867
 30
6.930466
 11
105.4513
 21
86.98386
 31
5.772049
 12
105.1808
 22
86.80149
 32
5.777163
 13
105.1808
 23
86.80149
 33
5.777163
  0
3DFACE
  8
0
 10
115.246
 20
85.68835
 30
6.989388
 11
105.1808
 21
86.80149
 31
5.777163
 12
115.3494
 22
85.38559
 32
7.053576
 13
115.3494
 23
85.38559
 33
7.053576
  0
3DFACE
  8
0
 10
115.246
 20
85.68835
 30
6.989388
 11
115.2258
 21
86.00867
 31
6.930466
 12
105.1808
 22
86.80149
 32
5.777163
 13
105.1808
 23
86.80149
 33
5.777163
  0
3DFACE
  8
0
 10
115.4346
 20
86.61492
 30
6.843859
 11
105.6662
 21
87.22849
 31
5.750265
 12
115.2901
 22
86.3247
 32
6.880829
 13
115.2901
 23
86.3247
 33
6.880829
  0
3DFACE
  8
0
 10
115.2901
 20
86.3247
 30
6.880829
 11
105.4513
 21
86.98386
 31
5.772049
 12
115.2258
 22
86.00867
 32
6.930466
 13
115.2258
 23
86.00867
 33
6.930466
  0
3DFACE
  8
0
 10
105.1808
 20
86.80149
 30
5.777163
 11
104.873
 21
86.69381
 31
5.765258
 12
115.3494
 22
85.38559
 32
7.053576
 13
115.3494
 23
85.38559
 33
7.053576
  0
3DFACE
  8
0
 10
115.3494
 20
85.38559
 30
7.053576
 11
104.873
 21
86.69381
 31
5.765258
 12
115.529
 22
85.12102
 32
7.11866
 13
115.529
 23
85.12102
 33
7.11866
  0
3DFACE
  8
0
 10
115.529
 20
85.12102
 30
7.11866
 11
104.873
 21
86.69381
 31
5.765258
 12
115.7725
 22
84.91266
 32
7.180202
 13
115.7725
 23
84.91266
 33
7.180202
  0
3DFACE
  8
0
 10
115.7725
 20
84.91266
 30
7.180202
 11
104.873
 21
86.69381
 31
5.765258
 12
104.5489
 22
86.66817
 32
5.737144
 13
104.5489
 23
86.66817
 33
5.737144
  0
3DFACE
  8
0
 10
116.0633
 20
84.77471
 30
7.23401
 11
104.5489
 21
86.66817
 31
5.737144
 12
122.5807
 22
80.77271
 32
8.601633
 13
122.5807
 23
80.77271
 33
8.601633
  0
3DFACE
  8
0
 10
116.3815
 20
84.71658
 30
7.276414
 11
122.5807
 21
80.77271
 31
8.601633
 12
116.7056
 22
84.74223
 32
7.304528
 13
116.7056
 23
84.74223
 33
7.304528
  0
3DFACE
  8
0
 10
116.3815
 20
84.71658
 30
7.276414
 11
116.0633
 21
84.77471
 31
7.23401
 12
122.5807
 22
80.77271
 32
8.601633
 13
122.5807
 23
80.77271
 33
8.601633
  0
3DFACE
  8
0
 10
122.5807
 20
80.77271
 30
8.601633
 11
104.5489
 21
86.66817
 31
5.737144
 12
96.76315
 22
86.0063
 32
5.069888
 13
96.76315
 23
86.0063
 33
5.069888
  0
3DFACE
  8
0
 10
96.76315
 20
86.0063
 30
5.069888
 11
104.5489
 21
86.66817
 31
5.737144
 12
104.2306
 22
86.7263
 32
5.694739
 13
104.2306
 23
86.7263
 33
5.694739
  0
3DFACE
  8
0
 10
103.9398
 20
86.86423
 30
5.640934
 11
96.76315
 21
86.0063
 31
5.069888
 12
104.2306
 22
86.7263
 32
5.694739
 13
104.2306
 23
86.7263
 33
5.694739
  0
3DFACE
  8
0
 10
116.2278
 20
87.1496
 30
6.828866
 11
116.5519
 21
87.17525
 31
6.856979
 12
119.6179
 22
95.70043
 32
5.652131
 13
119.6179
 23
95.70043
 33
5.652131
  0
3DFACE
  8
0
 10
119.6179
 20
95.70043
 30
5.652131
 11
116.5519
 21
87.17525
 31
6.856979
 12
116.8702
 22
87.11712
 32
6.899384
 13
116.8702
 23
87.11712
 33
6.899384
  0
3DFACE
  8
0
 10
117.161
 20
86.97918
 30
6.953191
 11
119.6179
 21
95.70043
 31
5.652131
 12
116.8702
 22
87.11712
 32
6.899384
 13
116.8702
 23
87.11712
 33
6.899384
  0
3DFACE
  8
0
 10
117.161
 20
86.97918
 30
6.953191
 11
117.4045
 21
86.77081
 31
7.014733
 12
119.6179
 22
95.70043
 32
5.652131
 13
119.6179
 23
95.70043
 33
5.652131
  0
3DFACE
  8
0
 10
119.6179
 20
95.70043
 30
5.652131
 11
117.4045
 21
86.77081
 31
7.014733
 12
117.584
 22
86.50624
 32
7.079816
 13
117.584
 23
86.50624
 33
7.079816
  0
3DFACE
  8
0
 10
122.5807
 20
80.77271
 30
8.601633
 11
117.584
 21
86.50624
 31
7.079816
 12
117.6875
 22
86.20348
 32
7.144006
 13
117.6875
 23
86.20348
 33
7.144006
  0
3DFACE
  8
0
 10
117.7077
 20
85.88316
 30
7.202927
 11
122.5807
 21
80.77271
 31
8.601633
 12
117.6875
 22
86.20348
 32
7.144006
 13
117.6875
 23
86.20348
 33
7.144006
  0
3DFACE
  8
0
 10
117.7077
 20
85.88316
 30
7.202927
 11
117.6434
 21
85.56713
 31
7.252564
 12
122.5807
 22
80.77271
 32
8.601633
 13
122.5807
 23
80.77271
 33
8.601633
  0
3DFACE
  8
0
 10
122.5807
 20
80.77271
 30
8.601633
 11
117.6434
 21
85.56713
 31
7.252564
 12
117.4988
 22
85.27691
 32
7.289535
 13
117.4988
 23
85.27691
 33
7.289535
  0
3DFACE
  8
0
 10
117.284
 20
85.03227
 30
7.311319
 11
122.5807
 21
80.77271
 31
8.601633
 12
117.4988
 22
85.27691
 32
7.289535
 13
117.4988
 23
85.27691
 33
7.289535
  0
3DFACE
  8
0
 10
117.284
 20
85.03227
 30
7.311319
 11
117.0134
 21
84.84991
 31
7.316433
 12
122.5807
 22
80.77271
 32
8.601633
 13
122.5807
 23
80.77271
 33
8.601633
  0
3DFACE
  8
0
 10
122.5807
 20
80.77271
 30
8.601633
 11
117.0134
 21
84.84991
 31
7.316433
 12
116.7056
 22
84.74223
 32
7.304528
 13
116.7056
 23
84.74223
 33
7.304528
  0
3DFACE
  8
0
 10
119.6179
 20
95.70043
 30
5.652131
 11
117.584
 21
86.50624
 31
7.079816
 12
122.5807
 22
80.77271
 32
8.601633
 13
122.5807
 23
80.77271
 33
8.601633
  0
3DFACE
  8
0
 10
116.0633
 20
84.77471
 30
7.23401
 11
115.7725
 21
84.91266
 31
7.180202
 12
104.5489
 22
86.66817
 32
5.737144
 13
104.5489
 23
86.66817
 33
5.737144
  0
3DFACE
  8
0
 10
93.01435
 20
85.12124
 30
4.849185
 11
92.91093
 21
85.424
 31
4.784995
 12
80.39191
 22
88.01001
 32
3.06388
 13
80.39191
 23
88.01001
 33
3.06388
  0
3DFACE
  8
0
 10
93.19392
 20
84.85667
 30
4.914268
 11
80.39191
 21
88.01001
 31
3.06388
 12
93.4374
 22
84.64831
 32
4.975811
 13
93.4374
 23
84.64831
 33
4.975811
  0
3DFACE
  8
0
 10
93.19392
 20
84.85667
 30
4.914268
 11
93.01435
 21
85.12124
 31
4.849185
 12
80.39191
 22
88.01001
 32
3.06388
 13
80.39191
 23
88.01001
 33
3.06388
  0
3DFACE
  8
0
 10
92.91093
 20
85.424
 30
4.784995
 11
92.89069
 21
85.74432
 31
4.726074
 12
80.39191
 22
88.01001
 32
3.06388
 13
80.39191
 23
88.01001
 33
3.06388
  0
3DFACE
  8
0
 10
80.39191
 20
88.01001
 30
3.06388
 11
92.89069
 21
85.74432
 31
4.726074
 12
92.95502
 22
86.06036
 32
4.676436
 13
92.95502
 23
86.06036
 33
4.676436
  0
3DFACE
  8
0
 10
93.09954
 20
86.35058
 30
4.639466
 11
80.39191
 21
88.01001
 31
3.06388
 12
92.95502
 22
86.06036
 32
4.676436
 13
92.95502
 23
86.06036
 33
4.676436
  0
3DFACE
  8
0
 10
93.09954
 20
86.35058
 30
4.639466
 11
93.31439
 21
86.59521
 31
4.617681
 12
80.39191
 22
88.01001
 32
3.06388
 13
80.39191
 23
88.01001
 33
3.06388
  0
3DFACE
  8
0
 10
80.39191
 20
88.01001
 30
3.06388
 11
93.31439
 21
86.59521
 31
4.617681
 12
93.58495
 22
86.77758
 32
4.612567
 13
93.58495
 23
86.77758
 33
4.612567
  0
3DFACE
  8
0
 10
93.89275
 20
86.88525
 30
4.624473
 11
80.39191
 21
88.01001
 31
3.06388
 12
93.58495
 22
86.77758
 32
4.612567
 13
93.58495
 23
86.77758
 33
4.612567
  0
3DFACE
  8
0
 10
93.89275
 20
86.88525
 30
4.624473
 11
78.88528
 21
95.60513
 31
1.563278
 12
80.39191
 22
88.01001
 32
3.06388
 13
80.39191
 23
88.01001
 33
3.06388
  0
3DFACE
  8
0
 10
94.82591
 20
86.71483
 30
4.748798
 11
95.06939
 21
86.50647
 31
4.81034
 12
96.76315
 22
86.0063
 32
5.069888
 13
96.76315
 23
86.0063
 33
5.069888
  0
3DFACE
  8
0
 10
96.76315
 20
86.0063
 30
5.069888
 11
95.06939
 21
86.50647
 31
4.81034
 12
95.24895
 22
86.2419
 32
4.875424
 13
95.24895
 23
86.2419
 33
4.875424
  0
3DFACE
  8
0
 10
95.35239
 20
85.93913
 30
4.939613
 11
96.76315
 21
86.0063
 31
5.069888
 12
95.24895
 22
86.2419
 32
4.875424
 13
95.24895
 23
86.2419
 33
4.875424
  0
3DFACE
  8
0
 10
95.35239
 20
85.93913
 30
4.939613
 11
95.37263
 21
85.61882
 31
4.998535
 12
96.76315
 22
86.0063
 32
5.069888
 13
96.76315
 23
86.0063
 33
5.069888
  0
3DFACE
  8
0
 10
96.76315
 20
86.0063
 30
5.069888
 11
95.37263
 21
85.61882
 31
4.998535
 12
95.3083
 22
85.30278
 32
5.048172
 13
95.3083
 23
85.30278
 33
5.048172
  0
3DFACE
  8
0
 10
95.16377
 20
85.01256
 30
5.085142
 11
96.76315
 21
86.0063
 31
5.069888
 12
95.3083
 22
85.30278
 32
5.048172
 13
95.3083
 23
85.30278
 33
5.048172
  0
3DFACE
  8
0
 10
95.16377
 20
85.01256
 30
5.085142
 11
94.94892
 21
84.76793
 31
5.106926
 12
96.76315
 22
86.0063
 32
5.069888
 13
96.76315
 23
86.0063
 33
5.069888
  0
3DFACE
  8
0
 10
96.76315
 20
86.0063
 30
5.069888
 11
94.94892
 21
84.76793
 31
5.106926
 12
97.77699
 22
80.89825
 32
6.079166
 13
97.77699
 23
80.89825
 33
6.079166
  0
3DFACE
  8
0
 10
97.77699
 20
80.89825
 30
6.079166
 11
94.94892
 21
84.76793
 31
5.106926
 12
94.67837
 22
84.58556
 32
5.11204
 13
94.67837
 23
84.58556
 33
5.11204
  0
3DFACE
  8
0
 10
94.37057
 20
84.47788
 30
5.100135
 11
97.77699
 21
80.89825
 31
6.079166
 12
94.67837
 22
84.58556
 32
5.11204
 13
94.67837
 23
84.58556
 33
5.11204
  0
3DFACE
  8
0
 10
94.37057
 20
84.47788
 30
5.100135
 11
94.04648
 21
84.45224
 31
5.072021
 12
97.77699
 22
80.89825
 32
6.079166
 13
97.77699
 23
80.89825
 33
6.079166
  0
3DFACE
  8
0
 10
97.77699
 20
80.89825
 30
6.079166
 11
94.04648
 21
84.45224
 31
5.072021
 12
93.7282
 22
84.51037
 32
5.029617
 13
93.7282
 23
84.51037
 33
5.029617
  0
3DFACE
  8
0
 10
93.4374
 20
84.64831
 30
4.975811
 11
97.77699
 21
80.89825
 31
6.079166
 12
93.7282
 22
84.51037
 32
5.029617
 13
93.7282
 23
84.51037
 33
5.029617
  0
3DFACE
  8
0
 10
93.4374
 20
84.64831
 30
4.975811
 11
80.39191
 21
88.01001
 31
3.06388
 12
97.77699
 22
80.89825
 32
6.079166
 13
97.77699
 23
80.89825
 33
6.079166
  0
3DFACE
  8
0
 10
66.81068
 20
87.87602
 30
1.718709
 11
76.2909
 21
86.93779
 31
2.840909
 12
67.08124
 22
88.0584
 32
1.713595
 13
67.08124
 23
88.0584
 33
1.713595
  0
3DFACE
  8
0
 10
67.08124
 20
88.0584
 30
1.713595
 11
76.35523
 21
87.25382
 31
2.791272
 12
67.29609
 22
88.30302
 32
1.691811
 13
67.29609
 23
88.30302
 33
1.691811
  0
3DFACE
  8
0
 10
67.29609
 20
88.30302
 30
1.691811
 11
76.49974
 21
87.54405
 31
2.754301
 12
67.44061
 22
88.59325
 32
1.65484
 13
67.44061
 23
88.59325
 33
1.65484
  0
3DFACE
  8
0
 10
67.44061
 20
88.59325
 30
1.65484
 11
76.7146
 21
87.78868
 31
2.732516
 12
67.50494
 22
88.90928
 32
1.605204
 13
67.50494
 23
88.90928
 33
1.605204
  0
3DFACE
  8
0
 10
66.02506
 20
90.17572
 30
1.231142
 11
66.34915
 21
90.20137
 31
1.259255
 12
74.55674
 22
95.79479
 32
1.093289
 13
74.55674
 23
95.79479
 33
1.093289
  0
3DFACE
  8
0
 10
74.55674
 20
95.79479
 30
1.093289
 11
66.34915
 21
90.20137
 31
1.259255
 12
74.57697
 22
95.47449
 32
1.152209
 13
74.57697
 23
95.47449
 33
1.152209
  0
3DFACE
  8
0
 10
67.4847
 20
89.2296
 30
1.546283
 11
67.50494
 21
88.90928
 31
1.605204
 12
76.98515
 22
87.97105
 32
2.727402
 13
76.98515
 23
87.97105
 33
2.727402
  0
ENDSEC
  0
EOF
 
