700 0 1 0           
33 Autodesk Inventor 19.0.15900.0000 19 ASM 220.0.0.5900 NT 24 Fri Nov 25 18:51:41 2016 
1 9.9999999999999995e-007 1e-010 
body $1 -1 $-1 $2 $-1 $-1 #
DXID-attrib $-1 -1 $-1 $-1 $0 @10 ASM ENTITY @37 D:\Projects\Lab\Arbol\cad\Arbol.ipt\2 #
lump $-1 -1 $-1 $-1 $3 $0 #
shell $-1 -1 $-1 $-1 $-1 $4 $-1 $2 #
face $-1 -1 $-1 $5 $6 $3 $-1 $7 reversed single #
face $-1 -1 $-1 $8 $9 $3 $-1 $10 reversed single #
loop $-1 -1 $-1 $11 $12 $4 #
cone-surface $-1 -1 $-1 97.499818893205742 0 -58.218841448781298 0 1 0 2.4999999999999942 0 0 1 I I 0 1 2.4999999999999942 forward I I I I #
face $-1 -1 $-1 $13 $14 $3 $-1 $15 reversed single #
loop $-1 -1 $-1 $16 $17 $5 #
cone-surface $-1 -1 $-1 75.002524632345754 0 -49.677541415601496 0 1 0 2.500000000000004 0 0 1 I I 0 1 2.500000000000004 forward I I I I #
loop $-1 -1 $-1 $-1 $18 $4 #
coedge $-1 -1 $-1 $12 $12 $19 $20 reversed $6 $-1 #
face $-1 -1 $-1 $21 $22 $3 $-1 $23 reversed single #
loop $-1 -1 $-1 $24 $25 $8 #
cone-surface $-1 -1 $-1 53.587941584872063 0 -49.677541415601496 0 1 0 2.5000000000000004 0 0 1 I I 0 1 2.5000000000000004 forward I I I I #
loop $-1 -1 $-1 $-1 $26 $5 #
coedge $-1 -1 $-1 $17 $17 $27 $28 reversed $9 $-1 #
coedge $-1 -1 $-1 $18 $18 $29 $30 reversed $11 $-1 #
coedge $-1 -1 $-1 $19 $19 $12 $20 forward $31 $-1 #
edge $-1 -1 $-1 $32 -3.1415926535897931 $32 3.1415926535897931 $19 $33 forward @7 unknown #
face $-1 -1 $-1 $34 $35 $3 $-1 $36 reversed single #
loop $-1 -1 $-1 $37 $38 $13 #
cone-surface $-1 -1 $-1 21.37721397408297 0 -40.480025067414154 0 1 0 2.5000000000000018 0 0 1 I I 0 1 2.5000000000000018 forward I I I I #
loop $-1 -1 $-1 $-1 $39 $8 #
coedge $-1 -1 $-1 $25 $25 $40 $41 reversed $14 $-1 #
coedge $-1 -1 $-1 $26 $26 $42 $43 reversed $16 $-1 #
coedge $-1 -1 $-1 $27 $27 $17 $28 forward $44 $-1 #
edge $-1 -1 $-1 $45 -3.1415926535897931 $45 3.1415926535897931 $27 $46 forward @7 unknown #
coedge $-1 -1 $-1 $29 $29 $18 $30 forward $47 $-1 #
edge $-1 -1 $-1 $48 -3.1415926535897931 $48 3.1415926535897931 $29 $49 forward @7 unknown #
loop $-1 -1 $-1 $44 $19 $50 #
vertex $-1 -1 $-1 $20 $51 #
ellipse-curve $-1 -1 $-1 97.499818893205742 1 -58.218841448781298 -0 -1 -0 2.4999999999999942 0 0 1 I I #
face $-1 -1 $-1 $52 $53 $3 $-1 $54 reversed single #
loop $-1 -1 $-1 $55 $56 $21 #
cone-surface $-1 -1 $-1 75.002524632345754 0 -12.733291835541781 0 1 0 2.500000000000004 0 0 1 I I 0 1 2.500000000000004 forward I I I I #
loop $-1 -1 $-1 $-1 $57 $13 #
coedge $-1 -1 $-1 $38 $38 $58 $59 reversed $22 $-1 #
coedge $-1 -1 $-1 $39 $39 $60 $61 reversed $24 $-1 #
coedge $-1 -1 $-1 $40 $40 $25 $41 forward $62 $-1 #
edge $-1 -1 $-1 $63 -3.1415926535897931 $63 3.1415926535897931 $40 $64 forward @7 unknown #
coedge $-1 -1 $-1 $42 $42 $26 $43 forward $65 $-1 #
edge $-1 -1 $-1 $66 -3.1415926535897931 $66 3.1415926535897931 $42 $67 forward @7 unknown #
loop $-1 -1 $-1 $62 $27 $50 #
vertex $-1 -1 $-1 $28 $68 #
ellipse-curve $-1 -1 $-1 75.002524632345754 1 -49.677541415601496 -0 -1 -0 2.500000000000004 0 0 1 I I #
loop $-1 -1 $-1 $65 $29 $69 #
vertex $-1 -1 $-1 $30 $70 #
ellipse-curve $-1 -1 $-1 97.499818893205742 0 -58.218841448781298 0 1 0 2.4999999999999942 0 0 1 I I #
face $-1 -1 $-1 $-1 $31 $3 $-1 $71 forward single #
point $-1 -1 $-1 94.999818893205742 1 -58.218841448781298 #
face $-1 -1 $-1 $72 $73 $3 $-1 $74 reversed single #
loop $-1 -1 $-1 $75 $76 $34 #
cone-surface $-1 -1 $-1 97.499818893205742 0 -3.8659719281419092 0 1 0 2.4999999999999942 0 0 1 I I 0 1 2.4999999999999942 forward I I I I #
loop $-1 -1 $-1 $-1 $77 $21 #
coedge $-1 -1 $-1 $56 $56 $78 $79 reversed $35 $-1 #
coedge $-1 -1 $-1 $57 $57 $80 $81 reversed $37 $-1 #
coedge $-1 -1 $-1 $58 $58 $38 $59 forward $82 $-1 #
edge $-1 -1 $-1 $83 -3.1415926535897931 $83 3.1415926535897931 $58 $84 forward @7 unknown #
coedge $-1 -1 $-1 $60 $60 $39 $61 forward $85 $-1 #
edge $-1 -1 $-1 $86 -3.1415926535897931 $86 3.1415926535897931 $60 $87 forward @7 unknown #
loop $-1 -1 $-1 $82 $40 $50 #
vertex $-1 -1 $-1 $41 $88 #
ellipse-curve $-1 -1 $-1 53.587941584872063 1 -49.677541415601496 -0 -1 -0 2.5000000000000004 0 0 1 I I #
loop $-1 -1 $-1 $85 $42 $69 #
vertex $-1 -1 $-1 $43 $89 #
ellipse-curve $-1 -1 $-1 75.002524632345754 0 -49.677541415601496 0 1 0 2.500000000000004 0 0 1 I I #
point $-1 -1 $-1 72.502524632345754 1 -49.677541415601496 #
face $-1 -1 $-1 $50 $47 $3 $-1 $90 reversed single #
point $-1 -1 $-1 94.999818893205742 0 -58.218841448781298 #
plane-surface $-1 -1 $-1 66.177412929618498 1 -31.039163189187121 0 1 0 0 0 10 forward_v I I I I #
face $-1 -1 $-1 $91 $92 $3 $-1 $93 reversed single #
loop $-1 -1 $-1 $94 $95 $52 #
cone-surface $-1 -1 $-1 53.494036573155952 0 -12.733291835541781 0 1 0 2.5000000000000004 0 0 1 I I 0 1 2.5000000000000004 forward I I I I #
loop $-1 -1 $-1 $-1 $96 $34 #
coedge $-1 -1 $-1 $76 $76 $97 $98 reversed $53 $-1 #
coedge $-1 -1 $-1 $77 $77 $99 $100 reversed $55 $-1 #
coedge $-1 -1 $-1 $78 $78 $56 $79 forward $101 $-1 #
edge $-1 -1 $-1 $102 -3.1415926535897931 $102 3.1415926535897931 $78 $103 forward @7 unknown #
coedge $-1 -1 $-1 $80 $80 $57 $81 forward $104 $-1 #
edge $-1 -1 $-1 $105 -3.1415926535897931 $105 3.1415926535897931 $80 $106 forward @7 unknown #
loop $-1 -1 $-1 $101 $58 $50 #
vertex $-1 -1 $-1 $59 $107 #
ellipse-curve $-1 -1 $-1 21.37721397408297 1 -40.480025067414154 -0 -1 -0 2.5000000000000018 0 0 1 I I #
loop $-1 -1 $-1 $104 $60 $69 #
vertex $-1 -1 $-1 $61 $108 #
ellipse-curve $-1 -1 $-1 53.587941584872063 0 -49.677541415601496 0 1 0 2.5000000000000004 0 0 1 I I #
point $-1 -1 $-1 51.087941584872063 1 -49.677541415601496 #
point $-1 -1 $-1 72.502524632345754 0 -49.677541415601496 #
plane-surface $-1 -1 $-1 66.177412929618498 0 -31.039163189187121 0 1 0 0 0 10 forward_v I I I I #
face $-1 -1 $-1 $109 $110 $3 $-1 $111 reversed single #
loop $-1 -1 $-1 $112 $113 $72 #
cone-surface $-1 -1 $-1 21.330481422310882 0 -22.094434941496868 0 1 0 2.5000000000000018 0 0 1 I I 0 1 2.5000000000000018 forward I I I I #
loop $-1 -1 $-1 $-1 $114 $52 #
coedge $-1 -1 $-1 $95 $95 $115 $116 reversed $73 $-1 #
coedge $-1 -1 $-1 $96 $96 $117 $118 reversed $75 $-1 #
coedge $-1 -1 $-1 $97 $97 $76 $98 forward $119 $-1 #
edge $-1 -1 $-1 $120 -3.1415926535897931 $120 3.1415926535897931 $97 $121 forward @7 unknown #
coedge $-1 -1 $-1 $99 $99 $77 $100 forward $122 $-1 #
edge $-1 -1 $-1 $123 -3.1415926535897931 $123 3.1415926535897931 $99 $124 forward @7 unknown #
loop $-1 -1 $-1 $119 $78 $50 #
vertex $-1 -1 $-1 $79 $125 #
ellipse-curve $-1 -1 $-1 75.002524632345754 1 -12.733291835541781 -0 -1 -0 2.500000000000004 0 0 1 I I #
loop $-1 -1 $-1 $122 $80 $69 #
vertex $-1 -1 $-1 $81 $126 #
ellipse-curve $-1 -1 $-1 21.37721397408297 0 -40.480025067414154 0 1 0 2.5000000000000018 0 0 1 I I #
point $-1 -1 $-1 18.877213974082967 1 -40.480025067414154 #
point $-1 -1 $-1 51.087941584872063 0 -49.677541415601496 #
face $-1 -1 $-1 $127 $128 $3 $-1 $129 forward single #
loop $-1 -1 $-1 $130 $131 $91 #
cone-surface $-1 -1 $-1 0 0 -31.014081589424023 0 1 0 2.5 0 0 1 I I 0 1 2.5 forward I I I I #
loop $-1 -1 $-1 $-1 $132 $72 #
coedge $-1 -1 $-1 $113 $113 $133 $134 reversed $92 $-1 #
coedge $-1 -1 $-1 $114 $114 $135 $136 reversed $94 $-1 #
coedge $-1 -1 $-1 $115 $115 $95 $116 forward $137 $-1 #
edge $-1 -1 $-1 $138 -3.1415926535897931 $138 3.1415926535897931 $115 $139 forward @7 unknown #
coedge $-1 -1 $-1 $117 $117 $96 $118 forward $140 $-1 #
edge $-1 -1 $-1 $141 -3.1415926535897931 $141 3.1415926535897931 $117 $142 forward @7 unknown #
loop $-1 -1 $-1 $137 $97 $50 #
vertex $-1 -1 $-1 $98 $143 #
ellipse-curve $-1 -1 $-1 97.499818893205742 1 -3.8659719281419092 -0 -1 -0 2.4999999999999942 0 0 1 I I #
loop $-1 -1 $-1 $140 $99 $69 #
vertex $-1 -1 $-1 $100 $144 #
ellipse-curve $-1 -1 $-1 75.002524632345754 0 -12.733291835541781 0 1 0 2.500000000000004 0 0 1 I I #
point $-1 -1 $-1 72.502524632345754 1 -12.733291835541781 #
point $-1 -1 $-1 18.877213974082967 0 -40.480025067414154 #
face $-1 -1 $-1 $145 $146 $3 $-1 $147 forward single #
loop $-1 -1 $-1 $-1 $148 $109 #
plane-surface $-1 -1 $-1 107.49953032583187 0 -21.985920631381198 -0.0025417949866604738 0 0.99999676963390527 9.999967696339052 0 0.025417949866604738 forward_v I I I I #
loop $-1 -1 $-1 $-1 $149 $91 #
coedge $-1 -1 $-1 $131 $131 $150 $151 reversed $110 $-1 #
coedge $-1 -1 $-1 $132 $132 $152 $153 reversed $112 $-1 #
coedge $-1 -1 $-1 $133 $133 $113 $134 forward $154 $-1 #
edge $-1 -1 $-1 $155 -3.1415926535897931 $155 3.1415926535897931 $133 $156 forward @7 unknown #
coedge $-1 -1 $-1 $135 $135 $114 $136 forward $157 $-1 #
edge $-1 -1 $-1 $158 -3.1415926535897931 $158 3.1415926535897931 $135 $159 forward @7 unknown #
loop $-1 -1 $-1 $154 $115 $50 #
vertex $-1 -1 $-1 $116 $160 #
ellipse-curve $-1 -1 $-1 53.494036573155952 1 -12.733291835541781 -0 -1 -0 2.5000000000000004 0 0 1 I I #
loop $-1 -1 $-1 $157 $117 $69 #
vertex $-1 -1 $-1 $118 $161 #
ellipse-curve $-1 -1 $-1 97.499818893205742 0 -3.8659719281419092 0 1 0 2.4999999999999942 0 0 1 I I #
point $-1 -1 $-1 94.999818893205742 1 -3.8659719281419087 #
point $-1 -1 $-1 72.502524632345754 0 -12.733291835541781 #
face $-1 -1 $-1 $162 $163 $3 $-1 $164 forward single #
loop $-1 -1 $-1 $-1 $165 $127 #
plane-surface $-1 -1 $-1 107.49953032583187 0 9.0182703538999487 1 0 0 0 0 -10 forward_v I I I I #
coedge $-1 -1 $-1 $166 $167 $168 $169 reversed $128 $-1 #
coedge $-1 -1 $-1 $149 $149 $170 $171 reversed $130 $-1 #
coedge $-1 -1 $-1 $150 $150 $131 $151 forward $172 $-1 #
edge $-1 -1 $-1 $173 -3.1415926535897931 $173 3.1415926535897931 $150 $174 forward @7 unknown #
coedge $-1 -1 $-1 $152 $152 $132 $153 forward $175 $-1 #
edge $-1 -1 $-1 $176 -3.1415926535897931 $176 3.1415926535897931 $152 $177 forward @7 unknown #
loop $-1 -1 $-1 $172 $133 $50 #
vertex $-1 -1 $-1 $134 $178 #
ellipse-curve $-1 -1 $-1 21.330481422310882 1 -22.094434941496868 -0 -1 -0 2.5000000000000018 0 0 1 I I #
loop $-1 -1 $-1 $175 $135 $69 #
vertex $-1 -1 $-1 $136 $179 #
ellipse-curve $-1 -1 $-1 53.494036573155952 0 -12.733291835541781 0 1 0 2.5000000000000004 0 0 1 I I #
point $-1 -1 $-1 50.994036573155952 1 -12.733291835541781 #
point $-1 -1 $-1 94.999818893205742 0 -3.8659719281419087 #
face $-1 -1 $-1 $180 $181 $3 $-1 $182 forward single #
loop $-1 -1 $-1 $-1 $183 $145 #
plane-surface $-1 -1 $-1 58.793287396852037 0 -12.273811311043945 -0.4005519728430329 0 0.91627404036759341 9.1627404036759348 0 4.005519728430329 forward_v I I I I #
coedge $-1 -1 $-1 $184 $185 $186 $187 reversed $146 $-1 #
coedge $-1 -1 $-1 $188 $148 $189 $190 forward $128 $-1 #
coedge $-1 -1 $-1 $148 $188 $184 $191 reversed $128 $-1 #
coedge $-1 -1 $-1 $186 $192 $148 $169 forward $193 $-1 #
edge $-1 -1 $-1 $194 -0 $195 2.1293757071020112 $168 $196 forward @7 unknown #
coedge $-1 -1 $-1 $170 $170 $149 $171 forward $197 $-1 #
edge $-1 -1 $-1 $198 -3.1415926535897931 $198 3.1415926535897931 $170 $199 forward @7 unknown #
loop $-1 -1 $-1 $200 $150 $50 #
vertex $-1 -1 $-1 $151 $201 #
ellipse-curve $-1 -1 $-1 0 1 -31.014081589424023 -0 -1 -0 2.5 0 0 1 I I #
loop $-1 -1 $-1 $197 $152 $69 #
vertex $-1 -1 $-1 $153 $202 #
ellipse-curve $-1 -1 $-1 21.330481422310882 0 -22.094434941496868 0 1 0 2.5000000000000018 0 0 1 I I #
point $-1 -1 $-1 18.830481422310882 1 -22.094434941496868 #
point $-1 -1 $-1 50.994036573155952 0 -12.733291835541781 #
face $-1 -1 $-1 $203 $204 $3 $-1 $205 forward single #
loop $-1 -1 $-1 $-1 $206 $162 #
plane-surface $-1 -1 $-1 58.79328739685203 0 -1.6646140352386296 1 0 0 0 0 -10 forward_v I I I I #
coedge $-1 -1 $-1 $207 $208 $209 $210 reversed $163 $-1 #
coedge $-1 -1 $-1 $211 $165 $167 $191 forward $146 $-1 #
coedge $-1 -1 $-1 $165 $211 $207 $212 reversed $146 $-1 #
coedge $-1 -1 $-1 $209 $168 $165 $187 forward $193 $-1 #
edge $-1 -1 $-1 $195 0 $213 3.1004190985281141 $186 $214 forward @7 unknown #
coedge $-1 -1 $-1 $167 $166 $215 $216 reversed $128 $-1 #
coedge $-1 -1 $-1 $217 $218 $166 $190 reversed $219 $-1 #
edge $-1 -1 $-1 $194 0 $220 0.10000000000000001 $189 $221 forward @7 unknown #
edge $-1 -1 $-1 $195 0 $222 0.10000000000000001 $184 $223 forward @7 unknown #
coedge $-1 -1 $-1 $168 $224 $217 $225 forward $193 $-1 #
loop $-1 -1 $-1 $-1 $192 $69 #
vertex $-1 -1 $-1 $225 $226 #
vertex $-1 -1 $-1 $169 $227 #
straight-curve $-1 -1 $-1 128.79321861022112 0 -21.931796266410913 -9.999967696339052 -0 -0.025417949866604738 F -0 F 2.1293757071020112 #
loop $-1 -1 $-1 $193 $170 $69 #
vertex $-1 -1 $-1 $171 $228 #
ellipse-curve $-1 -1 $-1 0 0 -31.014081589424023 0 1 0 2.5 0 0 1 I I #
loop $-1 -1 $-1 $-1 $229 $50 #
point $-1 -1 $-1 -2.5 1 -31.014081589424023 #
point $-1 -1 $-1 18.830481422310882 0 -22.094434941496868 #
face $-1 -1 $-1 $230 $231 $3 $-1 $232 forward single #
loop $-1 -1 $-1 $-1 $233 $180 #
plane-surface $-1 -1 $-1 27.395082305107557 0 -23.153999884784465 -0.56479854396705076 0 0.8252288196207761 8.2522881962077612 0 5.6479854396705074 forward_v I I I I #
coedge $-1 -1 $-1 $234 $235 $236 $237 reversed $181 $-1 #
coedge $-1 -1 $-1 $238 $183 $185 $212 forward $163 $-1 #
coedge $-1 -1 $-1 $183 $238 $234 $239 reversed $163 $-1 #
coedge $-1 -1 $-1 $236 $186 $183 $210 forward $193 $-1 #
edge $-1 -1 $-1 $213 -0 $240 5.3156851316490128 $209 $241 forward @7 unknown #
coedge $-1 -1 $-1 $185 $184 $242 $243 reversed $146 $-1 #
edge $-1 -1 $-1 $213 0 $244 0.10000000000000001 $207 $245 forward @7 unknown #
vertex $-1 -1 $-1 $187 $246 #
straight-curve $-1 -1 $-1 107.49953032583187 0 -21.985920631381191 0 0 10 F 0 F 3.1004190985281141 #
coedge $-1 -1 $-1 $229 $242 $188 $216 forward $200 $-1 #
edge $-1 -1 $-1 $222 -2.1293757071020112 $220 0 $188 $247 forward @7 unknown #
coedge $-1 -1 $-1 $248 $189 $192 $225 reversed $219 $-1 #
coedge $-1 -1 $-1 $189 $248 $229 $249 reversed $219 $-1 #
loop $-1 -1 $-1 $-1 $217 $250 #
vertex $-1 -1 $-1 $190 $251 #
straight-curve $-1 -1 $-1 128.79321861022112 0 -21.931796266410913 0 10 0 I I #
vertex $-1 -1 $-1 $191 $252 #
straight-curve $-1 -1 $-1 107.49953032583187 0 -21.985920631381198 0 10 0 I I #
coedge $-1 -1 $-1 $192 $253 $254 $255 forward $193 $-1 #
edge $-1 -1 $-1 $256 0 $194 0.90823146622144602 $192 $257 forward @7 unknown #
point $-1 -1 $-1 128.79321861022112 0 -21.931796266410913 #
point $-1 -1 $-1 107.49953032583187 0 -21.985920631381198 #
point $-1 -1 $-1 -2.5 0 -31.014081589424023 #
coedge $-1 -1 $-1 $258 $215 $218 $249 forward $200 $-1 #
face $-1 -1 $-1 $259 $260 $3 $-1 $261 forward single #
loop $-1 -1 $-1 $-1 $262 $203 #
plane-surface $-1 -1 $-1 27.395082305107557 0 -12.734618103545994 1 0 0 0 0 -10 forward_v I I I I #
coedge $-1 -1 $-1 $263 $264 $265 $266 reversed $204 $-1 #
coedge $-1 -1 $-1 $267 $206 $208 $239 forward $181 $-1 #
coedge $-1 -1 $-1 $206 $267 $263 $268 reversed $181 $-1 #
coedge $-1 -1 $-1 $265 $209 $206 $237 forward $193 $-1 #
edge $-1 -1 $-1 $240 0 $269 1.060919727580532 $236 $270 forward @7 unknown #
coedge $-1 -1 $-1 $208 $207 $271 $272 reversed $163 $-1 #
edge $-1 -1 $-1 $240 0 $273 0.10000000000000001 $234 $274 forward @7 unknown #
vertex $-1 -1 $-1 $210 $275 #
straight-curve $-1 -1 $-1 107.49953032583187 0 9.0182703538999469 -9.1627404036759348 -0 -4.005519728430329 F -0 F 5.3156851316490128 #
coedge $-1 -1 $-1 $215 $271 $211 $243 forward $200 $-1 #
edge $-1 -1 $-1 $244 -3.1004190985281141 $222 -0 $211 $276 forward @7 unknown #
vertex $-1 -1 $-1 $212 $277 #
straight-curve $-1 -1 $-1 107.49953032583187 0 9.0182703538999469 0 10 0 I I #
point $-1 -1 $-1 107.49953032583187 0 9.0182703538999469 #
straight-curve $-1 -1 $-1 128.79321861022112 1 -21.931796266410913 9.999967696339052 0 0.025417949866604738 I I #
coedge $-1 -1 $-1 $218 $217 $278 $279 forward $219 $-1 #
edge $-1 -1 $-1 $220 -0.90823146622144602 $280 -0 $218 $281 forward @7 unknown #
face $-1 -1 $-1 $69 $219 $3 $-1 $282 forward single #
point $-1 -1 $-1 128.79321861022112 1 -21.931796266410913 #
point $-1 -1 $-1 107.49953032583187 1 -21.985920631381198 #
coedge $-1 -1 $-1 $224 $283 $284 $285 forward $193 $-1 #
coedge $-1 -1 $-1 $286 $278 $224 $255 reversed $287 $-1 #
edge $-1 -1 $-1 $288 0 $256 0.90823146622144524 $224 $289 forward @7 unknown #
vertex $-1 -1 $-1 $225 $290 #
straight-curve $-1 -1 $-1 128.81630399209678 0 -31.014081589424023 -0.025417949866579945 0 9.999967696339052 F 0 F 0.90823146622144602 #
coedge $-1 -1 $-1 $291 $229 $292 $293 forward $200 $-1 #
face $-1 -1 $-1 $294 $295 $3 $-1 $296 forward single #
loop $-1 -1 $-1 $-1 $297 $230 #
plane-surface $-1 -1 $-1 -11.206712603147926 0 -30.712382845929547 -0.42218328069706701 0 0.90651049497502334 9.0651049497502338 0 4.2218328069706699 forward_v I I I I #
coedge $-1 -1 $-1 $298 $299 $300 $301 reversed $231 $-1 #
coedge $-1 -1 $-1 $302 $233 $235 $268 forward $204 $-1 #
coedge $-1 -1 $-1 $233 $302 $298 $303 reversed $204 $-1 #
coedge $-1 -1 $-1 $300 $236 $233 $266 forward $193 $-1 #
edge $-1 -1 $-1 $269 -0 $304 3.8047877564640964 $265 $305 forward @7 unknown #
coedge $-1 -1 $-1 $235 $234 $306 $307 reversed $181 $-1 #
edge $-1 -1 $-1 $269 0 $308 0.10000000000000001 $263 $309 forward @7 unknown #
vertex $-1 -1 $-1 $237 $310 #
straight-curve $-1 -1 $-1 58.79328739685203 0 -12.27381131104395 0 0 10 F 0 F 1.060919727580532 #
coedge $-1 -1 $-1 $242 $306 $238 $272 forward $200 $-1 #
edge $-1 -1 $-1 $273 -5.3156851316490128 $244 0 $238 $311 forward @7 unknown #
vertex $-1 -1 $-1 $239 $312 #
straight-curve $-1 -1 $-1 58.79328739685203 0 -12.27381131104395 0 10 0 I I #
point $-1 -1 $-1 58.79328739685203 0 -12.27381131104395 #
straight-curve $-1 -1 $-1 107.49953032583187 1 -21.985920631381191 0 0 -10 I I #
point $-1 -1 $-1 107.49953032583187 1 9.0182703538999487 #
coedge $-1 -1 $-1 $254 $292 $248 $279 reversed $287 $-1 #
edge $-1 -1 $-1 $256 0 $280 0.10000000000000001 $248 $313 forward @7 tangent #
vertex $-1 -1 $-1 $279 $314 #
straight-curve $-1 -1 $-1 128.81630399209678 1 -31.014081589424023 0.025417949866579945 0 -9.999967696339052 I I #
plane-surface $-1 -1 $-1 128.79321861022112 0 -21.931796266410913 0.99999676963390527 0 0.0025417949866579945 0.025417949866579945 0 -9.999967696339052 forward_v I I I I #
coedge $-1 -1 $-1 $253 $315 $316 $317 forward $193 $-1 #
coedge $-1 -1 $-1 $318 $319 $253 $285 reversed $320 $-1 #
edge $-1 -1 $-1 $321 0 $288 2.1315102162639015 $253 $322 forward @7 unknown #
coedge $-1 -1 $-1 $292 $254 $319 $323 forward $287 $-1 #
loop $-1 -1 $-1 $-1 $254 $324 #
vertex $-1 -1 $-1 $285 $325 #
straight-curve $-1 -1 $-1 128.81630399209678 0 -40.096396251638481 1.9558415508223965e-014 0 10 F 0 F 0.90823146622144524 #
point $-1 -1 $-1 128.81630399209678 0 -31.014081589424023 #
coedge $-1 -1 $-1 $326 $258 $327 $328 forward $200 $-1 #
coedge $-1 -1 $-1 $278 $286 $258 $293 reversed $287 $-1 #
edge $-1 -1 $-1 $280 -0.90823146622144524 $329 -0 $292 $330 forward @7 unknown #
face $-1 -1 $-1 $331 $332 $3 $-1 $333 forward single #
loop $-1 -1 $-1 $-1 $334 $259 #
plane-surface $-1 -1 $-1 -11.20504109952204 0 -31.369988292112367 -0.99999676963390527 0 -0.00254179498666147 -0.025417949866614699 0 9.999967696339052 forward_v I I I I #
coedge $-1 -1 $-1 $335 $336 $337 $338 reversed $260 $-1 #
coedge $-1 -1 $-1 $339 $262 $264 $303 forward $231 $-1 #
coedge $-1 -1 $-1 $262 $339 $335 $340 reversed $231 $-1 #
coedge $-1 -1 $-1 $337 $265 $262 $301 forward $193 $-1 #
edge $-1 -1 $-1 $304 0 $341 1.041938178123847 $300 $342 forward @7 unknown #
coedge $-1 -1 $-1 $264 $263 $343 $344 reversed $204 $-1 #
edge $-1 -1 $-1 $304 0 $345 0.10000000000000001 $298 $346 forward @7 unknown #
vertex $-1 -1 $-1 $266 $347 #
straight-curve $-1 -1 $-1 58.79328739685203 0 -1.6646140352386318 -8.2522881962077612 -0 -5.6479854396705074 F -0 F 3.8047877564640964 #
coedge $-1 -1 $-1 $271 $343 $267 $307 forward $200 $-1 #
edge $-1 -1 $-1 $308 -1.060919727580532 $273 -0 $267 $348 forward @7 unknown #
vertex $-1 -1 $-1 $268 $349 #
straight-curve $-1 -1 $-1 58.79328739685203 0 -1.6646140352386298 0 10 0 I I #
point $-1 -1 $-1 58.79328739685203 0 -1.6646140352386298 #
straight-curve $-1 -1 $-1 107.49953032583187 1 9.0182703538999469 9.1627404036759348 0 4.005519728430329 I I #
point $-1 -1 $-1 58.79328739685203 1 -12.27381131104395 #
straight-curve $-1 -1 $-1 128.81630399209678 0 -31.014081589424023 0 10 0 I I #
point $-1 -1 $-1 128.81630399209678 1 -31.014081589424023 #
coedge $-1 -1 $-1 $283 $350 $351 $352 forward $193 $-1 #
coedge $-1 -1 $-1 $353 $354 $283 $317 reversed $355 $-1 #
edge $-1 -1 $-1 $356 0 $321 3.1004245240303279 $283 $357 forward @7 unknown #
coedge $-1 -1 $-1 $327 $284 $354 $358 forward $320 $-1 #
coedge $-1 -1 $-1 $284 $327 $286 $323 reversed $320 $-1 #
loop $-1 -1 $-1 $-1 $284 $359 #
vertex $-1 -1 $-1 $317 $360 #
straight-curve $-1 -1 $-1 107.50120182945776 0 -40.096396251638467 10 0 -4.166897314979419e-015 F 0 F 2.1315102162639015 #
edge $-1 -1 $-1 $288 0 $329 0.10000000000000001 $286 $361 forward @7 unknown #
face $-1 -1 $-1 $250 $287 $3 $-1 $362 forward single #
point $-1 -1 $-1 128.81630399209678 0 -40.096396251638481 #
coedge $-1 -1 $-1 $363 $291 $364 $365 forward $200 $-1 #
coedge $-1 -1 $-1 $319 $318 $291 $328 reversed $320 $-1 #
edge $-1 -1 $-1 $329 -2.1315102162639015 $366 -0 $327 $367 forward @7 unknown #
vertex $-1 -1 $-1 $323 $368 #
straight-curve $-1 -1 $-1 128.81630399209678 1 -40.096396251638481 -1.9558415508223965e-014 -0 -10 I I #
face $-1 -1 $-1 $369 $370 $3 $-1 $371 forward single #
loop $-1 -1 $-1 $-1 $372 $294 #
plane-surface $-1 -1 $-1 27.396753808733479 0 -49.34775303449581 -0.42218328069706462 0 -0.90651049497502434 -9.0651049497502427 0 4.2218328069706459 forward_v I I I I #
coedge $-1 -1 $-1 $373 $374 $375 $376 reversed $295 $-1 #
coedge $-1 -1 $-1 $377 $297 $299 $340 forward $260 $-1 #
coedge $-1 -1 $-1 $297 $377 $373 $378 reversed $260 $-1 #
coedge $-1 -1 $-1 $375 $300 $297 $338 forward $193 $-1 #
edge $-1 -1 $-1 $341 -0 $379 4.258284390774655 $337 $380 forward @7 unknown #
coedge $-1 -1 $-1 $299 $298 $381 $382 reversed $231 $-1 #
edge $-1 -1 $-1 $341 0 $383 0.10000000000000001 $335 $384 forward @7 unknown #
vertex $-1 -1 $-1 $301 $385 #
straight-curve $-1 -1 $-1 27.395082305107557 0 -23.153999884784465 0 0 10 F 0 F 1.041938178123847 #
coedge $-1 -1 $-1 $306 $381 $302 $344 forward $200 $-1 #
edge $-1 -1 $-1 $345 -3.8047877564640964 $308 0 $302 $386 forward @7 unknown #
vertex $-1 -1 $-1 $303 $387 #
straight-curve $-1 -1 $-1 27.395082305107557 0 -23.153999884784465 0 10 0 I I #
point $-1 -1 $-1 27.395082305107557 0 -23.153999884784465 #
straight-curve $-1 -1 $-1 58.79328739685203 1 -12.27381131104395 0 0 -10 I I #
point $-1 -1 $-1 58.79328739685203 1 -1.6646140352386318 #
coedge $-1 -1 $-1 $315 $388 $389 $390 forward $193 $-1 #
coedge $-1 -1 $-1 $391 $392 $315 $352 reversed $393 $-1 #
edge $-1 -1 $-1 $394 0 $356 5.3156851316490137 $315 $395 forward @7 unknown #
coedge $-1 -1 $-1 $364 $316 $392 $396 forward $355 $-1 #
coedge $-1 -1 $-1 $316 $364 $318 $358 reversed $355 $-1 #
loop $-1 -1 $-1 $-1 $316 $397 #
vertex $-1 -1 $-1 $352 $398 #
straight-curve $-1 -1 $-1 107.50120182945778 0 -71.100641491941744 -1.1458797501002314e-014 0 10 F 0 F 3.1004245240303279 #
edge $-1 -1 $-1 $321 0 $366 0.10000000000000001 $318 $399 forward @7 unknown #
face $-1 -1 $-1 $324 $320 $3 $-1 $400 forward single #
point $-1 -1 $-1 107.50120182945776 0 -40.096396251638467 #
straight-curve $-1 -1 $-1 128.81630399209678 0 -40.096396251638481 0 10 0 I I #
plane-surface $-1 -1 $-1 128.81630399209678 0 -31.014081589424023 1 0 -1.9558415508223965e-015 -1.9558415508223965e-014 -0 -10 forward_v I I I I #
coedge $-1 -1 $-1 $401 $326 $402 $403 forward $200 $-1 #
coedge $-1 -1 $-1 $354 $353 $326 $365 reversed $355 $-1 #
edge $-1 -1 $-1 $366 -3.1004245240303279 $404 -0 $364 $405 forward @7 unknown #
vertex $-1 -1 $-1 $358 $406 #
straight-curve $-1 -1 $-1 107.50120182945776 1 -40.096396251638467 -10 0 4.166897314979419e-015 I I #
point $-1 -1 $-1 128.81630399209678 1 -40.096396251638481 #
face $-1 -1 $-1 $407 $408 $3 $-1 $409 forward single #
loop $-1 -1 $-1 $-1 $410 $331 #
plane-surface $-1 -1 $-1 27.396753808733472 0 -38.928371253257346 1 0 4.2621454820832708e-016 4.2621454820832705e-015 0 -10 forward_v I I I I #
coedge $-1 -1 $-1 $411 $412 $413 $414 reversed $332 $-1 #
coedge $-1 -1 $-1 $415 $334 $336 $378 forward $295 $-1 #
coedge $-1 -1 $-1 $334 $415 $411 $416 reversed $295 $-1 #
coedge $-1 -1 $-1 $413 $337 $334 $376 forward $193 $-1 #
edge $-1 -1 $-1 $379 0 $417 0.06576075704960245 $375 $418 forward @7 unknown #
coedge $-1 -1 $-1 $336 $335 $419 $420 reversed $260 $-1 #
edge $-1 -1 $-1 $379 0 $421 0.10000000000000001 $373 $422 forward @7 unknown #
vertex $-1 -1 $-1 $338 $423 #
straight-curve $-1 -1 $-1 27.395082305107557 0 -12.734618103545994 -9.0651049497502338 -0 -4.2218328069706699 F -0 F 4.258284390774655 #
coedge $-1 -1 $-1 $343 $419 $339 $382 forward $200 $-1 #
edge $-1 -1 $-1 $383 -1.041938178123847 $345 -0 $339 $424 forward @7 unknown #
vertex $-1 -1 $-1 $340 $425 #
straight-curve $-1 -1 $-1 27.395082305107557 0 -12.734618103545994 0 10 0 I I #
point $-1 -1 $-1 27.395082305107557 0 -12.734618103545994 #
straight-curve $-1 -1 $-1 58.79328739685203 1 -1.6646140352386318 8.2522881962077612 0 5.6479854396705074 I I #
point $-1 -1 $-1 27.395082305107561 1 -23.153999884784465 #
coedge $-1 -1 $-1 $350 $426 $427 $428 forward $193 $-1 #
coedge $-1 -1 $-1 $429 $430 $350 $390 reversed $431 $-1 #
edge $-1 -1 $-1 $432 0 $394 1.060919727580532 $350 $433 forward @7 unknown #
coedge $-1 -1 $-1 $402 $351 $430 $434 forward $393 $-1 #
coedge $-1 -1 $-1 $351 $402 $353 $396 reversed $393 $-1 #
loop $-1 -1 $-1 $-1 $351 $435 #
vertex $-1 -1 $-1 $390 $436 #
straight-curve $-1 -1 $-1 58.794958900477937 0 -49.808559826997872 9.1627404036759366 0 -4.0055197284303263 F 0 F 5.3156851316490137 #
edge $-1 -1 $-1 $356 0 $404 0.10000000000000001 $353 $437 forward @7 unknown #
face $-1 -1 $-1 $359 $355 $3 $-1 $438 forward single #
point $-1 -1 $-1 107.50120182945778 0 -71.100641491941744 #
straight-curve $-1 -1 $-1 107.50120182945776 0 -40.096396251638467 0 10 0 I I #
plane-surface $-1 -1 $-1 128.81630399209678 0 -40.096396251638481 -4.1668973149794191e-016 0 -1 -10 0 4.166897314979419e-015 forward_v I I I I #
coedge $-1 -1 $-1 $439 $363 $440 $441 forward $200 $-1 #
coedge $-1 -1 $-1 $392 $391 $363 $403 reversed $393 $-1 #
edge $-1 -1 $-1 $404 -5.3156851316490137 $442 -0 $402 $443 forward @7 unknown #
vertex $-1 -1 $-1 $396 $444 #
straight-curve $-1 -1 $-1 107.50120182945778 1 -71.100641491941744 1.1458797501002314e-014 0 -10 I I #
point $-1 -1 $-1 107.50120182945776 1 -40.096396251638467 #
face $-1 -1 $-1 $435 $431 $3 $-1 $445 forward single #
loop $-1 -1 $-1 $-1 $427 $369 #
plane-surface $-1 -1 $-1 58.794958900477937 0 -60.417757102803193 -0.56479854396705109 0 -0.82522881962077599 -8.2522881962077594 0 5.6479854396705109 forward_v I I I I #
coedge $-1 -1 $-1 $446 $447 $426 $448 reversed $370 $-1 #
coedge $-1 -1 $-1 $449 $372 $374 $416 forward $332 $-1 #
coedge $-1 -1 $-1 $372 $449 $446 $450 reversed $332 $-1 #
coedge $-1 -1 $-1 $426 $375 $372 $414 forward $193 $-1 #
edge $-1 -1 $-1 $417 0 $451 4.2582843907746541 $413 $452 forward @7 unknown #
coedge $-1 -1 $-1 $374 $373 $453 $454 reversed $295 $-1 #
edge $-1 -1 $-1 $417 0 $455 0.10000000000000001 $411 $456 forward @7 unknown #
vertex $-1 -1 $-1 $376 $457 #
straight-curve $-1 -1 $-1 -11.206712603147917 0 -30.712382845929543 0.025417949866614699 0 -9.999967696339052 F 0 F 0.06576075704960245 #
coedge $-1 -1 $-1 $381 $453 $377 $420 forward $200 $-1 #
edge $-1 -1 $-1 $421 -4.258284390774655 $383 0 $377 $458 forward @7 unknown #
vertex $-1 -1 $-1 $378 $459 #
straight-curve $-1 -1 $-1 -11.206712603147917 0 -30.712382845929543 0 10 0 I I #
point $-1 -1 $-1 -11.206712603147917 0 -30.712382845929543 #
straight-curve $-1 -1 $-1 27.395082305107557 1 -23.153999884784465 0 0 -10 I I #
point $-1 -1 $-1 27.395082305107561 1 -12.734618103545994 #
coedge $-1 -1 $-1 $388 $413 $410 $448 forward $193 $-1 #
coedge $-1 -1 $-1 $460 $461 $388 $428 reversed $408 $-1 #
edge $-1 -1 $-1 $462 0 $432 3.8047877564640968 $388 $463 forward @7 unknown #
coedge $-1 -1 $-1 $440 $389 $461 $464 forward $431 $-1 #
coedge $-1 -1 $-1 $389 $440 $391 $434 reversed $431 $-1 #
loop $-1 -1 $-1 $-1 $389 $407 #
vertex $-1 -1 $-1 $428 $465 #
straight-curve $-1 -1 $-1 58.794958900477937 0 -60.417757102803193 0 0 10 F 0 F 1.060919727580532 #
edge $-1 -1 $-1 $394 0 $442 0.10000000000000001 $391 $466 forward @7 unknown #
face $-1 -1 $-1 $397 $393 $3 $-1 $467 forward single #
point $-1 -1 $-1 58.794958900477937 0 -49.808559826997872 #
straight-curve $-1 -1 $-1 107.50120182945778 0 -71.100641491941744 0 10 0 I I #
plane-surface $-1 -1 $-1 107.50120182945776 0 -40.096396251638467 1 0 1.1458797501002313e-015 1.1458797501002314e-014 0 -10 forward_v I I I I #
coedge $-1 -1 $-1 $468 $401 $469 $470 forward $200 $-1 #
coedge $-1 -1 $-1 $430 $429 $401 $441 reversed $431 $-1 #
edge $-1 -1 $-1 $442 -1.060919727580532 $471 -0 $440 $472 forward @7 unknown #
vertex $-1 -1 $-1 $434 $473 #
straight-curve $-1 -1 $-1 58.794958900477937 1 -49.808559826997872 -9.1627404036759366 0 4.0055197284303263 I I #
point $-1 -1 $-1 107.50120182945778 1 -71.100641491941744 #
plane-surface $-1 -1 $-1 58.794958900477937 0 -49.808559826997872 1 0 0 -0 -0 -10 forward_v I I I I #
coedge $-1 -1 $-1 $474 $410 $412 $450 forward $370 $-1 #
coedge $-1 -1 $-1 $410 $474 $460 $475 reversed $370 $-1 #
edge $-1 -1 $-1 $451 0 $462 1.0419381781238464 $426 $476 forward @7 unknown #
coedge $-1 -1 $-1 $412 $411 $477 $478 reversed $332 $-1 #
edge $-1 -1 $-1 $451 0 $479 0.10000000000000001 $446 $480 forward @7 unknown #
vertex $-1 -1 $-1 $414 $481 #
straight-curve $-1 -1 $-1 -11.20504109952204 0 -31.369988292112367 9.0651049497502427 0 -4.2218328069706459 F 0 F 4.2582843907746541 #
coedge $-1 -1 $-1 $419 $477 $415 $454 forward $200 $-1 #
edge $-1 -1 $-1 $455 -0.06576075704960245 $421 -0 $415 $482 forward @7 unknown #
vertex $-1 -1 $-1 $416 $483 #
straight-curve $-1 -1 $-1 -11.20504109952204 0 -31.369988292112367 0 10 0 I I #
point $-1 -1 $-1 -11.20504109952204 0 -31.369988292112367 #
straight-curve $-1 -1 $-1 27.395082305107557 1 -12.734618103545994 9.0651049497502338 0 4.2218328069706699 I I #
point $-1 -1 $-1 -11.206712603147917 1 -30.712382845929543 #
coedge $-1 -1 $-1 $469 $427 $447 $475 forward $408 $-1 #
coedge $-1 -1 $-1 $427 $469 $429 $464 reversed $408 $-1 #
vertex $-1 -1 $-1 $448 $484 #
straight-curve $-1 -1 $-1 27.396753808733472 0 -38.928371253257346 8.2522881962077594 0 -5.6479854396705109 F 0 F 3.8047877564640968 #
edge $-1 -1 $-1 $432 0 $471 0.10000000000000001 $429 $485 forward @7 unknown #
point $-1 -1 $-1 58.794958900477937 0 -60.417757102803193 #
straight-curve $-1 -1 $-1 58.794958900477937 0 -49.808559826997872 0 10 0 I I #
plane-surface $-1 -1 $-1 107.50120182945778 0 -71.100641491941744 -0.40055197284303262 0 -0.91627404036759363 -9.1627404036759366 0 4.0055197284303263 forward_v I I I I #
coedge $-1 -1 $-1 $477 $439 $474 $486 forward $200 $-1 #
coedge $-1 -1 $-1 $461 $460 $439 $470 reversed $408 $-1 #
edge $-1 -1 $-1 $471 -3.8047877564640968 $487 -0 $469 $488 forward @7 unknown #
vertex $-1 -1 $-1 $464 $489 #
straight-curve $-1 -1 $-1 58.794958900477937 1 -60.417757102803193 -0 -0 -10 I I #
point $-1 -1 $-1 58.794958900477937 1 -49.808559826997872 #
coedge $-1 -1 $-1 $447 $446 $468 $486 reversed $370 $-1 #
edge $-1 -1 $-1 $462 0 $487 0.10000000000000001 $460 $490 forward @7 unknown #
straight-curve $-1 -1 $-1 27.396753808733475 0 -49.34775303449581 -4.2621454820832705e-015 0 10 F 0 F 1.0419381781238464 #
coedge $-1 -1 $-1 $453 $468 $449 $478 forward $200 $-1 #
edge $-1 -1 $-1 $479 -4.2582843907746541 $455 -0 $449 $491 forward @7 unknown #
vertex $-1 -1 $-1 $450 $492 #
straight-curve $-1 -1 $-1 27.396753808733475 0 -49.34775303449581 0 10 0 I I #
point $-1 -1 $-1 27.396753808733475 0 -49.34775303449581 #
straight-curve $-1 -1 $-1 -11.206712603147917 1 -30.712382845929543 -0.025417949866614699 0 9.999967696339052 I I #
point $-1 -1 $-1 -11.205041099522042 1 -31.369988292112367 #
point $-1 -1 $-1 27.396753808733472 0 -38.928371253257346 #
straight-curve $-1 -1 $-1 58.794958900477937 0 -60.417757102803193 0 10 0 I I #
edge $-1 -1 $-1 $487 -1.0419381781238464 $479 -0 $474 $493 forward @7 unknown #
vertex $-1 -1 $-1 $475 $494 #
straight-curve $-1 -1 $-1 27.396753808733472 1 -38.928371253257346 -8.2522881962077594 0 5.6479854396705109 I I #
point $-1 -1 $-1 58.794958900477937 1 -60.417757102803193 #
straight-curve $-1 -1 $-1 27.396753808733472 0 -38.928371253257346 0 10 0 I I #
straight-curve $-1 -1 $-1 -11.20504109952204 1 -31.369988292112367 -9.0651049497502427 0 4.2218328069706459 I I #
point $-1 -1 $-1 27.396753808733472 1 -49.34775303449581 #
straight-curve $-1 -1 $-1 27.396753808733475 1 -49.34775303449581 4.2621454820832705e-015 0 -10 I I #
point $-1 -1 $-1 27.396753808733472 1 -38.928371253257346 #
End-of-ACIS-data 