**ABCDEFGHIJKLMNOPQRSTUVWXYZabcdefghijklmnopqrstuvwxyz**************************
**PARASOLID !"#$%&'()*+,-./:;<=>?@[\]^_`{|}~0123456789**************************
**PART1;
MC=AMD64;
MC_MODEL=Intel64 Family 6 Model 23 Stepping 10, GenuineIntel;
MC_ID=unknown;
OS=Windows_NT;
OS_RELEASE=6.2;
FRU=Autodesk;
APPL=Autodesk Inventor 2015;
SITE=unknown;
USER=unknown;
FORMAT=text;
GUISE=transmit;
KEY=Arbol;
FILE=D:\Projects\Lab\Arbol\cad\Arbol.x_t;
DATE=Fri, 25d Nov 2016d 18d:51d:16d GMT;
**PART2;
SCH=SCH_2600169_25001;
USFLD_SIZE=0;
**PART3;
**END_OF_HEADER*****************************************************************
T51 : TRANSMIT FILE created by modeller version 260016917 SCH_2600169_250010 12
 1 442 2 3 0 0 0 0 1e3 1e-8 0 0 0 1 0 1 1 4 5 6 7 8 9 10 0 0 0 0 0 0 81 1 2 442
 11 1 0 0 0 0 12 70 3 0 4 T1 0 0 4 20 1 13 13 13 4 4 0 1 0 14 0 0 15 0 50 5 320
 0 16 17 0 0 +.0661774129296185 .001 -.0310391631891871 0 1 0 .707106781186548 0
 .707106781186548 30 6 389 0 18 19 0 0 +.1288163039920968 .001 -.031014081589424
05 .002541794986657995 0 -.999996769633905 29 7 441 0 20 21 0 .1288163039920968
 .001 -.03101408158942405 19 8 2 0 1 15 0 22 V0 16 9 73 0 ?23 0 24 25 0 0 1 18 1
0 8 0 26 0 27 28 ?1 17 26 0 29 26 26 10 30 31 0 30 -18 27 11 0 32 10 33 34 ?1 29
 28 390 0 10 0 34 .0949998188932057 .001 -.0582188414487813 29 34 391 0 27 28 35
 .0949998188932057 0 -.0582188414487813 29 35 392 0 33 34 36 .0725025246323458 .
001 -.0496775414156015 18 33 15 0 37 27 38 35 ?1 29 36 393 0 38 35 39 .072502524
6323458 0 -.0496775414156015 18 38 18 0 40 33 41 36 ?1 29 39 394 0 41 36 42 .051
0879415848721 .001 -.0496775414156015 18 41 22 0 43 38 44 39 ?1 29 42 395 0 44 3
9 45 .0510879415848721 0 -.0496775414156015 18 44 25 0 46 41 47 42 ?1 29 45 396
 0 47 42 48 .01887721397408295 .001 -.04048002506741415 18 47 29 0 49 44 50 45 ?
1 29 48 397 0 50 45 51 .01887721397408295 0 -.04048002506741415 18 50 32 0 52 47
 53 48 ?1 29 51 398 0 53 48 54 .0725025246323458 .001 -.01273329183554178 18 53
 36 0 55 50 56 51 ?1 29 54 399 0 56 51 57 .0725025246323458 0 -.0127332918355417
8 18 56 39 0 58 53 59 54 ?1 29 57 400 0 59 54 60 .0949998188932057 .001 -.003865
97192814191 18 59 43 0 61 56 62 57 ?1 29 60 401 0 62 57 63 .0949998188932057 0 -
.00386597192814191 18 62 46 0 64 59 65 60 ?1 29 63 402 0 65 60 66 .0509940365731
56 .001 -.01273329183554178 18 65 50 0 67 62 68 63 ?1 29 66 403 0 68 63 69 .0509
94036573156 0 -.01273329183554178 18 68 53 0 70 65 71 66 ?1 29 69 404 0 71 66 72
 .0188304814223109 .001 -.02209443494149685 18 71 57 0 73 68 74 69 ?1 29 72 405
 0 74 69 75 .0188304814223109 0 -.02209443494149685 18 74 60 0 76 71 77 72 ?1 29
 75 406 0 77 72 78 -.0025 .001 -.03101408158942405 18 77 64 0 79 74 80 75 ?1 29
 78 407 0 80 75 81 -.0025 0 -.03101408158942405 18 80 67 0 82 77 83 78 ?1 29 81
 408 0 83 78 84 .128793218610221 0 -.0219317962664109 18 83 71 0 85 80 86 81 ?1
 29 84 409 0 87 81 88 .107499530325832 0 -.0219859206313812 18 87 72 0 89 90 91
 84 ?1 29 88 410 0 86 84 92 .128793218610221 .001 -.0219317962664109 18 86 74 0
 93 83 90 88 ?1 29 92 411 0 90 88 94 .107499530325832 .001 -.0219859206313812 18
 90 76 0 95 86 87 92 ?1 29 94 412 0 96 92 97 .107499530325832 0 .009018270353899
95 18 96 81 0 98 91 99 94 ?1 29 97 413 0 91 94 100 .107499530325832 .001 .009018
27035389995 18 91 83 0 101 87 96 97 ?1 29 100 414 0 102 97 103 .058793287396852
 0 -.01227381131104394 18 102 88 0 104 99 105 100 ?1 29 103 415 0 99 100 106 .05
8793287396852 .001 -.01227381131104394 18 99 90 0 107 96 102 103 ?1 29 106 416 0
 108 103 109 .058793287396852 0 -.00166461403523863 18 108 95 0 110 105 111 106
 ?1 29 109 417 0 105 106 112 .058793287396852 .001 -.00166461403523863 18 105 97
 0 113 102 108 109 ?1 29 112 418 0 114 109 115 .02739508230510755 0 -.0231539998
8478445 18 114 102 0 116 111 117 112 ?1 29 115 419 0 111 112 118 .02739508230510
755 .001 -.02315399988478445 18 111 104 0 119 108 114 115 ?1 29 118 420 0 120 11
5 121 .02739508230510755 0 -.012734618103546 18 120 109 0 122 117 123 118 ?1 29
 121 421 0 117 118 124 .02739508230510755 .001 -.012734618103546 18 117 111 0 12
5 114 120 121 ?1 29 124 422 0 126 121 127 -.01120671260314792 0 -.03071238284592
955 18 126 116 0 128 123 129 124 ?1 29 127 423 0 123 124 130 -.01120671260314792
 .001 -.03071238284592955 18 123 118 0 131 120 126 127 ?1 29 130 424 0 132 127 1
33 -.01120504109952204 0 -.03136998829211235 18 132 123 0 134 129 135 130 ?1 29
 133 425 0 129 130 136 -.01120504109952204 .001 -.03136998829211235 18 129 125 0
 137 126 132 133 ?1 29 136 426 0 138 133 139 .0273967538087335 0 -.0493477530344
958 18 138 130 0 140 135 141 136 ?1 29 139 427 0 135 136 142 .02739675380873345
 .001 -.0493477530344958 18 135 132 0 143 132 138 139 ?1 29 142 428 0 144 139 14
5 .02739675380873345 0 -.03892837125325735 18 144 137 0 146 141 147 142 ?1 29 14
5 429 0 141 142 148 .02739675380873345 .001 -.03892837125325735 18 141 139 0 149
 138 144 145 ?1 29 148 430 0 150 145 151 .0587949589004779 0 -.0604177571028032
 18 150 144 0 152 147 153 148 ?1 29 151 431 0 147 148 154 .0587949589004779 .001
 -.0604177571028032 18 147 146 0 155 144 150 151 ?1 29 154 432 0 156 151 157 .05
87949589004779 0 -.0498085598269979 18 156 151 0 158 153 159 154 ?1 29 157 433 0
 153 154 160 .0587949589004779 .001 -.0498085598269979 18 153 153 0 161 150 156
 157 ?1 29 160 434 0 162 157 163 .1075012018294578 0 -.0711006414919417 18 162 1
58 0 164 159 165 160 ?1 29 163 435 0 159 160 166 .1075012018294578 .001 -.071100
6414919417 18 159 160 0 167 156 162 163 ?1 29 166 436 0 168 163 169 .10750120182
94578 0 -.04009639625163845 18 168 165 0 170 165 171 166 ?1 29 169 437 0 165 166
 172 .1075012018294578 .001 -.04009639625163845 18 165 167 0 173 162 168 169 ?1
 29 172 438 0 174 169 175 .1288163039920968 0 -.0400963962516385 18 174 172 0 17
6 171 20 172 ?1 29 175 439 0 171 172 21 .1288163039920968 .001 -.040096396251638
5 18 171 174 0 177 168 174 175 ?1 29 21 440 0 178 175 7 .1288163039920968 0 -.03
101408158942405 18 178 179 0 179 20 0 21 ?1 17 179 0 180 181 176 178 182 183 0 1
84 +18 20 181 0 185 174 178 7 ?1 17 185 0 186 184 187 20 188 189 0 190 -15 186 1
77 0 182 191 0 17 184 0 186 182 185 178 190 192 0 193 -17 187 0 186 185 182 171
 194 195 0 188 +17 188 0 196 197 198 171 185 189 0 0 +16 189 180 0 ?188 18 199 2
00 0 0 1 17 190 0 201 202 193 20 184 192 0 198 +15 201 184 0 193 203 0 17 202 0
 201 204 190 86 198 18 0 0 -17 193 0 201 190 204 178 181 205 0 0 -16 192 182 0 ?
190 195 206 207 0 0 1 17 198 0 196 188 93 20 202 18 0 0 +15 196 208 0 198 16 0 1
7 93 0 196 198 208 86 95 209 0 23 +16 18 186 0 ?198 210 189 6 0 0 1 16 210 63 0
 ?211 212 18 213 0 0 1 17 211 0 214 211 211 77 79 210 0 0 +16 212 56 0 ?215 216
 210 217 0 0 1 31 213 337 0 210 218 219 0 +0 .001 -.03101408158942405 0 -1 0 1 0
 0 .0025 31 218 336 0 220 217 213 0 +.0213304814223109 0 -.02209443494149685 0 1
 0 1 0 0 .0025 31 219 338 0 221 213 222 0 +0 0 -.03101408158942405 0 1 0 1 0 0 .
0025 16 221 66 0 ?223 220 205 219 0 0 1 30 222 339 0 224 219 25 0 +.128793218610
221 0 -.0219317962664109 -.999996769633905 0 -.002541794986660475 16 224 70 0 ?8
9 205 225 222 0 0 1 30 25 340 0 9 222 226 0 +.128793218610221 0 -.02193179626641
09 0 1 0 30 226 341 0 209 25 227 0 +.128793218610221 .001 -.0219317962664109 .99
9996769633905 0 .002541794986660475 16 209 75 0 ?93 228 0 226 0 0 1 30 227 342 0
 24 226 229 0 +.107499530325832 0 -.0219859206313812 0 1 0 16 24 77 0 ?230 9 231
 227 0 0 1 30 229 343 0 225 227 232 0 +.107499530325832 0 -.0219859206313812 0 0
 1 16 225 80 0 ?98 224 233 229 0 0 1 30 232 344 0 228 229 234 0 +.10749953032583
2 .001 -.0219859206313812 0 0 -1 16 228 82 0 ?208 235 209 232 0 0 1 30 234 345 0
 231 232 236 0 +.107499530325832 0 .00901827035389995 0 1 0 16 231 84 0 ?237 24
 238 234 0 0 1 30 236 346 0 233 234 239 0 +.107499530325832 0 .00901827035389995
 -.916274040367593 0 -.400551972843033 16 233 87 0 ?104 225 240 236 0 0 1 30 239
 347 0 235 236 241 0 +.107499530325832 .001 .00901827035389995 .916274040367593
 0 .400551972843033 16 235 89 0 ?242 243 228 239 0 0 1 30 241 348 0 238 239 244
 0 +.058793287396852 0 -.01227381131104394 0 1 0 16 238 91 0 ?245 231 246 241 0
 0 1 30 244 349 0 240 241 247 0 +.058793287396852 0 -.01227381131104394 0 0 1 16
 240 94 0 ?110 233 248 244 0 0 1 30 247 350 0 243 244 249 0 +.058793287396852 .0
01 -.01227381131104394 0 0 -1 16 243 96 0 ?250 251 235 247 0 0 1 30 249 351 0 24
6 247 252 0 +.058793287396852 0 -.00166461403523863 0 1 0 16 246 98 0 ?253 238 2
54 249 0 0 1 30 252 352 0 248 249 255 0 +.058793287396852 0 -.00166461403523863
 -.825228819620776 0 -.564798543967051 16 248 101 0 ?116 240 256 252 0 0 1 30 25
5 353 0 251 252 257 0 +.058793287396852 .001 -.00166461403523863 .82522881962077
6 0 .564798543967051 16 251 103 0 ?258 259 243 255 0 0 1 30 257 354 0 254 255 26
0 0 +.02739508230510755 0 -.02315399988478445 0 1 0 16 254 105 0 ?261 246 262 25
7 0 0 1 30 260 355 0 256 257 263 0 +.02739508230510755 0 -.02315399988478445 0 0
 1 16 256 108 0 ?122 248 264 260 0 0 1 30 263 356 0 259 260 265 0 +.027395082305
10755 .001 -.02315399988478445 0 0 -1 16 259 110 0 ?266 267 251 263 0 0 1 30 265
 357 0 262 263 268 0 +.02739508230510755 0 -.012734618103546 0 1 0 16 262 112 0
 ?269 254 270 265 0 0 1 30 268 358 0 264 265 271 0 +.02739508230510755 0 -.01273
4618103546 -.906510494975023 0 -.422183280697067 16 264 115 0 ?128 256 272 268 0
 0 1 30 271 359 0 267 268 273 0 +.02739508230510755 .001 -.012734618103546 .9065
10494975023 0 .422183280697067 16 267 117 0 ?274 275 259 271 0 0 1 30 273 360 0
 270 271 276 0 +-.01120671260314792 0 -.03071238284592955 0 1 0 16 270 119 0 ?27
7 262 278 273 0 0 1 30 276 361 0 272 273 279 0 +-.01120671260314792 0 -.03071238
284592955 .00254179498666147 0 -.999996769633905 16 272 122 0 ?134 264 280 276 0
 0 1 30 279 362 0 275 276 281 0 +-.01120671260314792 .001 -.03071238284592955 -.
00254179498666147 0 .999996769633905 16 275 124 0 ?282 283 267 279 0 0 1 30 281
 363 0 278 279 284 0 +-.01120504109952204 0 -.03136998829211235 0 1 0 16 278 126
 0 ?285 270 286 281 0 0 1 30 284 364 0 280 281 287 0 +-.01120504109952204 0 -.03
136998829211235 .906510494975024 0 -.4221832806970645 16 280 129 0 ?140 272 288
 284 0 0 1 30 287 365 0 283 284 289 0 +-.01120504109952204 .001 -.03136998829211
235 -.906510494975024 0 .4221832806970645 16 283 131 0 ?290 291 275 287 0 0 1 30
 289 366 0 286 287 292 0 +.0273967538087335 0 -.0493477530344958 0 1 0 16 286 13
3 0 ?293 278 294 289 0 0 1 30 292 367 0 288 289 295 0 +.0273967538087335 0 -.049
3477530344958 -426214548208327e-30 0 1 16 288 136 0 ?146 280 296 292 0 0 1 30 29
5 368 0 291 292 297 0 +.0273967538087335 .001 -.0493477530344958 426214548208327
e-30 0 -1 16 291 138 0 ?298 299 283 295 0 0 1 30 297 369 0 294 295 300 0 +.02739
675380873345 0 -.03892837125325735 0 1 0 16 294 140 0 ?301 286 302 297 0 0 1 30
 300 370 0 296 297 303 0 +.02739675380873345 0 -.03892837125325735 .825228819620
776 0 -.564798543967051 16 296 143 0 ?152 288 304 300 0 0 1 30 303 371 0 299 300
 305 0 +.02739675380873345 .001 -.03892837125325735 -.825228819620776 0 .5647985
43967051 16 299 145 0 ?306 307 291 303 0 0 1 30 305 372 0 302 303 308 0 +.058794
9589004779 0 -.0604177571028032 0 1 0 16 302 147 0 ?309 294 310 305 0 0 1 30 308
 373 0 304 305 311 0 +.0587949589004779 0 -.0604177571028032 0 0 1 16 304 150 0
 ?158 296 312 308 0 0 1 30 311 374 0 307 308 313 0 +.0587949589004779 .001 -.060
4177571028032 0 0 -1 16 307 152 0 ?314 315 299 311 0 0 1 30 313 375 0 310 311 31
6 0 +.0587949589004779 0 -.0498085598269979 0 1 0 16 310 154 0 ?317 302 318 313
 0 0 1 30 316 376 0 312 313 319 0 +.0587949589004779 0 -.0498085598269979 .91627
4040367594 0 -.4005519728430325 16 312 157 0 ?164 304 320 316 0 0 1 30 319 377 0
 315 316 321 0 +.0587949589004779 .001 -.0498085598269979 -.916274040367594 0 .4
005519728430325 16 315 159 0 ?322 323 307 319 0 0 1 30 321 378 0 318 319 324 0 +
.1075012018294578 0 -.0711006414919417 0 1 0 16 318 161 0 ?325 310 326 321 0 0 1
 30 324 379 0 320 321 327 0 +.1075012018294578 0 -.0711006414919417 -11458797501
0023e-29 0 1 16 320 164 0 ?170 312 328 324 0 0 1 30 327 380 0 323 324 329 0 +.10
75012018294578 .001 -.0711006414919417 114587975010023e-29 0 -1 16 323 166 0 ?33
0 199 315 327 0 0 1 30 329 381 0 326 327 331 0 +.1075012018294578 0 -.0400963962
5163845 0 1 0 16 326 168 0 ?332 318 195 329 0 0 1 30 331 382 0 328 329 333 0 +.1
075012018294578 0 -.04009639625163845 1 0 -416689731497942e-30 16 328 171 0 ?176
 320 183 331 0 0 1 30 333 383 0 199 331 334 0 +.1075012018294578 .001 -.04009639
625163845 -1 0 416689731497942e-30 16 199 173 0 ?197 189 323 333 0 0 1 30 334 38
4 0 195 333 335 0 +.1288163039920968 0 -.0400963962516385 0 1 0 16 195 175 0 ?18
7 326 192 334 0 0 1 30 335 385 0 183 334 200 0 +.1288163039920968 0 -.0400963962
516385 1955841550822395e-30 0 1 16 183 178 0 ?179 328 31 335 0 0 1 30 200 386 0
 189 335 207 0 +.1288163039920968 .001 -.0400963962516385 -1955841550822395e-30
 0 -1 30 207 387 0 192 200 19 0 +.1288163039920968 0 -.03101408158942405 0 1 0 3
0 19 388 0 205 207 6 0 +.1288163039920968 0 -.03101408158942405 -.00254179498665
7995 0 .999996769633905 16 205 185 0 ?181 221 224 19 0 0 1 17 181 0 180 89 179 8
3 193 205 0 0 +15 180 197 0 181 336 0 17 89 0 180 98 181 87 85 224 0 337 +17 98
 0 180 104 89 96 338 225 0 339 +17 85 0 340 23 337 83 89 224 0 204 -17 337 0 340
 85 95 87 230 24 0 338 -15 340 69 0 85 341 0 17 95 0 340 337 23 90 93 209 0 230
 -17 230 0 342 101 338 90 337 24 0 208 +17 338 0 342 230 339 87 98 225 0 0 -15 3
42 79 0 338 343 0 17 339 0 342 338 101 96 237 231 0 344 -17 101 0 342 339 230 91
 208 228 0 237 -17 237 0 345 107 344 91 339 231 0 242 +17 344 0 345 237 346 96 1
04 233 0 0 -15 345 86 0 344 347 0 17 346 0 345 344 107 102 245 238 0 348 -17 104
 0 180 110 98 102 344 233 0 346 +17 110 0 180 116 104 108 348 240 0 349 +17 116
 0 180 122 110 114 350 248 0 351 +17 348 0 352 245 349 102 110 240 0 0 -17 349 0
 352 348 113 108 253 246 0 350 -15 352 93 0 348 353 0 17 113 0 352 349 245 105 2
50 243 0 253 -17 253 0 354 119 350 105 349 246 0 258 +17 350 0 354 253 351 108 1
16 248 0 0 -15 354 100 0 350 355 0 17 351 0 354 350 119 114 261 254 0 356 -17 11
9 0 354 351 253 111 258 251 0 261 -17 261 0 357 125 356 111 351 254 0 266 +17 35
6 0 357 261 358 114 122 256 0 0 -15 357 107 0 356 359 0 17 358 0 357 356 125 120
 269 262 0 360 -17 122 0 180 128 116 120 356 256 0 358 +17 128 0 180 134 122 126
 360 264 0 361 +17 134 0 180 140 128 132 362 272 0 363 +17 360 0 364 269 361 120
 128 264 0 0 -17 361 0 364 360 131 126 277 270 0 362 -15 364 114 0 360 365 0 17
 131 0 364 361 269 123 274 267 0 277 -17 277 0 366 137 362 123 361 270 0 282 +17
 362 0 366 277 363 126 134 272 0 0 -15 366 121 0 362 367 0 17 363 0 366 362 137
 132 285 278 0 368 -17 137 0 366 363 277 129 282 275 0 285 -17 285 0 369 143 368
 129 363 278 0 290 +17 368 0 369 285 370 132 140 280 0 0 -15 369 128 0 368 371 0
 17 370 0 369 368 143 138 293 286 0 372 -17 140 0 180 146 134 138 368 280 0 370
 +17 146 0 180 152 140 144 372 288 0 373 +17 152 0 180 158 146 150 374 296 0 375
 +17 372 0 376 293 373 138 146 288 0 0 -17 373 0 376 372 149 144 301 294 0 374 -
15 376 135 0 372 377 0 17 149 0 376 373 293 141 298 291 0 301 -17 301 0 378 155
 374 141 373 294 0 306 +17 374 0 378 301 375 144 152 296 0 0 -15 378 142 0 374 3
79 0 17 375 0 378 374 155 150 309 302 0 380 -17 155 0 378 375 301 147 306 299 0
 309 -17 309 0 381 161 380 147 375 302 0 314 +17 380 0 381 309 382 150 158 304 0
 0 -15 381 149 0 380 383 0 17 382 0 381 380 161 156 317 310 0 384 -17 158 0 180
 164 152 156 380 304 0 382 +17 164 0 180 170 158 162 384 312 0 385 +17 170 0 180
 176 164 168 386 320 0 387 +17 384 0 388 317 385 156 164 312 0 0 -17 385 0 388 3
84 167 162 325 318 0 386 -15 388 156 0 384 389 0 17 167 0 388 385 317 159 322 31
5 0 325 -17 325 0 390 173 386 159 385 318 0 330 +17 386 0 390 325 387 162 170 32
0 0 0 -15 390 163 0 386 391 0 17 387 0 390 386 173 168 332 326 0 392 -17 173 0 3
90 387 325 165 330 323 0 332 -17 332 0 393 177 392 165 387 326 0 197 +17 392 0 3
93 332 194 168 176 328 0 0 -15 393 170 0 392 394 0 17 194 0 393 392 177 174 187
 195 0 182 -17 176 0 180 179 170 174 392 328 0 194 +17 177 0 393 194 332 171 197
 199 0 187 -17 182 0 186 187 184 174 179 183 0 0 -17 197 0 196 330 188 165 177 1
99 0 0 +17 330 0 196 322 197 159 173 323 0 0 +17 322 0 196 314 330 153 167 315 0
 0 +17 314 0 196 306 322 147 161 307 0 0 +17 306 0 196 298 314 141 155 299 0 0 +
17 161 0 381 382 309 153 314 307 0 317 -17 317 0 388 167 384 153 382 310 0 322 +
17 298 0 196 290 306 135 149 291 0 0 +17 290 0 196 282 298 129 143 283 0 0 +17 2
82 0 196 274 290 123 137 275 0 0 +17 143 0 369 370 285 135 290 283 0 293 -17 293
 0 376 149 372 135 370 286 0 298 +17 274 0 196 266 282 117 131 267 0 0 +17 266 0
 196 258 274 111 125 259 0 0 +17 258 0 196 250 266 105 119 251 0 0 +17 125 0 357
 358 261 117 266 259 0 269 -17 269 0 364 131 360 117 358 262 0 274 +17 250 0 196
 242 258 99 113 243 0 0 +17 242 0 196 208 250 91 107 235 0 0 +17 208 0 196 93 24
2 90 101 228 0 0 +17 107 0 345 346 237 99 242 235 0 245 -17 245 0 352 113 348 99
 346 238 0 250 +14 394 169 395 ?191 391 393 4 396 +0 0 191 391 22 81 1 395 280 3
97 394 398 0 399 400 401 14 191 176 400 ?203 394 186 4 402 +0 0 203 394 22 14 39
1 162 399 ?394 389 390 4 403 +0 0 394 389 22 50 396 316 0 394 403 402 0 +.128816
3039920968 0 -.0400963962516385 -416689731497942e-30 0 -1 .707106781186548 .7071
06781186548 -2946441347929965e-31 13 22 3 0 0 0 0 0 0 8 14 14 14 5 404 ?405 0 29
 4 406 -0 0 405 0 22 81 1 404 211 397 14 407 0 0 408 409 14 405 12 408 ?410 14 4
11 4 412 -0 0 410 14 22 15 29 6 0 26 14 413 51 406 293 0 14 0 412 0 +.0974998188
932057 0 -.0582188414487813 0 1 0 .0025 1 0 0 51 412 294 0 405 406 414 0 +.07500
25246323458 0 -.0496775414156015 0 1 0 .0025 1 0 0 51 414 295 0 410 412 415 0 +.
0535879415848721 0 -.0496775414156015 0 1 0 .0025 1 0 0 14 410 19 416 ?417 405 4
18 4 414 -0 0 417 405 22 51 415 296 0 417 414 419 0 +.02137721397408295 0 -.0404
8002506741415 0 1 0 .0025 1 0 0 14 417 26 420 ?421 410 422 4 415 -0 0 421 410 22
 51 419 297 0 421 415 423 0 +.0750025246323458 0 -.01273329183554178 0 1 0 .0025
 1 0 0 14 421 33 424 ?425 417 426 4 419 -0 0 425 417 22 51 423 298 0 425 419 427
 0 +.0974998188932057 0 -.00386597192814191 0 1 0 .0025 1 0 0 14 425 40 428 ?429
 421 430 4 423 -0 0 429 421 22 51 427 299 0 429 423 431 0 +.053494036573156 0 -.
01273329183554178 0 1 0 .0025 1 0 0 14 429 47 432 ?433 425 434 4 427 -0 0 433 42
5 22 51 431 300 0 433 427 435 0 +.0213304814223109 0 -.02209443494149685 0 1 0 .
0025 1 0 0 14 433 54 436 ?437 429 438 4 431 -0 0 437 429 22 51 435 301 0 437 431
 439 0 +0 0 -.03101408158942405 0 1 0 .0025 1 0 0 14 437 61 440 ?341 433 441 4 4
35 -0 0 341 433 22 50 439 302 0 341 435 442 0 +.107499530325832 0 -.021985920631
3812 -.002541794986660475 0 .999996769633905 .707105639076895 .707105639076895 .
00179732337445749 14 341 68 443 ?343 437 340 4 439 +0 0 343 437 22 50 442 303 0
 343 439 444 0 +.107499530325832 0 .00901827035389995 1 0 0 0 .707106781186548 .
707106781186548 14 343 78 445 ?347 341 342 4 442 +0 0 347 341 22 50 444 304 0 34
7 442 446 0 +.058793287396852 0 -.01227381131104394 -.400551972843033 0 .9162740
40367593 .675567309319899 .675567309319899 .2953262960803575 14 347 85 447 ?353
 343 345 4 444 +0 0 353 343 22 50 446 305 0 353 444 448 0 +.058793287396852 0 -.
00166461403523863 1 0 0 0 .707106781186548 .707106781186548 14 353 92 449 ?355 3
47 352 4 446 +0 0 355 347 22 50 448 306 0 355 446 450 0 +.02739508230510755 0 -.
02315399988478445 -.564798543967051 0 .825228819620776 .718542428676187 .4917808
34413119 .491780834413119 14 355 99 451 ?359 353 354 4 448 +0 0 359 353 22 50 45
0 307 0 359 448 452 0 +.02739508230510755 0 -.012734618103546 1 0 0 0 .707106781
186548 .707106781186548 14 359 106 453 ?365 355 357 4 450 +0 0 365 355 22 50 452
 308 0 365 450 454 0 +-.01120671260314792 0 -.03071238284592955 -.42218328069706
7 0 .906510494975023 .671625385871917 .671625385871917 .3127917551739455 14 365
 113 455 ?367 359 364 4 452 +0 0 367 359 22 50 454 309 0 367 452 456 0 +-.011205
04109952204 0 -.03136998829211235 -.999996769633905 0 -.00254179498666147 -.0017
97323374458195 .707105639076895 .707105639076895 14 367 120 457 ?371 365 366 4 4
54 +0 0 371 365 22 50 456 310 0 371 454 458 0 +.0273967538087335 0 -.04934775303
44958 -.4221832806970645 0 -.906510494975024 .671625385871917 .671625385871917 -
.3127917551739435 14 371 127 459 ?377 367 369 4 456 +0 0 377 367 22 50 458 311 0
 377 456 460 0 +.02739675380873345 0 -.03892837125325735 1 0 426214548208327e-30
 -3013791972784685e-31 .707106781186548 .707106781186548 14 377 134 461 ?379 371
 376 4 458 +0 0 379 371 22 50 460 312 0 379 458 462 0 +.0587949589004779 0 -.060
4177571028032 -.564798543967051 0 -.825228819620776 -.718542428676186 .491780834
413119 .491780834413119 14 379 141 463 ?383 377 378 4 460 +0 0 383 377 22 50 462
 313 0 383 460 464 0 +.0587949589004779 0 -.0498085598269979 1 0 0 0 .7071067811
86548 .707106781186548 14 383 148 465 ?389 379 381 4 462 +0 0 389 379 22 50 464
 314 0 389 462 403 0 +.1075012018294578 0 -.0711006414919417 -.4005519728430325
 0 -.916274040367594 .675567309319899 .675567309319899 -.295326296080357 14 389
 155 466 ?391 383 388 4 464 +0 0 391 383 22 50 403 315 0 391 464 396 0 +.1075012
018294578 0 -.04009639625163845 1 0 114587975010023e-29 -81025934172022e-29 .707
106781186548 .707106781186548 81 1 466 274 397 389 467 0 465 399 468 80 1 397 46
9 470 8015 0 0 0 0 3 5 0 0 0 FFFFTFFFFFFFFF2 81 2 467 273 469 389 471 466 472 47
3 474 475 81 1 465 271 397 383 472 0 463 466 476 81 1 399 277 397 391 473 0 466
 395 477 83 1 468 0 81 2 473 276 469 391 478 399 467 398 479 480 83 1 477 0 80 2
 469 481 482 8014 0 0 0 0 3 5 0 0 0 FFFFTFFFFFFFFF2 1 81 1 478 275 483 391 0 473
 471 484 485 81 2 398 279 469 394 484 395 473 486 487 488 83 4 479 0 0 .74901960
7843137 .749019607843137 82 1 480 15 81 1 484 278 483 394 0 398 478 489 490 81 2
 486 282 469 191 489 400 398 491 492 493 83 4 487 0 0 .749019607843137 .74901960
7843137 82 1 488 15 81 1 489 281 483 191 0 486 484 494 495 81 1 400 283 397 191
 486 0 395 496 497 81 2 491 285 469 203 494 496 486 498 499 500 83 4 492 0 0 .74
9019607843137 .749019607843137 82 1 493 15 14 203 183 496 ?336 191 201 4 501 +0
 0 336 191 22 81 1 494 284 483 203 0 491 489 502 503 81 1 496 286 397 203 491 0
 400 504 505 81 2 498 288 469 336 502 504 491 506 507 508 83 4 499 0 0 .74901960
7843137 .749019607843137 82 1 500 15 14 336 187 504 ?16 203 509 4 17 -0 0 16 203
 22 81 1 502 287 483 336 0 498 494 510 511 81 1 504 289 397 336 498 0 496 512 51
3 81 2 506 291 469 16 510 512 498 0 514 515 83 4 507 0 0 .749019607843137 .74901
9607843137 82 1 508 15 14 16 198 512 ?0 336 516 4 5 +0 0 0 336 22 81 1 510 290 4
83 16 0 506 502 0 517 81 1 512 292 397 16 506 0 504 0 518 83 4 514 0 0 .74901960
7843137 .749019607843137 82 1 515 15 83 1 518 0 80 1 483 0 519 8001 0 0 0 0 3 5
 0 0 0 FFFFTFTFFFFFFF2 83 3 517 .5 .5 .5 79 15 519 SDL/TYSA_COLOUR15 516 199 0 3
0 16 520 17 30 0 516 30 30 10 26 31 0 0 +15 520 200 0 521 16 522 17 521 0 520 52
1 521 33 37 523 0 0 +15 522 201 0 524 16 525 17 524 0 522 524 524 41 43 526 0 0
 +15 525 202 0 527 16 528 17 527 0 525 527 527 47 49 529 0 0 +15 528 203 0 530 1
6 531 17 530 0 528 530 530 53 55 532 0 0 +15 531 204 0 533 16 534 17 533 0 531 5
33 533 59 61 535 0 0 +15 534 205 0 536 16 537 17 536 0 534 536 536 65 67 216 0 0
 +15 537 206 0 215 16 214 17 215 0 537 215 215 71 73 212 0 0 +15 214 207 0 211 1
6 196 17 73 0 438 73 73 71 215 212 0 215 -15 438 55 0 73 433 538 15 538 58 0 76
 433 0 17 76 0 538 76 76 74 539 220 0 539 -17 539 0 540 539 539 74 76 220 0 0 +1
6 220 59 0 ?539 541 221 218 0 0 1 16 541 52 0 ?542 543 220 544 0 0 1 17 542 0 54
5 542 542 68 70 541 0 0 +16 543 45 0 ?546 547 541 548 0 0 1 31 544 334 0 541 549
 217 0 +.053494036573156 0 -.01273329183554178 0 1 0 1 0 0 .0025 31 549 333 0 21
6 548 544 0 +.053494036573156 .001 -.01273329183554178 0 -1 0 1 0 0 .0025 31 217
 335 0 212 544 218 0 +.0213304814223109 .001 -.02209443494149685 0 -1 0 1 0 0 .0
025 16 216 49 0 ?536 535 212 549 0 0 1 31 548 332 0 543 550 549 0 +.097499818893
2057 0 -.00386597192814191 0 1 0 1 0 0 .0025 31 550 331 0 535 551 548 0 +.097499
8188932057 .001 -.00386597192814191 0 -1 0 1 0 0 .0025 16 535 42 0 ?533 532 216
 550 0 0 1 31 551 330 0 547 552 550 0 +.0750025246323458 0 -.01273329183554178 0
 1 0 1 0 0 .0025 16 547 38 0 ?553 554 543 551 0 0 1 31 552 329 0 532 555 551 0 +
.0750025246323458 .001 -.01273329183554178 0 -1 0 1 0 0 .0025 16 532 35 0 ?530 5
29 535 552 0 0 1 31 555 328 0 554 556 552 0 +.02137721397408295 0 -.040480025067
41415 0 1 0 1 0 0 .0025 16 554 31 0 ?557 558 547 555 0 0 1 31 556 327 0 529 559
 555 0 +.02137721397408295 .001 -.04048002506741415 0 -1 0 1 0 0 .0025 16 529 28
 0 ?527 526 532 556 0 0 1 31 559 326 0 558 560 556 0 +.0535879415848721 0 -.0496
775414156015 0 1 0 1 0 0 .0025 16 558 24 0 ?561 562 554 559 0 0 1 31 560 325 0 5
26 563 559 0 +.0535879415848721 .001 -.0496775414156015 0 -1 0 1 0 0 .0025 16 52
6 21 0 ?524 523 529 560 0 0 1 31 563 324 0 562 564 560 0 +.0750025246323458 0 -.
0496775414156015 0 1 0 1 0 0 .0025 16 562 17 0 ?565 206 558 563 0 0 1 31 564 323
 0 523 566 563 0 +.0750025246323458 .001 -.0496775414156015 0 -1 0 1 0 0 .0025 1
6 523 14 0 ?521 31 526 564 0 0 1 31 566 322 0 206 567 564 0 +.0974998188932057 0
 -.0582188414487813 0 1 0 1 0 0 .0025 16 206 10 0 ?568 192 562 566 0 0 1 31 567
 321 0 31 0 566 0 +.0974998188932057 .001 -.0582188414487813 0 -1 0 1 0 0 .0025
 16 31 7 0 ?30 183 523 567 0 0 1 17 568 0 509 568 568 27 32 206 0 0 +15 509 188
 0 568 336 569 17 32 0 413 32 32 27 568 206 0 568 -15 413 9 0 32 14 0 15 569 189
 0 565 336 570 17 565 0 569 565 565 38 40 562 0 0 +15 570 190 0 561 336 571 17 5
61 0 570 561 561 44 46 558 0 0 +15 571 191 0 557 336 572 17 557 0 571 557 557 50
 52 554 0 0 +15 572 192 0 553 336 573 17 553 0 572 553 553 56 58 547 0 0 +15 573
 193 0 546 336 545 17 546 0 573 546 546 62 64 543 0 0 +15 545 194 0 542 336 540
 15 540 195 0 539 336 574 15 574 196 0 223 336 180 17 223 0 574 223 223 80 82 22
1 0 0 +17 82 0 575 82 82 80 223 221 0 223 -15 575 65 0 82 437 0 17 64 0 576 64 6
4 62 546 543 0 546 -15 576 44 0 64 425 0 17 58 0 577 58 58 56 553 547 0 553 -15
 577 37 0 58 421 0 17 52 0 578 52 52 50 557 554 0 557 -15 578 30 0 52 417 0 17 4
6 0 579 46 46 44 561 558 0 561 -15 579 23 0 46 410 0 17 40 0 580 40 40 38 565 56
2 0 565 -15 580 16 0 40 405 0 17 70 0 581 70 70 68 542 541 0 542 -15 581 51 0 70
 429 0 17 67 0 434 67 67 65 536 216 0 536 -15 434 48 0 67 429 581 17 61 0 430 61
 61 59 533 535 0 533 -15 430 41 0 61 425 576 17 55 0 426 55 55 53 530 532 0 530
 -15 426 34 0 55 421 577 17 49 0 422 49 49 47 527 529 0 527 -15 422 27 0 49 417
 578 17 43 0 418 43 43 41 524 526 0 524 -15 418 20 0 43 410 579 17 37 0 411 37 3
7 33 521 523 0 521 -15 411 13 0 37 405 580 83 1 513 0 83 3 511 .5 .5 .5 50 17 31
9 0 336 501 5 0 +.0661774129296185 0 -.0310391631891871 0 1 0 .707106781186548 0
 .707106781186548 50 501 318 0 203 402 17 0 +.128793218610221 0 -.02193179626641
09 .999996769633905 0 .002541794986657995 -.00179732337445574 .707105639076895 .
707105639076895 50 402 317 0 191 396 501 0 +.1288163039920968 0 -.03101408158942
405 1 0 -1955841550822395e-30 138298882351293e-29 .707106781186548 .707106781186
548 83 1 505 0 83 3 503 .5 .5 .5 83 1 497 0 83 3 495 .5 .5 .5 83 3 490 .5 .5 .5
 81 1 471 272 483 389 0 467 582 478 583 83 3 485 .5 .5 .5 81 1 582 269 483 383 0
 472 584 471 585 83 3 583 .5 .5 .5 81 2 472 270 469 383 582 465 586 467 587 588
 81 1 584 266 483 379 0 586 589 582 590 83 3 585 .5 .5 .5 81 2 586 267 469 379 5
84 463 591 472 592 593 81 1 589 263 483 377 0 591 594 584 595 83 3 590 .5 .5 .5
 81 2 591 264 469 377 589 461 596 586 597 598 81 1 594 260 483 371 0 596 599 589
 600 83 3 595 .5 .5 .5 81 2 596 261 469 371 594 459 601 591 602 603 81 1 599 257
 483 367 0 601 604 594 605 83 3 600 .5 .5 .5 81 2 601 258 469 367 599 457 606 59
6 607 608 81 1 604 254 483 365 0 606 609 599 610 83 3 605 .5 .5 .5 81 2 606 255
 469 365 604 455 611 601 612 613 81 1 609 251 483 359 0 611 614 604 615 83 3 610
 .5 .5 .5 81 2 611 252 469 359 609 453 616 606 617 618 81 1 614 248 483 355 0 61
6 619 609 620 83 3 615 .5 .5 .5 81 2 616 249 469 355 614 451 621 611 622 623 81
 1 619 245 483 353 0 621 624 614 625 83 3 620 .5 .5 .5 81 2 621 246 469 353 619
 449 626 616 627 628 81 1 624 242 483 347 0 626 629 619 630 83 3 625 .5 .5 .5 81
 2 626 243 469 347 624 447 631 621 632 633 81 1 629 239 483 343 0 631 634 624 63
5 83 3 630 .5 .5 .5 81 2 631 240 469 343 629 445 636 626 637 638 81 1 634 236 48
3 341 0 636 639 629 640 83 3 635 .5 .5 .5 81 2 636 237 469 341 634 443 641 631 6
42 643 81 1 639 233 483 437 0 641 644 634 645 83 3 640 .5 .5 .5 81 2 641 234 469
 437 639 440 646 636 647 648 81 1 644 230 483 433 0 646 649 639 650 83 3 645 .5
 .5 .5 81 2 646 231 469 433 644 436 651 641 652 653 81 1 649 227 483 429 0 651 6
54 644 655 83 3 650 .5 .5 .5 81 2 651 228 469 429 649 432 656 646 657 658 81 1 6
54 224 483 425 0 656 659 649 660 83 3 655 .5 .5 .5 81 2 656 225 469 425 654 428
 661 651 662 663 81 1 659 221 483 421 0 661 664 654 665 83 3 660 .5 .5 .5 81 2 6
61 222 469 421 659 424 666 656 667 668 81 1 664 218 483 417 0 666 669 659 670 83
 3 665 .5 .5 .5 81 2 666 219 469 417 664 420 671 661 672 673 81 1 669 215 483 41
0 0 671 674 664 675 83 3 670 .5 .5 .5 81 2 671 216 469 410 669 416 676 666 677 6
78 81 1 674 212 483 405 0 676 679 669 680 83 3 675 .5 .5 .5 81 2 676 213 469 405
 674 408 407 671 681 682 81 1 679 209 483 14 0 407 0 674 683 83 3 680 .5 .5 .5 8
1 2 407 210 469 14 679 404 0 676 684 685 83 3 683 .5 .5 .5 83 4 684 0 0 .7490196
07843137 .749019607843137 82 1 685 15 81 1 408 214 397 405 676 0 404 416 686 83
 4 681 0 0 .749019607843137 .749019607843137 82 1 682 15 81 1 416 217 397 410 67
1 0 408 420 687 83 1 686 0 81 1 420 220 397 417 666 0 416 424 688 83 1 687 0 81
 1 424 223 397 421 661 0 420 428 689 83 1 688 0 81 1 428 226 397 425 656 0 424 4
32 690 83 1 689 0 81 1 432 229 397 429 651 0 428 436 691 83 1 690 0 81 1 436 232
 397 433 646 0 432 440 692 83 1 691 0 81 1 440 235 397 437 641 0 436 443 693 83
 1 692 0 81 1 443 238 397 341 636 0 440 445 694 83 1 693 0 81 1 445 241 397 343
 631 0 443 447 695 83 1 694 0 81 1 447 244 397 347 626 0 445 449 696 83 1 695 0
 81 1 449 247 397 353 621 0 447 451 697 83 1 696 0 81 1 451 250 397 355 616 0 44
9 453 698 83 1 697 0 81 1 453 253 397 359 611 0 451 455 699 83 1 698 0 81 1 455
 256 397 365 606 0 453 457 700 83 1 699 0 81 1 457 259 397 367 601 0 455 459 701
 83 1 700 0 81 1 459 262 397 371 596 0 457 461 702 83 1 701 0 81 1 461 265 397 3
77 591 0 459 463 703 83 1 702 0 81 1 463 268 397 379 586 0 461 465 704 83 1 703
 0 83 1 704 0 83 4 677 0 0 .749019607843137 .749019607843137 82 1 678 15 83 4 67
2 0 0 .749019607843137 .749019607843137 82 1 673 15 83 4 667 0 0 .74901960784313
7 .749019607843137 82 1 668 15 83 4 662 0 0 .749019607843137 .749019607843137 82
 1 663 15 83 4 657 0 0 .749019607843137 .749019607843137 82 1 658 15 83 4 652 0
 0 .749019607843137 .749019607843137 82 1 653 15 83 4 647 0 0 .749019607843137 .
749019607843137 82 1 648 15 83 4 642 0 0 .749019607843137 .749019607843137 82 1
 643 15 83 4 637 0 0 .749019607843137 .749019607843137 82 1 638 15 83 4 632 0 0
 .749019607843137 .749019607843137 82 1 633 15 83 4 627 0 0 .749019607843137 .74
9019607843137 82 1 628 15 83 4 622 0 0 .749019607843137 .749019607843137 82 1 62
3 15 83 4 617 0 0 .749019607843137 .749019607843137 82 1 618 15 83 4 612 0 0 .74
9019607843137 .749019607843137 82 1 613 15 83 4 607 0 0 .749019607843137 .749019
607843137 82 1 608 15 83 4 602 0 0 .749019607843137 .749019607843137 82 1 603 15
 83 4 597 0 0 .749019607843137 .749019607843137 82 1 598 15 83 4 592 0 0 .749019
607843137 .749019607843137 82 1 593 15 83 4 587 0 0 .749019607843137 .7490196078
43137 82 1 588 15 79 21 482 SDL/TYSA_REFLECTIVITY83 1 476 0 83 4 474 0 0 .749019
607843137 .749019607843137 82 1 475 15 79 21 470 SDL/TYSA_TRANSLUCENCY15 441 62
 0 79 437 575 17 79 0 441 79 79 77 211 210 0 211 -83 1 409 0 83 1 401 0 17 23 0
 340 95 85 86 204 9 0 202 +17 204 0 201 193 202 83 23 9 0 181 -19 15 1 0 1 0 8 4
 S0 74 20 13 4 0 0 510 506 512 2 0 0 0 0 0 0 0 0 0 0 0 0 0 0 0 0 80 1 11 705 706
 8017 0 0 0 0 0 0 0 0 0 TTTTTTTTTTTTTF3 84 6 12 Solid179 13 706 SDL/TYSA_NAME1 0
 
